<mxfile host="app.diagrams.net" modified="2022-11-30T05:30:58.803Z" agent="5.0 (Macintosh; Intel Mac OS X 10_15_7) AppleWebKit/537.36 (KHTML, like Gecko) Chrome/107.0.0.0 Safari/537.36" version="20.6.0" etag="duiVOOTiII-wOqW_-Qa9" type="github">
  <diagram id="FDNCHmbq4g4QRqkRjW3C" name="第 1 页">
    <mxGraphModel dx="1909" dy="1033" grid="0" gridSize="10" guides="1" tooltips="1" connect="1" arrows="1" fold="1" page="1" pageScale="1" pageWidth="827" pageHeight="1169" math="0" shadow="0">
      <root>
        <mxCell id="0" />
        <mxCell id="1" parent="0" />
        <mxCell id="Jjxi664DVSr25sezRC5C-1" value="0" style="rounded=0;whiteSpace=wrap;html=1;fontSize=16;fillColor=#d5e8d4;strokeColor=#82b366;" vertex="1" parent="1">
          <mxGeometry x="320.40037037037035" y="292.33333333333337" width="41.48148148148148" height="66.66666666666667" as="geometry" />
        </mxCell>
        <mxCell id="Jjxi664DVSr25sezRC5C-2" value="0" style="rounded=0;whiteSpace=wrap;html=1;fontSize=16;fillColor=#dae8fc;strokeColor=#6c8ebf;" vertex="1" parent="1">
          <mxGeometry x="361.8818518518518" y="292.33333333333337" width="41.48148148148148" height="66.66666666666667" as="geometry" />
        </mxCell>
        <mxCell id="Jjxi664DVSr25sezRC5C-3" value="0" style="rounded=0;whiteSpace=wrap;html=1;fontSize=16;fillColor=#ffe6cc;strokeColor=#d79b00;" vertex="1" parent="1">
          <mxGeometry x="403.3633333333333" y="292.33333333333337" width="41.48148148148148" height="66.66666666666667" as="geometry" />
        </mxCell>
        <mxCell id="Jjxi664DVSr25sezRC5C-17" style="edgeStyle=none;rounded=0;orthogonalLoop=1;jettySize=auto;html=1;entryX=0.5;entryY=0;entryDx=0;entryDy=0;exitX=0.48;exitY=0.967;exitDx=0;exitDy=0;exitPerimeter=0;fontSize=16;" edge="1" parent="1" source="Jjxi664DVSr25sezRC5C-7" target="Jjxi664DVSr25sezRC5C-3">
          <mxGeometry relative="1" as="geometry" />
        </mxCell>
        <mxCell id="Jjxi664DVSr25sezRC5C-7" value="name" style="text;html=1;align=center;verticalAlign=middle;resizable=0;points=[];autosize=1;strokeColor=#d79b00;fillColor=#ffe6cc;fontSize=16;" vertex="1" parent="1">
          <mxGeometry x="275.96" y="192.33333333333334" width="60" height="30" as="geometry" />
        </mxCell>
        <mxCell id="Jjxi664DVSr25sezRC5C-16" style="edgeStyle=none;rounded=0;orthogonalLoop=1;jettySize=auto;html=1;entryX=0.5;entryY=0;entryDx=0;entryDy=0;fontSize=16;" edge="1" parent="1" source="Jjxi664DVSr25sezRC5C-8" target="Jjxi664DVSr25sezRC5C-2">
          <mxGeometry relative="1" as="geometry" />
        </mxCell>
        <mxCell id="Jjxi664DVSr25sezRC5C-8" value="phone" style="text;html=1;align=center;verticalAlign=middle;resizable=0;points=[];autosize=1;strokeColor=#6c8ebf;fillColor=#dae8fc;fontSize=16;" vertex="1" parent="1">
          <mxGeometry x="347.6262962962963" y="192.33333333333334" width="70" height="30" as="geometry" />
        </mxCell>
        <mxCell id="Jjxi664DVSr25sezRC5C-15" style="rounded=0;orthogonalLoop=1;jettySize=auto;html=1;entryX=0.5;entryY=0;entryDx=0;entryDy=0;exitX=0.45;exitY=0.967;exitDx=0;exitDy=0;exitPerimeter=0;fontSize=16;" edge="1" parent="1" source="Jjxi664DVSr25sezRC5C-9" target="Jjxi664DVSr25sezRC5C-1">
          <mxGeometry relative="1" as="geometry" />
        </mxCell>
        <mxCell id="Jjxi664DVSr25sezRC5C-9" value="age" style="text;html=1;align=center;verticalAlign=middle;resizable=0;points=[];autosize=1;strokeColor=#82b366;fillColor=#d5e8d4;fontSize=16;" vertex="1" parent="1">
          <mxGeometry x="425.95814814814815" y="192.33333333333334" width="50" height="30" as="geometry" />
        </mxCell>
        <mxCell id="Jjxi664DVSr25sezRC5C-11" value="" style="shape=flexArrow;endArrow=classic;html=1;rounded=0;fontSize=16;" edge="1" parent="1">
          <mxGeometry width="50" height="50" relative="1" as="geometry">
            <mxPoint x="325.5907407407407" y="168.9966666666667" as="sourcePoint" />
            <mxPoint x="439.66481481481475" y="168.9966666666667" as="targetPoint" />
          </mxGeometry>
        </mxCell>
        <mxCell id="Jjxi664DVSr25sezRC5C-12" value="列的顺序" style="text;html=1;align=center;verticalAlign=middle;resizable=0;points=[];autosize=1;strokeColor=none;fillColor=none;fontSize=16;" vertex="1" parent="1">
          <mxGeometry x="335.9559259259259" y="129" width="90" height="30" as="geometry" />
        </mxCell>
        <mxCell id="Jjxi664DVSr25sezRC5C-19" value="逆向存放" style="text;html=1;align=center;verticalAlign=middle;resizable=0;points=[];autosize=1;strokeColor=none;fillColor=none;fontSize=16;" vertex="1" parent="1">
          <mxGeometry x="415.03" y="244" width="90" height="30" as="geometry" />
        </mxCell>
        <mxCell id="Jjxi664DVSr25sezRC5C-20" value="NULL 值列表" style="text;html=1;align=center;verticalAlign=middle;resizable=0;points=[];autosize=1;strokeColor=none;fillColor=none;fontSize=16;" vertex="1" parent="1">
          <mxGeometry x="322.63" y="366" width="120" height="30" as="geometry" />
        </mxCell>
        <mxCell id="Jjxi664DVSr25sezRC5C-21" value="0" style="rounded=0;whiteSpace=wrap;html=1;fontSize=16;fillColor=#f5f5f5;strokeColor=#666666;fontColor=#333333;" vertex="1" parent="1">
          <mxGeometry x="278.9203703703704" y="292.33333333333337" width="41.48148148148148" height="66.66666666666667" as="geometry" />
        </mxCell>
        <mxCell id="Jjxi664DVSr25sezRC5C-22" value="0" style="rounded=0;whiteSpace=wrap;html=1;fontSize=16;fillColor=#f5f5f5;strokeColor=#666666;fontColor=#333333;" vertex="1" parent="1">
          <mxGeometry x="237.44037037037037" y="292.33333333333337" width="41.48148148148148" height="66.66666666666667" as="geometry" />
        </mxCell>
        <mxCell id="Jjxi664DVSr25sezRC5C-23" value="0" style="rounded=0;whiteSpace=wrap;html=1;fontSize=16;fillColor=#f5f5f5;strokeColor=#666666;fontColor=#333333;" vertex="1" parent="1">
          <mxGeometry x="195.9603703703704" y="292.33333333333337" width="41.48148148148148" height="66.66666666666667" as="geometry" />
        </mxCell>
        <mxCell id="Jjxi664DVSr25sezRC5C-24" value="0" style="rounded=0;whiteSpace=wrap;html=1;fontSize=16;fillColor=#f5f5f5;strokeColor=#666666;fontColor=#333333;" vertex="1" parent="1">
          <mxGeometry x="154.4803703703704" y="292.33333333333337" width="41.48148148148148" height="66.66666666666667" as="geometry" />
        </mxCell>
        <mxCell id="Jjxi664DVSr25sezRC5C-25" value="0" style="rounded=0;whiteSpace=wrap;html=1;fontSize=16;fillColor=#f5f5f5;strokeColor=#666666;fontColor=#333333;" vertex="1" parent="1">
          <mxGeometry x="113.0003703703704" y="292.33333333333337" width="41.48148148148148" height="66.66666666666667" as="geometry" />
        </mxCell>
        <mxCell id="Jjxi664DVSr25sezRC5C-26" value="&lt;font color=&quot;#ff0000&quot;&gt;&lt;b&gt;1&lt;/b&gt;&lt;/font&gt;" style="rounded=0;whiteSpace=wrap;html=1;fontSize=16;fillColor=#d5e8d4;strokeColor=#82b366;" vertex="1" parent="1">
          <mxGeometry x="311.05037037037033" y="602.3333333333334" width="41.48148148148148" height="66.66666666666667" as="geometry" />
        </mxCell>
        <mxCell id="Jjxi664DVSr25sezRC5C-27" value="0" style="rounded=0;whiteSpace=wrap;html=1;fontSize=16;fillColor=#dae8fc;strokeColor=#6c8ebf;" vertex="1" parent="1">
          <mxGeometry x="352.5318518518518" y="602.3333333333334" width="41.48148148148148" height="66.66666666666667" as="geometry" />
        </mxCell>
        <mxCell id="Jjxi664DVSr25sezRC5C-28" value="0" style="rounded=0;whiteSpace=wrap;html=1;fontSize=16;fillColor=#ffe6cc;strokeColor=#d79b00;" vertex="1" parent="1">
          <mxGeometry x="394.01333333333326" y="602.3333333333334" width="41.48148148148148" height="66.66666666666667" as="geometry" />
        </mxCell>
        <mxCell id="Jjxi664DVSr25sezRC5C-29" style="edgeStyle=none;rounded=0;orthogonalLoop=1;jettySize=auto;html=1;entryX=0.5;entryY=0;entryDx=0;entryDy=0;exitX=0.48;exitY=0.967;exitDx=0;exitDy=0;exitPerimeter=0;fontSize=16;" edge="1" parent="1" source="Jjxi664DVSr25sezRC5C-30" target="Jjxi664DVSr25sezRC5C-28">
          <mxGeometry relative="1" as="geometry" />
        </mxCell>
        <mxCell id="Jjxi664DVSr25sezRC5C-30" value="name" style="text;html=1;align=center;verticalAlign=middle;resizable=0;points=[];autosize=1;strokeColor=#d79b00;fillColor=#ffe6cc;fontSize=16;" vertex="1" parent="1">
          <mxGeometry x="266.60999999999996" y="502.33333333333337" width="60" height="30" as="geometry" />
        </mxCell>
        <mxCell id="Jjxi664DVSr25sezRC5C-31" style="edgeStyle=none;rounded=0;orthogonalLoop=1;jettySize=auto;html=1;entryX=0.5;entryY=0;entryDx=0;entryDy=0;fontSize=16;" edge="1" parent="1" source="Jjxi664DVSr25sezRC5C-32" target="Jjxi664DVSr25sezRC5C-27">
          <mxGeometry relative="1" as="geometry" />
        </mxCell>
        <mxCell id="Jjxi664DVSr25sezRC5C-32" value="phone" style="text;html=1;align=center;verticalAlign=middle;resizable=0;points=[];autosize=1;strokeColor=#6c8ebf;fillColor=#dae8fc;fontSize=16;" vertex="1" parent="1">
          <mxGeometry x="338.27629629629627" y="502.33333333333337" width="70" height="30" as="geometry" />
        </mxCell>
        <mxCell id="Jjxi664DVSr25sezRC5C-33" style="rounded=0;orthogonalLoop=1;jettySize=auto;html=1;entryX=0.5;entryY=0;entryDx=0;entryDy=0;exitX=0.45;exitY=0.967;exitDx=0;exitDy=0;exitPerimeter=0;fontSize=16;" edge="1" parent="1" source="Jjxi664DVSr25sezRC5C-34" target="Jjxi664DVSr25sezRC5C-26">
          <mxGeometry relative="1" as="geometry" />
        </mxCell>
        <mxCell id="Jjxi664DVSr25sezRC5C-34" value="age" style="text;html=1;align=center;verticalAlign=middle;resizable=0;points=[];autosize=1;strokeColor=#82b366;fillColor=#d5e8d4;fontSize=16;" vertex="1" parent="1">
          <mxGeometry x="416.60814814814813" y="502.33333333333337" width="50" height="30" as="geometry" />
        </mxCell>
        <mxCell id="Jjxi664DVSr25sezRC5C-35" value="" style="shape=flexArrow;endArrow=classic;html=1;rounded=0;fontSize=16;" edge="1" parent="1">
          <mxGeometry width="50" height="50" relative="1" as="geometry">
            <mxPoint x="316.24074074074076" y="478.99666666666667" as="sourcePoint" />
            <mxPoint x="430.31481481481467" y="478.99666666666667" as="targetPoint" />
          </mxGeometry>
        </mxCell>
        <mxCell id="Jjxi664DVSr25sezRC5C-36" value="列的顺序" style="text;html=1;align=center;verticalAlign=middle;resizable=0;points=[];autosize=1;strokeColor=none;fillColor=none;fontSize=16;" vertex="1" parent="1">
          <mxGeometry x="326.6059259259259" y="439" width="90" height="30" as="geometry" />
        </mxCell>
        <mxCell id="Jjxi664DVSr25sezRC5C-37" value="逆向存放" style="text;html=1;align=center;verticalAlign=middle;resizable=0;points=[];autosize=1;strokeColor=none;fillColor=none;fontSize=16;" vertex="1" parent="1">
          <mxGeometry x="405.67999999999995" y="554" width="90" height="30" as="geometry" />
        </mxCell>
        <mxCell id="Jjxi664DVSr25sezRC5C-38" value="NULL 值列表" style="text;html=1;align=center;verticalAlign=middle;resizable=0;points=[];autosize=1;strokeColor=none;fillColor=none;fontSize=16;" vertex="1" parent="1">
          <mxGeometry x="313.28" y="676" width="120" height="30" as="geometry" />
        </mxCell>
        <mxCell id="Jjxi664DVSr25sezRC5C-39" value="0" style="rounded=0;whiteSpace=wrap;html=1;fontSize=16;fillColor=#f5f5f5;strokeColor=#666666;fontColor=#333333;" vertex="1" parent="1">
          <mxGeometry x="269.57037037037037" y="602.3333333333334" width="41.48148148148148" height="66.66666666666667" as="geometry" />
        </mxCell>
        <mxCell id="Jjxi664DVSr25sezRC5C-40" value="0" style="rounded=0;whiteSpace=wrap;html=1;fontSize=16;fillColor=#f5f5f5;strokeColor=#666666;fontColor=#333333;" vertex="1" parent="1">
          <mxGeometry x="228.09037037037038" y="602.3333333333334" width="41.48148148148148" height="66.66666666666667" as="geometry" />
        </mxCell>
        <mxCell id="Jjxi664DVSr25sezRC5C-41" value="0" style="rounded=0;whiteSpace=wrap;html=1;fontSize=16;fillColor=#f5f5f5;strokeColor=#666666;fontColor=#333333;" vertex="1" parent="1">
          <mxGeometry x="186.61037037037042" y="602.3333333333334" width="41.48148148148148" height="66.66666666666667" as="geometry" />
        </mxCell>
        <mxCell id="Jjxi664DVSr25sezRC5C-42" value="0" style="rounded=0;whiteSpace=wrap;html=1;fontSize=16;fillColor=#f5f5f5;strokeColor=#666666;fontColor=#333333;" vertex="1" parent="1">
          <mxGeometry x="145.1303703703704" y="602.3333333333334" width="41.48148148148148" height="66.66666666666667" as="geometry" />
        </mxCell>
        <mxCell id="Jjxi664DVSr25sezRC5C-43" value="0" style="rounded=0;whiteSpace=wrap;html=1;fontSize=16;fillColor=#f5f5f5;strokeColor=#666666;fontColor=#333333;" vertex="1" parent="1">
          <mxGeometry x="103.65037037037041" y="602.3333333333334" width="41.48148148148148" height="66.66666666666667" as="geometry" />
        </mxCell>
        <mxCell id="Jjxi664DVSr25sezRC5C-44" value="&lt;font color=&quot;#ff0000&quot;&gt;&lt;b&gt;1&lt;/b&gt;&lt;/font&gt;" style="rounded=0;whiteSpace=wrap;html=1;fontSize=16;fillColor=#d5e8d4;strokeColor=#82b366;" vertex="1" parent="1">
          <mxGeometry x="317.34037037037035" y="916.3333333333334" width="41.48148148148148" height="66.66666666666667" as="geometry" />
        </mxCell>
        <mxCell id="Jjxi664DVSr25sezRC5C-45" value="&lt;font color=&quot;#ff0000&quot;&gt;&lt;b&gt;1&lt;/b&gt;&lt;/font&gt;" style="rounded=0;whiteSpace=wrap;html=1;fontSize=16;fillColor=#dae8fc;strokeColor=#6c8ebf;" vertex="1" parent="1">
          <mxGeometry x="358.8218518518518" y="916.3333333333334" width="41.48148148148148" height="66.66666666666667" as="geometry" />
        </mxCell>
        <mxCell id="Jjxi664DVSr25sezRC5C-46" value="0" style="rounded=0;whiteSpace=wrap;html=1;fontSize=16;fillColor=#ffe6cc;strokeColor=#d79b00;" vertex="1" parent="1">
          <mxGeometry x="400.3033333333333" y="916.3333333333334" width="41.48148148148148" height="66.66666666666667" as="geometry" />
        </mxCell>
        <mxCell id="Jjxi664DVSr25sezRC5C-47" style="edgeStyle=none;rounded=0;orthogonalLoop=1;jettySize=auto;html=1;entryX=0.5;entryY=0;entryDx=0;entryDy=0;exitX=0.48;exitY=0.967;exitDx=0;exitDy=0;exitPerimeter=0;fontSize=16;" edge="1" parent="1" source="Jjxi664DVSr25sezRC5C-48" target="Jjxi664DVSr25sezRC5C-46">
          <mxGeometry relative="1" as="geometry" />
        </mxCell>
        <mxCell id="Jjxi664DVSr25sezRC5C-48" value="name" style="text;html=1;align=center;verticalAlign=middle;resizable=0;points=[];autosize=1;strokeColor=#d79b00;fillColor=#ffe6cc;fontSize=16;" vertex="1" parent="1">
          <mxGeometry x="272.9" y="816.3333333333334" width="60" height="30" as="geometry" />
        </mxCell>
        <mxCell id="Jjxi664DVSr25sezRC5C-49" style="edgeStyle=none;rounded=0;orthogonalLoop=1;jettySize=auto;html=1;entryX=0.5;entryY=0;entryDx=0;entryDy=0;fontSize=16;" edge="1" parent="1" source="Jjxi664DVSr25sezRC5C-50" target="Jjxi664DVSr25sezRC5C-45">
          <mxGeometry relative="1" as="geometry" />
        </mxCell>
        <mxCell id="Jjxi664DVSr25sezRC5C-50" value="phone" style="text;html=1;align=center;verticalAlign=middle;resizable=0;points=[];autosize=1;strokeColor=#6c8ebf;fillColor=#dae8fc;fontSize=16;" vertex="1" parent="1">
          <mxGeometry x="344.5662962962963" y="816.3333333333334" width="70" height="30" as="geometry" />
        </mxCell>
        <mxCell id="Jjxi664DVSr25sezRC5C-51" style="rounded=0;orthogonalLoop=1;jettySize=auto;html=1;entryX=0.5;entryY=0;entryDx=0;entryDy=0;exitX=0.45;exitY=0.967;exitDx=0;exitDy=0;exitPerimeter=0;fontSize=16;" edge="1" parent="1" source="Jjxi664DVSr25sezRC5C-52" target="Jjxi664DVSr25sezRC5C-44">
          <mxGeometry relative="1" as="geometry" />
        </mxCell>
        <mxCell id="Jjxi664DVSr25sezRC5C-52" value="age" style="text;html=1;align=center;verticalAlign=middle;resizable=0;points=[];autosize=1;strokeColor=#82b366;fillColor=#d5e8d4;fontSize=16;" vertex="1" parent="1">
          <mxGeometry x="422.89814814814815" y="816.3333333333334" width="50" height="30" as="geometry" />
        </mxCell>
        <mxCell id="Jjxi664DVSr25sezRC5C-53" value="" style="shape=flexArrow;endArrow=classic;html=1;rounded=0;fontSize=16;" edge="1" parent="1">
          <mxGeometry width="50" height="50" relative="1" as="geometry">
            <mxPoint x="322.5307407407409" y="792.9966666666667" as="sourcePoint" />
            <mxPoint x="436.6048148148148" y="792.9966666666667" as="targetPoint" />
          </mxGeometry>
        </mxCell>
        <mxCell id="Jjxi664DVSr25sezRC5C-54" value="列的顺序" style="text;html=1;align=center;verticalAlign=middle;resizable=0;points=[];autosize=1;strokeColor=none;fillColor=none;fontSize=16;" vertex="1" parent="1">
          <mxGeometry x="332.8959259259259" y="753" width="90" height="30" as="geometry" />
        </mxCell>
        <mxCell id="Jjxi664DVSr25sezRC5C-55" value="逆向存放" style="text;html=1;align=center;verticalAlign=middle;resizable=0;points=[];autosize=1;strokeColor=none;fillColor=none;fontSize=16;" vertex="1" parent="1">
          <mxGeometry x="411.96999999999997" y="868" width="90" height="30" as="geometry" />
        </mxCell>
        <mxCell id="Jjxi664DVSr25sezRC5C-56" value="NULL 值列表" style="text;html=1;align=center;verticalAlign=middle;resizable=0;points=[];autosize=1;strokeColor=none;fillColor=none;fontSize=16;" vertex="1" parent="1">
          <mxGeometry x="319.57" y="990" width="120" height="30" as="geometry" />
        </mxCell>
        <mxCell id="Jjxi664DVSr25sezRC5C-57" value="0" style="rounded=0;whiteSpace=wrap;html=1;fontSize=16;fillColor=#f5f5f5;strokeColor=#666666;fontColor=#333333;" vertex="1" parent="1">
          <mxGeometry x="275.8603703703704" y="916.3333333333334" width="41.48148148148148" height="66.66666666666667" as="geometry" />
        </mxCell>
        <mxCell id="Jjxi664DVSr25sezRC5C-58" value="0" style="rounded=0;whiteSpace=wrap;html=1;fontSize=16;fillColor=#f5f5f5;strokeColor=#666666;fontColor=#333333;" vertex="1" parent="1">
          <mxGeometry x="234.38037037037037" y="916.3333333333334" width="41.48148148148148" height="66.66666666666667" as="geometry" />
        </mxCell>
        <mxCell id="Jjxi664DVSr25sezRC5C-59" value="0" style="rounded=0;whiteSpace=wrap;html=1;fontSize=16;fillColor=#f5f5f5;strokeColor=#666666;fontColor=#333333;" vertex="1" parent="1">
          <mxGeometry x="192.9003703703704" y="916.3333333333334" width="41.48148148148148" height="66.66666666666667" as="geometry" />
        </mxCell>
        <mxCell id="Jjxi664DVSr25sezRC5C-60" value="0" style="rounded=0;whiteSpace=wrap;html=1;fontSize=16;fillColor=#f5f5f5;strokeColor=#666666;fontColor=#333333;" vertex="1" parent="1">
          <mxGeometry x="151.4203703703704" y="916.3333333333334" width="41.48148148148148" height="66.66666666666667" as="geometry" />
        </mxCell>
        <mxCell id="Jjxi664DVSr25sezRC5C-61" value="0" style="rounded=0;whiteSpace=wrap;html=1;fontSize=16;fillColor=#f5f5f5;strokeColor=#666666;fontColor=#333333;" vertex="1" parent="1">
          <mxGeometry x="109.94037037037042" y="916.3333333333334" width="41.48148148148148" height="66.66666666666667" as="geometry" />
        </mxCell>
        <mxCell id="Jjxi664DVSr25sezRC5C-87" value="" style="rounded=0;whiteSpace=wrap;html=1;labelBackgroundColor=none;fontSize=15;fontColor=#FFFFFF;" vertex="1" parent="1">
          <mxGeometry x="101" y="1338" width="1200" height="300" as="geometry" />
        </mxCell>
        <mxCell id="Jjxi664DVSr25sezRC5C-88" value="" style="rounded=0;whiteSpace=wrap;html=1;dashed=1;fontSize=16;strokeWidth=2;fillColor=#0050ef;fontColor=#ffffff;strokeColor=#001DBC;" vertex="1" parent="1">
          <mxGeometry x="161" y="1468" width="133.36" height="70" as="geometry" />
        </mxCell>
        <mxCell id="Jjxi664DVSr25sezRC5C-89" value="00" style="rounded=0;whiteSpace=wrap;html=1;dashed=1;fontSize=16;strokeWidth=2;fillColor=#6a00ff;fontColor=#ffffff;strokeColor=#3700CC;" vertex="1" parent="1">
          <mxGeometry x="294.3644859813084" y="1468" width="123.3644859813084" height="70" as="geometry" />
        </mxCell>
        <mxCell id="Jjxi664DVSr25sezRC5C-90" value="记录头信息&lt;br style=&quot;font-size: 16px;&quot;&gt;5 字节" style="rounded=0;whiteSpace=wrap;html=1;fontSize=16;fillColor=#fa6800;fontColor=#000000;strokeColor=#C73500;" vertex="1" parent="1">
          <mxGeometry x="417.7289719626168" y="1468" width="123.3644859813084" height="70" as="geometry" />
        </mxCell>
        <mxCell id="Jjxi664DVSr25sezRC5C-91" value="row_id&lt;br style=&quot;font-size: 16px;&quot;&gt;6 字节&amp;nbsp;" style="rounded=0;whiteSpace=wrap;html=1;dashed=1;fontSize=16;fillColor=#f5f5f5;fontColor=#333333;strokeColor=#666666;strokeWidth=2;" vertex="1" parent="1">
          <mxGeometry x="541.0934579439252" y="1468" width="123.3644859813084" height="70" as="geometry" />
        </mxCell>
        <mxCell id="Jjxi664DVSr25sezRC5C-92" value="trx_id" style="rounded=0;whiteSpace=wrap;html=1;fontSize=16;fillColor=#f5f5f5;fontColor=#333333;strokeColor=#666666;" vertex="1" parent="1">
          <mxGeometry x="664.4579439252336" y="1468" width="123.3644859813084" height="70" as="geometry" />
        </mxCell>
        <mxCell id="Jjxi664DVSr25sezRC5C-93" value="roll_ptr" style="rounded=0;whiteSpace=wrap;html=1;fontSize=16;fillColor=#f5f5f5;fontColor=#333333;strokeColor=#666666;" vertex="1" parent="1">
          <mxGeometry x="787.822429906542" y="1468" width="123.3644859813084" height="70" as="geometry" />
        </mxCell>
        <mxCell id="Jjxi664DVSr25sezRC5C-94" value="列1值" style="rounded=0;whiteSpace=wrap;html=1;fontSize=16;fillColor=#60a917;fontColor=#ffffff;strokeColor=#2D7600;" vertex="1" parent="1">
          <mxGeometry x="911.1869158878504" y="1468" width="123.3644859813084" height="70" as="geometry" />
        </mxCell>
        <mxCell id="Jjxi664DVSr25sezRC5C-95" value="列2值" style="rounded=0;whiteSpace=wrap;html=1;fontSize=16;fillColor=#60a917;fontColor=#ffffff;strokeColor=#2D7600;" vertex="1" parent="1">
          <mxGeometry x="1024.271028037383" y="1468" width="123.3644859813084" height="70" as="geometry" />
        </mxCell>
        <mxCell id="Jjxi664DVSr25sezRC5C-96" value="列n值" style="rounded=0;whiteSpace=wrap;html=1;fontSize=16;fillColor=#60a917;fontColor=#ffffff;strokeColor=#2D7600;" vertex="1" parent="1">
          <mxGeometry x="1147.6355140186915" y="1468" width="123.3644859813084" height="70" as="geometry" />
        </mxCell>
        <mxCell id="Jjxi664DVSr25sezRC5C-97" value="" style="endArrow=none;html=1;rounded=0;fontSize=16;entryX=0;entryY=1;entryDx=0;entryDy=0;" edge="1" parent="1" target="Jjxi664DVSr25sezRC5C-88">
          <mxGeometry width="50" height="50" relative="1" as="geometry">
            <mxPoint x="161" y="1588" as="sourcePoint" />
            <mxPoint x="211" y="1568" as="targetPoint" />
          </mxGeometry>
        </mxCell>
        <mxCell id="Jjxi664DVSr25sezRC5C-98" value="" style="endArrow=none;html=1;rounded=0;fontSize=16;entryX=1;entryY=1;entryDx=0;entryDy=0;" edge="1" parent="1" target="Jjxi664DVSr25sezRC5C-90">
          <mxGeometry width="50" height="50" relative="1" as="geometry">
            <mxPoint x="541" y="1588" as="sourcePoint" />
            <mxPoint x="621" y="1578" as="targetPoint" />
          </mxGeometry>
        </mxCell>
        <mxCell id="Jjxi664DVSr25sezRC5C-99" value="记录的额外信息" style="text;html=1;align=center;verticalAlign=middle;resizable=0;points=[];autosize=1;strokeColor=none;fillColor=none;fontSize=16;" vertex="1" parent="1">
          <mxGeometry x="261" y="1553" width="140" height="30" as="geometry" />
        </mxCell>
        <mxCell id="Jjxi664DVSr25sezRC5C-100" value="" style="endArrow=none;html=1;rounded=0;fontSize=16;entryX=1;entryY=1;entryDx=0;entryDy=0;" edge="1" parent="1">
          <mxGeometry width="50" height="50" relative="1" as="geometry">
            <mxPoint x="1271" y="1593" as="sourcePoint" />
            <mxPoint x="1271.0934579439254" y="1543" as="targetPoint" />
          </mxGeometry>
        </mxCell>
        <mxCell id="Jjxi664DVSr25sezRC5C-101" value="记录的真实数据" style="text;html=1;align=center;verticalAlign=middle;resizable=0;points=[];autosize=1;strokeColor=none;fillColor=none;fontSize=16;" vertex="1" parent="1">
          <mxGeometry x="821" y="1553" width="140" height="30" as="geometry" />
        </mxCell>
        <mxCell id="Jjxi664DVSr25sezRC5C-102" value="" style="endArrow=classic;html=1;rounded=0;fontSize=16;exitX=1.011;exitY=0.6;exitDx=0;exitDy=0;exitPerimeter=0;" edge="1" parent="1" source="Jjxi664DVSr25sezRC5C-99">
          <mxGeometry width="50" height="50" relative="1" as="geometry">
            <mxPoint x="451" y="1688" as="sourcePoint" />
            <mxPoint x="541" y="1571" as="targetPoint" />
          </mxGeometry>
        </mxCell>
        <mxCell id="Jjxi664DVSr25sezRC5C-103" value="" style="endArrow=classic;html=1;rounded=0;fontSize=16;" edge="1" parent="1" source="Jjxi664DVSr25sezRC5C-99">
          <mxGeometry width="50" height="50" relative="1" as="geometry">
            <mxPoint x="261" y="1698" as="sourcePoint" />
            <mxPoint x="161" y="1568" as="targetPoint" />
          </mxGeometry>
        </mxCell>
        <mxCell id="Jjxi664DVSr25sezRC5C-104" value="" style="endArrow=classic;html=1;rounded=0;fontSize=16;" edge="1" parent="1" source="Jjxi664DVSr25sezRC5C-101">
          <mxGeometry width="50" height="50" relative="1" as="geometry">
            <mxPoint x="771" y="1688" as="sourcePoint" />
            <mxPoint x="541" y="1568" as="targetPoint" />
          </mxGeometry>
        </mxCell>
        <mxCell id="Jjxi664DVSr25sezRC5C-105" value="" style="endArrow=classic;html=1;rounded=0;fontSize=16;" edge="1" parent="1" source="Jjxi664DVSr25sezRC5C-101">
          <mxGeometry width="50" height="50" relative="1" as="geometry">
            <mxPoint x="1171" y="1618" as="sourcePoint" />
            <mxPoint x="1271" y="1568" as="targetPoint" />
          </mxGeometry>
        </mxCell>
        <mxCell id="Jjxi664DVSr25sezRC5C-106" value="变长字段长度列表" style="text;html=1;align=center;verticalAlign=middle;resizable=0;points=[];autosize=1;strokeColor=none;fillColor=none;fontSize=15;" vertex="1" parent="1">
          <mxGeometry x="161" y="1538" width="140" height="30" as="geometry" />
        </mxCell>
        <mxCell id="Jjxi664DVSr25sezRC5C-107" value="" style="endArrow=classic;html=1;rounded=0;fontSize=15;fontColor=#FFFFFF;exitX=0.538;exitY=0.05;exitDx=0;exitDy=0;exitPerimeter=0;" edge="1" parent="1" source="Jjxi664DVSr25sezRC5C-108">
          <mxGeometry width="50" height="50" relative="1" as="geometry">
            <mxPoint x="251" y="1308" as="sourcePoint" />
            <mxPoint x="261" y="1418" as="targetPoint" />
          </mxGeometry>
        </mxCell>
        <mxCell id="Jjxi664DVSr25sezRC5C-108" value="03" style="text;html=1;align=center;verticalAlign=middle;resizable=0;points=[];autosize=1;strokeColor=none;fillColor=none;fontSize=15;fontColor=#FFFFFF;labelBackgroundColor=none;" vertex="1" parent="1">
          <mxGeometry x="191" y="1488" width="40" height="30" as="geometry" />
        </mxCell>
        <mxCell id="Jjxi664DVSr25sezRC5C-109" value="01" style="text;html=1;align=center;verticalAlign=middle;resizable=0;points=[];autosize=1;strokeColor=none;fillColor=none;fontSize=15;fontColor=#FFFFFF;labelBackgroundColor=none;" vertex="1" parent="1">
          <mxGeometry x="231" y="1488" width="40" height="30" as="geometry" />
        </mxCell>
        <mxCell id="Jjxi664DVSr25sezRC5C-110" value="phone 列&lt;br&gt;占用的字节数" style="text;html=1;align=center;verticalAlign=middle;resizable=0;points=[];autosize=1;strokeColor=none;fillColor=none;fontSize=15;fontColor=#000000;labelBackgroundColor=none;" vertex="1" parent="1">
          <mxGeometry x="231" y="1368" width="110" height="50" as="geometry" />
        </mxCell>
        <mxCell id="Jjxi664DVSr25sezRC5C-111" value="" style="endArrow=classic;html=1;rounded=0;fontSize=15;fontColor=#000000;exitX=0.613;exitY=-0.017;exitDx=0;exitDy=0;exitPerimeter=0;" edge="1" parent="1" source="Jjxi664DVSr25sezRC5C-109">
          <mxGeometry width="50" height="50" relative="1" as="geometry">
            <mxPoint x="501" y="1428" as="sourcePoint" />
            <mxPoint x="201" y="1418" as="targetPoint" />
          </mxGeometry>
        </mxCell>
        <mxCell id="Jjxi664DVSr25sezRC5C-112" value="name 列&lt;br&gt;占用的字节数" style="text;html=1;align=center;verticalAlign=middle;resizable=0;points=[];autosize=1;strokeColor=none;fillColor=none;fontSize=15;fontColor=#000000;labelBackgroundColor=none;" vertex="1" parent="1">
          <mxGeometry x="131" y="1368" width="110" height="50" as="geometry" />
        </mxCell>
        <mxCell id="Jjxi664DVSr25sezRC5C-113" value="&lt;span style=&quot;caret-color: rgb(184, 191, 198); font-family: &amp;quot;Helvetica Neue&amp;quot;, Helvetica, Arial, sans-serif; font-size: 16px; orphans: 4; text-align: start; text-size-adjust: auto;&quot;&gt;第一条记录的行格式&lt;/span&gt;" style="text;html=1;align=center;verticalAlign=middle;resizable=0;points=[];autosize=1;strokeColor=#36393d;fillColor=#ffff88;fontSize=15;labelBackgroundColor=none;" vertex="1" parent="1">
          <mxGeometry x="616" y="1598" width="170" height="30" as="geometry" />
        </mxCell>
        <mxCell id="Jjxi664DVSr25sezRC5C-114" value="" style="rounded=0;whiteSpace=wrap;html=1;labelBackgroundColor=none;fontSize=15;fontColor=#FFFFFF;" vertex="1" parent="1">
          <mxGeometry x="99" y="1696" width="1200" height="300" as="geometry" />
        </mxCell>
        <mxCell id="Jjxi664DVSr25sezRC5C-115" value="" style="rounded=0;whiteSpace=wrap;html=1;dashed=1;fontSize=16;strokeWidth=2;fillColor=#0050ef;fontColor=#ffffff;strokeColor=#001DBC;" vertex="1" parent="1">
          <mxGeometry x="159" y="1826" width="133.36" height="70" as="geometry" />
        </mxCell>
        <mxCell id="Jjxi664DVSr25sezRC5C-116" value="04" style="rounded=0;whiteSpace=wrap;html=1;dashed=1;fontSize=16;strokeWidth=2;fillColor=#6a00ff;fontColor=#ffffff;strokeColor=#3700CC;" vertex="1" parent="1">
          <mxGeometry x="292.3644859813084" y="1826" width="123.3644859813084" height="70" as="geometry" />
        </mxCell>
        <mxCell id="Jjxi664DVSr25sezRC5C-117" value="记录头信息&lt;br style=&quot;font-size: 16px;&quot;&gt;5 字节" style="rounded=0;whiteSpace=wrap;html=1;fontSize=16;fillColor=#fa6800;fontColor=#000000;strokeColor=#C73500;" vertex="1" parent="1">
          <mxGeometry x="415.7289719626168" y="1826" width="123.3644859813084" height="70" as="geometry" />
        </mxCell>
        <mxCell id="Jjxi664DVSr25sezRC5C-118" value="row_id&lt;br style=&quot;font-size: 16px;&quot;&gt;6 字节&amp;nbsp;" style="rounded=0;whiteSpace=wrap;html=1;dashed=1;fontSize=16;fillColor=#f5f5f5;fontColor=#333333;strokeColor=#666666;strokeWidth=2;" vertex="1" parent="1">
          <mxGeometry x="539.0934579439252" y="1826" width="123.3644859813084" height="70" as="geometry" />
        </mxCell>
        <mxCell id="Jjxi664DVSr25sezRC5C-119" value="trx_id" style="rounded=0;whiteSpace=wrap;html=1;fontSize=16;fillColor=#f5f5f5;fontColor=#333333;strokeColor=#666666;" vertex="1" parent="1">
          <mxGeometry x="662.4579439252336" y="1826" width="123.3644859813084" height="70" as="geometry" />
        </mxCell>
        <mxCell id="Jjxi664DVSr25sezRC5C-120" value="roll_ptr" style="rounded=0;whiteSpace=wrap;html=1;fontSize=16;fillColor=#f5f5f5;fontColor=#333333;strokeColor=#666666;" vertex="1" parent="1">
          <mxGeometry x="785.822429906542" y="1826" width="123.3644859813084" height="70" as="geometry" />
        </mxCell>
        <mxCell id="Jjxi664DVSr25sezRC5C-121" value="列1值" style="rounded=0;whiteSpace=wrap;html=1;fontSize=16;fillColor=#60a917;fontColor=#ffffff;strokeColor=#2D7600;" vertex="1" parent="1">
          <mxGeometry x="909.1869158878504" y="1826" width="123.3644859813084" height="70" as="geometry" />
        </mxCell>
        <mxCell id="Jjxi664DVSr25sezRC5C-122" value="列2值" style="rounded=0;whiteSpace=wrap;html=1;fontSize=16;fillColor=#60a917;fontColor=#ffffff;strokeColor=#2D7600;" vertex="1" parent="1">
          <mxGeometry x="1022.2710280373831" y="1826" width="123.3644859813084" height="70" as="geometry" />
        </mxCell>
        <mxCell id="Jjxi664DVSr25sezRC5C-123" value="列n值" style="rounded=0;whiteSpace=wrap;html=1;fontSize=16;fillColor=#60a917;fontColor=#ffffff;strokeColor=#2D7600;" vertex="1" parent="1">
          <mxGeometry x="1145.6355140186915" y="1826" width="123.3644859813084" height="70" as="geometry" />
        </mxCell>
        <mxCell id="Jjxi664DVSr25sezRC5C-124" value="" style="endArrow=none;html=1;rounded=0;fontSize=16;entryX=0;entryY=1;entryDx=0;entryDy=0;" edge="1" parent="1" target="Jjxi664DVSr25sezRC5C-115">
          <mxGeometry width="50" height="50" relative="1" as="geometry">
            <mxPoint x="159" y="1946" as="sourcePoint" />
            <mxPoint x="209" y="1926" as="targetPoint" />
          </mxGeometry>
        </mxCell>
        <mxCell id="Jjxi664DVSr25sezRC5C-125" value="" style="endArrow=none;html=1;rounded=0;fontSize=16;entryX=1;entryY=1;entryDx=0;entryDy=0;" edge="1" parent="1" target="Jjxi664DVSr25sezRC5C-117">
          <mxGeometry width="50" height="50" relative="1" as="geometry">
            <mxPoint x="539" y="1946" as="sourcePoint" />
            <mxPoint x="619" y="1936" as="targetPoint" />
          </mxGeometry>
        </mxCell>
        <mxCell id="Jjxi664DVSr25sezRC5C-126" value="记录的额外信息" style="text;html=1;align=center;verticalAlign=middle;resizable=0;points=[];autosize=1;strokeColor=none;fillColor=none;fontSize=16;" vertex="1" parent="1">
          <mxGeometry x="259" y="1911" width="140" height="30" as="geometry" />
        </mxCell>
        <mxCell id="Jjxi664DVSr25sezRC5C-127" value="" style="endArrow=none;html=1;rounded=0;fontSize=16;entryX=1;entryY=1;entryDx=0;entryDy=0;" edge="1" parent="1">
          <mxGeometry width="50" height="50" relative="1" as="geometry">
            <mxPoint x="1269" y="1951" as="sourcePoint" />
            <mxPoint x="1269.0934579439254" y="1901" as="targetPoint" />
          </mxGeometry>
        </mxCell>
        <mxCell id="Jjxi664DVSr25sezRC5C-128" value="记录的真实数据" style="text;html=1;align=center;verticalAlign=middle;resizable=0;points=[];autosize=1;strokeColor=none;fillColor=none;fontSize=16;" vertex="1" parent="1">
          <mxGeometry x="819" y="1911" width="140" height="30" as="geometry" />
        </mxCell>
        <mxCell id="Jjxi664DVSr25sezRC5C-129" value="" style="endArrow=classic;html=1;rounded=0;fontSize=16;exitX=1.011;exitY=0.6;exitDx=0;exitDy=0;exitPerimeter=0;" edge="1" parent="1" source="Jjxi664DVSr25sezRC5C-126">
          <mxGeometry width="50" height="50" relative="1" as="geometry">
            <mxPoint x="449" y="2046" as="sourcePoint" />
            <mxPoint x="539" y="1929" as="targetPoint" />
          </mxGeometry>
        </mxCell>
        <mxCell id="Jjxi664DVSr25sezRC5C-130" value="" style="endArrow=classic;html=1;rounded=0;fontSize=16;" edge="1" parent="1" source="Jjxi664DVSr25sezRC5C-126">
          <mxGeometry width="50" height="50" relative="1" as="geometry">
            <mxPoint x="259" y="2056" as="sourcePoint" />
            <mxPoint x="159" y="1926" as="targetPoint" />
          </mxGeometry>
        </mxCell>
        <mxCell id="Jjxi664DVSr25sezRC5C-131" value="" style="endArrow=classic;html=1;rounded=0;fontSize=16;" edge="1" parent="1" source="Jjxi664DVSr25sezRC5C-128">
          <mxGeometry width="50" height="50" relative="1" as="geometry">
            <mxPoint x="769" y="2046" as="sourcePoint" />
            <mxPoint x="539" y="1926" as="targetPoint" />
          </mxGeometry>
        </mxCell>
        <mxCell id="Jjxi664DVSr25sezRC5C-132" value="" style="endArrow=classic;html=1;rounded=0;fontSize=16;" edge="1" parent="1" source="Jjxi664DVSr25sezRC5C-128">
          <mxGeometry width="50" height="50" relative="1" as="geometry">
            <mxPoint x="1169" y="1976" as="sourcePoint" />
            <mxPoint x="1269" y="1926" as="targetPoint" />
          </mxGeometry>
        </mxCell>
        <mxCell id="Jjxi664DVSr25sezRC5C-133" value="变长字段长度列表" style="text;html=1;align=center;verticalAlign=middle;resizable=0;points=[];autosize=1;strokeColor=none;fillColor=none;fontSize=15;" vertex="1" parent="1">
          <mxGeometry x="159" y="1896" width="140" height="30" as="geometry" />
        </mxCell>
        <mxCell id="Jjxi664DVSr25sezRC5C-134" value="" style="endArrow=classic;html=1;rounded=0;fontSize=15;fontColor=#FFFFFF;exitX=0.538;exitY=0.05;exitDx=0;exitDy=0;exitPerimeter=0;" edge="1" parent="1" source="Jjxi664DVSr25sezRC5C-135">
          <mxGeometry width="50" height="50" relative="1" as="geometry">
            <mxPoint x="249" y="1666" as="sourcePoint" />
            <mxPoint x="259" y="1776" as="targetPoint" />
          </mxGeometry>
        </mxCell>
        <mxCell id="Jjxi664DVSr25sezRC5C-135" value="04" style="text;html=1;align=center;verticalAlign=middle;resizable=0;points=[];autosize=1;strokeColor=none;fillColor=none;fontSize=15;fontColor=#FFFFFF;labelBackgroundColor=none;" vertex="1" parent="1">
          <mxGeometry x="192" y="1846" width="35" height="30" as="geometry" />
        </mxCell>
        <mxCell id="Jjxi664DVSr25sezRC5C-136" value="02" style="text;html=1;align=center;verticalAlign=middle;resizable=0;points=[];autosize=1;strokeColor=none;fillColor=none;fontSize=15;fontColor=#FFFFFF;labelBackgroundColor=none;" vertex="1" parent="1">
          <mxGeometry x="232" y="1846" width="35" height="30" as="geometry" />
        </mxCell>
        <mxCell id="Jjxi664DVSr25sezRC5C-137" value="phone 列&lt;br&gt;占用的字节数" style="text;html=1;align=center;verticalAlign=middle;resizable=0;points=[];autosize=1;strokeColor=none;fillColor=none;fontSize=15;fontColor=#000000;labelBackgroundColor=none;" vertex="1" parent="1">
          <mxGeometry x="229" y="1726" width="110" height="50" as="geometry" />
        </mxCell>
        <mxCell id="Jjxi664DVSr25sezRC5C-138" value="" style="endArrow=classic;html=1;rounded=0;fontSize=15;fontColor=#000000;exitX=0.613;exitY=-0.017;exitDx=0;exitDy=0;exitPerimeter=0;" edge="1" parent="1" source="Jjxi664DVSr25sezRC5C-136">
          <mxGeometry width="50" height="50" relative="1" as="geometry">
            <mxPoint x="499" y="1786" as="sourcePoint" />
            <mxPoint x="199" y="1776" as="targetPoint" />
          </mxGeometry>
        </mxCell>
        <mxCell id="Jjxi664DVSr25sezRC5C-139" value="name 列&lt;br&gt;占用的字节数" style="text;html=1;align=center;verticalAlign=middle;resizable=0;points=[];autosize=1;strokeColor=none;fillColor=none;fontSize=15;fontColor=#000000;labelBackgroundColor=none;" vertex="1" parent="1">
          <mxGeometry x="129" y="1726" width="110" height="50" as="geometry" />
        </mxCell>
        <mxCell id="Jjxi664DVSr25sezRC5C-140" value="&lt;span style=&quot;caret-color: rgb(184, 191, 198); font-family: &amp;quot;Helvetica Neue&amp;quot;, Helvetica, Arial, sans-serif; font-size: 16px; orphans: 4; text-align: start; text-size-adjust: auto;&quot;&gt;第二条记录的行格式&lt;/span&gt;" style="text;html=1;align=center;verticalAlign=middle;resizable=0;points=[];autosize=1;strokeColor=#36393d;fillColor=#ffff88;fontSize=15;labelBackgroundColor=none;" vertex="1" parent="1">
          <mxGeometry x="618" y="1956" width="162" height="31" as="geometry" />
        </mxCell>
        <mxCell id="Jjxi664DVSr25sezRC5C-141" value="" style="rounded=0;whiteSpace=wrap;html=1;labelBackgroundColor=none;fontSize=15;fontColor=#FFFFFF;" vertex="1" parent="1">
          <mxGeometry x="96" y="2055" width="1200" height="300" as="geometry" />
        </mxCell>
        <mxCell id="Jjxi664DVSr25sezRC5C-142" value="" style="rounded=0;whiteSpace=wrap;html=1;dashed=1;fontSize=16;strokeWidth=2;fillColor=#0050ef;fontColor=#ffffff;strokeColor=#001DBC;" vertex="1" parent="1">
          <mxGeometry x="156" y="2185" width="133.36" height="70" as="geometry" />
        </mxCell>
        <mxCell id="Jjxi664DVSr25sezRC5C-143" value="06" style="rounded=0;whiteSpace=wrap;html=1;dashed=1;fontSize=16;strokeWidth=2;fillColor=#6a00ff;fontColor=#ffffff;strokeColor=#3700CC;" vertex="1" parent="1">
          <mxGeometry x="289.3644859813084" y="2185" width="123.3644859813084" height="70" as="geometry" />
        </mxCell>
        <mxCell id="Jjxi664DVSr25sezRC5C-144" value="记录头信息&lt;br style=&quot;font-size: 16px;&quot;&gt;5 字节" style="rounded=0;whiteSpace=wrap;html=1;fontSize=16;fillColor=#fa6800;fontColor=#000000;strokeColor=#C73500;" vertex="1" parent="1">
          <mxGeometry x="412.7289719626168" y="2185" width="123.3644859813084" height="70" as="geometry" />
        </mxCell>
        <mxCell id="Jjxi664DVSr25sezRC5C-145" value="row_id&lt;br style=&quot;font-size: 16px;&quot;&gt;6 字节&amp;nbsp;" style="rounded=0;whiteSpace=wrap;html=1;dashed=1;fontSize=16;fillColor=#f5f5f5;fontColor=#333333;strokeColor=#666666;strokeWidth=2;" vertex="1" parent="1">
          <mxGeometry x="536.0934579439252" y="2185" width="123.3644859813084" height="70" as="geometry" />
        </mxCell>
        <mxCell id="Jjxi664DVSr25sezRC5C-146" value="trx_id" style="rounded=0;whiteSpace=wrap;html=1;fontSize=16;fillColor=#f5f5f5;fontColor=#333333;strokeColor=#666666;" vertex="1" parent="1">
          <mxGeometry x="659.4579439252336" y="2185" width="123.3644859813084" height="70" as="geometry" />
        </mxCell>
        <mxCell id="Jjxi664DVSr25sezRC5C-147" value="roll_ptr" style="rounded=0;whiteSpace=wrap;html=1;fontSize=16;fillColor=#f5f5f5;fontColor=#333333;strokeColor=#666666;" vertex="1" parent="1">
          <mxGeometry x="782.822429906542" y="2185" width="123.3644859813084" height="70" as="geometry" />
        </mxCell>
        <mxCell id="Jjxi664DVSr25sezRC5C-148" value="列1值" style="rounded=0;whiteSpace=wrap;html=1;fontSize=16;fillColor=#60a917;fontColor=#ffffff;strokeColor=#2D7600;" vertex="1" parent="1">
          <mxGeometry x="906.1869158878504" y="2185" width="123.3644859813084" height="70" as="geometry" />
        </mxCell>
        <mxCell id="Jjxi664DVSr25sezRC5C-149" value="列2值" style="rounded=0;whiteSpace=wrap;html=1;fontSize=16;fillColor=#60a917;fontColor=#ffffff;strokeColor=#2D7600;" vertex="1" parent="1">
          <mxGeometry x="1019.2710280373831" y="2185" width="123.3644859813084" height="70" as="geometry" />
        </mxCell>
        <mxCell id="Jjxi664DVSr25sezRC5C-150" value="列n值" style="rounded=0;whiteSpace=wrap;html=1;fontSize=16;fillColor=#60a917;fontColor=#ffffff;strokeColor=#2D7600;" vertex="1" parent="1">
          <mxGeometry x="1142.6355140186915" y="2185" width="123.3644859813084" height="70" as="geometry" />
        </mxCell>
        <mxCell id="Jjxi664DVSr25sezRC5C-151" value="" style="endArrow=none;html=1;rounded=0;fontSize=16;entryX=0;entryY=1;entryDx=0;entryDy=0;" edge="1" parent="1" target="Jjxi664DVSr25sezRC5C-142">
          <mxGeometry width="50" height="50" relative="1" as="geometry">
            <mxPoint x="156" y="2305" as="sourcePoint" />
            <mxPoint x="206" y="2285" as="targetPoint" />
          </mxGeometry>
        </mxCell>
        <mxCell id="Jjxi664DVSr25sezRC5C-152" value="" style="endArrow=none;html=1;rounded=0;fontSize=16;entryX=1;entryY=1;entryDx=0;entryDy=0;" edge="1" parent="1" target="Jjxi664DVSr25sezRC5C-144">
          <mxGeometry width="50" height="50" relative="1" as="geometry">
            <mxPoint x="536" y="2305" as="sourcePoint" />
            <mxPoint x="616" y="2295" as="targetPoint" />
          </mxGeometry>
        </mxCell>
        <mxCell id="Jjxi664DVSr25sezRC5C-153" value="记录的额外信息" style="text;html=1;align=center;verticalAlign=middle;resizable=0;points=[];autosize=1;strokeColor=none;fillColor=none;fontSize=16;" vertex="1" parent="1">
          <mxGeometry x="256" y="2270" width="140" height="30" as="geometry" />
        </mxCell>
        <mxCell id="Jjxi664DVSr25sezRC5C-154" value="" style="endArrow=none;html=1;rounded=0;fontSize=16;entryX=1;entryY=1;entryDx=0;entryDy=0;" edge="1" parent="1">
          <mxGeometry width="50" height="50" relative="1" as="geometry">
            <mxPoint x="1266" y="2310" as="sourcePoint" />
            <mxPoint x="1266.0934579439254" y="2260" as="targetPoint" />
          </mxGeometry>
        </mxCell>
        <mxCell id="Jjxi664DVSr25sezRC5C-155" value="记录的真实数据" style="text;html=1;align=center;verticalAlign=middle;resizable=0;points=[];autosize=1;strokeColor=none;fillColor=none;fontSize=16;" vertex="1" parent="1">
          <mxGeometry x="816" y="2270" width="140" height="30" as="geometry" />
        </mxCell>
        <mxCell id="Jjxi664DVSr25sezRC5C-156" value="" style="endArrow=classic;html=1;rounded=0;fontSize=16;exitX=1.011;exitY=0.6;exitDx=0;exitDy=0;exitPerimeter=0;" edge="1" parent="1" source="Jjxi664DVSr25sezRC5C-153">
          <mxGeometry width="50" height="50" relative="1" as="geometry">
            <mxPoint x="446" y="2405" as="sourcePoint" />
            <mxPoint x="536" y="2288" as="targetPoint" />
          </mxGeometry>
        </mxCell>
        <mxCell id="Jjxi664DVSr25sezRC5C-157" value="" style="endArrow=classic;html=1;rounded=0;fontSize=16;" edge="1" parent="1" source="Jjxi664DVSr25sezRC5C-153">
          <mxGeometry width="50" height="50" relative="1" as="geometry">
            <mxPoint x="256" y="2415" as="sourcePoint" />
            <mxPoint x="156" y="2285" as="targetPoint" />
          </mxGeometry>
        </mxCell>
        <mxCell id="Jjxi664DVSr25sezRC5C-158" value="" style="endArrow=classic;html=1;rounded=0;fontSize=16;" edge="1" parent="1" source="Jjxi664DVSr25sezRC5C-155">
          <mxGeometry width="50" height="50" relative="1" as="geometry">
            <mxPoint x="766" y="2405" as="sourcePoint" />
            <mxPoint x="536" y="2285" as="targetPoint" />
          </mxGeometry>
        </mxCell>
        <mxCell id="Jjxi664DVSr25sezRC5C-159" value="" style="endArrow=classic;html=1;rounded=0;fontSize=16;" edge="1" parent="1" source="Jjxi664DVSr25sezRC5C-155">
          <mxGeometry width="50" height="50" relative="1" as="geometry">
            <mxPoint x="1166" y="2335" as="sourcePoint" />
            <mxPoint x="1266" y="2285" as="targetPoint" />
          </mxGeometry>
        </mxCell>
        <mxCell id="Jjxi664DVSr25sezRC5C-160" value="变长字段长度列表" style="text;html=1;align=center;verticalAlign=middle;resizable=0;points=[];autosize=1;strokeColor=none;fillColor=none;fontSize=15;" vertex="1" parent="1">
          <mxGeometry x="156" y="2255" width="140" height="30" as="geometry" />
        </mxCell>
        <mxCell id="Jjxi664DVSr25sezRC5C-161" value="03" style="text;html=1;align=center;verticalAlign=middle;resizable=0;points=[];autosize=1;strokeColor=none;fillColor=none;fontSize=15;fontColor=#FFFFFF;labelBackgroundColor=none;" vertex="1" parent="1">
          <mxGeometry x="229" y="2205" width="35" height="30" as="geometry" />
        </mxCell>
        <mxCell id="Jjxi664DVSr25sezRC5C-162" value="phone 列&lt;br&gt;占用的字节数" style="text;html=1;align=center;verticalAlign=middle;resizable=0;points=[];autosize=1;strokeColor=none;fillColor=none;fontSize=15;fontColor=#000000;labelBackgroundColor=none;" vertex="1" parent="1">
          <mxGeometry x="226" y="2085" width="110" height="50" as="geometry" />
        </mxCell>
        <mxCell id="Jjxi664DVSr25sezRC5C-163" value="" style="endArrow=classic;html=1;rounded=0;fontSize=15;fontColor=#000000;exitX=0.613;exitY=-0.017;exitDx=0;exitDy=0;exitPerimeter=0;" edge="1" parent="1" source="Jjxi664DVSr25sezRC5C-161">
          <mxGeometry width="50" height="50" relative="1" as="geometry">
            <mxPoint x="496" y="2145" as="sourcePoint" />
            <mxPoint x="196" y="2135" as="targetPoint" />
          </mxGeometry>
        </mxCell>
        <mxCell id="Jjxi664DVSr25sezRC5C-164" value="name 列&lt;br&gt;占用的字节数" style="text;html=1;align=center;verticalAlign=middle;resizable=0;points=[];autosize=1;strokeColor=none;fillColor=none;fontSize=15;fontColor=#000000;labelBackgroundColor=none;" vertex="1" parent="1">
          <mxGeometry x="126" y="2085" width="110" height="50" as="geometry" />
        </mxCell>
        <mxCell id="Jjxi664DVSr25sezRC5C-165" value="&lt;span style=&quot;caret-color: rgb(184, 191, 198); font-family: &amp;quot;Helvetica Neue&amp;quot;, Helvetica, Arial, sans-serif; font-size: 16px; orphans: 4; text-align: start; text-size-adjust: auto;&quot;&gt;第三条记录的行格式&lt;/span&gt;" style="text;html=1;align=center;verticalAlign=middle;resizable=0;points=[];autosize=1;strokeColor=#36393d;fillColor=#ffff88;fontSize=15;labelBackgroundColor=none;" vertex="1" parent="1">
          <mxGeometry x="615" y="2315" width="162" height="31" as="geometry" />
        </mxCell>
        <mxCell id="Jjxi664DVSr25sezRC5C-166" value="&lt;font color=&quot;#ff0000&quot;&gt;&lt;b&gt;1&lt;/b&gt;&lt;/font&gt;" style="rounded=0;whiteSpace=wrap;html=1;fontSize=16;fillColor=#d5e8d4;strokeColor=#82b366;" vertex="1" parent="1">
          <mxGeometry x="327.34037037037035" y="926.3333333333334" width="41.48148148148148" height="66.66666666666667" as="geometry" />
        </mxCell>
        <mxCell id="Jjxi664DVSr25sezRC5C-167" value="&lt;font color=&quot;#ff0000&quot;&gt;&lt;b&gt;1&lt;/b&gt;&lt;/font&gt;" style="rounded=0;whiteSpace=wrap;html=1;fontSize=16;fillColor=#dae8fc;strokeColor=#6c8ebf;" vertex="1" parent="1">
          <mxGeometry x="368.8218518518518" y="926.3333333333334" width="41.48148148148148" height="66.66666666666667" as="geometry" />
        </mxCell>
        <mxCell id="Jjxi664DVSr25sezRC5C-168" value="0" style="rounded=0;whiteSpace=wrap;html=1;fontSize=16;fillColor=#ffe6cc;strokeColor=#d79b00;" vertex="1" parent="1">
          <mxGeometry x="410.3033333333333" y="926.3333333333334" width="41.48148148148148" height="66.66666666666667" as="geometry" />
        </mxCell>
        <mxCell id="Jjxi664DVSr25sezRC5C-169" style="edgeStyle=none;rounded=0;orthogonalLoop=1;jettySize=auto;html=1;entryX=0.5;entryY=0;entryDx=0;entryDy=0;exitX=0.48;exitY=0.967;exitDx=0;exitDy=0;exitPerimeter=0;fontSize=16;" edge="1" parent="1" source="Jjxi664DVSr25sezRC5C-170" target="Jjxi664DVSr25sezRC5C-168">
          <mxGeometry relative="1" as="geometry" />
        </mxCell>
        <mxCell id="Jjxi664DVSr25sezRC5C-170" value="name" style="text;html=1;align=center;verticalAlign=middle;resizable=0;points=[];autosize=1;strokeColor=#d79b00;fillColor=#ffe6cc;fontSize=16;" vertex="1" parent="1">
          <mxGeometry x="282.9" y="826.3333333333334" width="60" height="30" as="geometry" />
        </mxCell>
        <mxCell id="Jjxi664DVSr25sezRC5C-171" style="edgeStyle=none;rounded=0;orthogonalLoop=1;jettySize=auto;html=1;entryX=0.5;entryY=0;entryDx=0;entryDy=0;fontSize=16;" edge="1" parent="1" source="Jjxi664DVSr25sezRC5C-172" target="Jjxi664DVSr25sezRC5C-167">
          <mxGeometry relative="1" as="geometry" />
        </mxCell>
        <mxCell id="Jjxi664DVSr25sezRC5C-172" value="phone" style="text;html=1;align=center;verticalAlign=middle;resizable=0;points=[];autosize=1;strokeColor=#6c8ebf;fillColor=#dae8fc;fontSize=16;" vertex="1" parent="1">
          <mxGeometry x="354.5662962962963" y="826.3333333333334" width="70" height="30" as="geometry" />
        </mxCell>
        <mxCell id="Jjxi664DVSr25sezRC5C-173" style="rounded=0;orthogonalLoop=1;jettySize=auto;html=1;entryX=0.5;entryY=0;entryDx=0;entryDy=0;exitX=0.45;exitY=0.967;exitDx=0;exitDy=0;exitPerimeter=0;fontSize=16;" edge="1" parent="1" source="Jjxi664DVSr25sezRC5C-174" target="Jjxi664DVSr25sezRC5C-166">
          <mxGeometry relative="1" as="geometry" />
        </mxCell>
        <mxCell id="Jjxi664DVSr25sezRC5C-174" value="age" style="text;html=1;align=center;verticalAlign=middle;resizable=0;points=[];autosize=1;strokeColor=#82b366;fillColor=#d5e8d4;fontSize=16;" vertex="1" parent="1">
          <mxGeometry x="432.89814814814815" y="826.3333333333334" width="50" height="30" as="geometry" />
        </mxCell>
        <mxCell id="Jjxi664DVSr25sezRC5C-175" value="逆向存放" style="text;html=1;align=center;verticalAlign=middle;resizable=0;points=[];autosize=1;strokeColor=none;fillColor=none;fontSize=16;" vertex="1" parent="1">
          <mxGeometry x="421.96999999999997" y="878" width="90" height="30" as="geometry" />
        </mxCell>
        <mxCell id="Jjxi664DVSr25sezRC5C-176" value="NULL 值列表" style="text;html=1;align=center;verticalAlign=middle;resizable=0;points=[];autosize=1;strokeColor=none;fillColor=none;fontSize=16;" vertex="1" parent="1">
          <mxGeometry x="329.57" y="1000" width="120" height="30" as="geometry" />
        </mxCell>
        <mxCell id="Jjxi664DVSr25sezRC5C-177" value="0" style="rounded=0;whiteSpace=wrap;html=1;fontSize=16;fillColor=#f5f5f5;strokeColor=#666666;fontColor=#333333;" vertex="1" parent="1">
          <mxGeometry x="285.8603703703704" y="926.3333333333334" width="41.48148148148148" height="66.66666666666667" as="geometry" />
        </mxCell>
        <mxCell id="Jjxi664DVSr25sezRC5C-178" value="0" style="rounded=0;whiteSpace=wrap;html=1;fontSize=16;fillColor=#f5f5f5;strokeColor=#666666;fontColor=#333333;" vertex="1" parent="1">
          <mxGeometry x="244.38037037037037" y="926.3333333333334" width="41.48148148148148" height="66.66666666666667" as="geometry" />
        </mxCell>
        <mxCell id="Jjxi664DVSr25sezRC5C-179" value="0" style="rounded=0;whiteSpace=wrap;html=1;fontSize=16;fillColor=#f5f5f5;strokeColor=#666666;fontColor=#333333;" vertex="1" parent="1">
          <mxGeometry x="202.9003703703704" y="926.3333333333334" width="41.48148148148148" height="66.66666666666667" as="geometry" />
        </mxCell>
        <mxCell id="Jjxi664DVSr25sezRC5C-180" value="0" style="rounded=0;whiteSpace=wrap;html=1;fontSize=16;fillColor=#f5f5f5;strokeColor=#666666;fontColor=#333333;" vertex="1" parent="1">
          <mxGeometry x="161.4203703703704" y="926.3333333333334" width="41.48148148148148" height="66.66666666666667" as="geometry" />
        </mxCell>
        <mxCell id="Jjxi664DVSr25sezRC5C-181" value="0" style="rounded=0;whiteSpace=wrap;html=1;fontSize=16;fillColor=#f5f5f5;strokeColor=#666666;fontColor=#333333;" vertex="1" parent="1">
          <mxGeometry x="119.94037037037042" y="926.3333333333334" width="41.48148148148148" height="66.66666666666667" as="geometry" />
        </mxCell>
        <mxCell id="Jjxi664DVSr25sezRC5C-202" value="" style="group" vertex="1" connectable="0" parent="1">
          <mxGeometry x="575" y="498.83" width="263" height="111.17" as="geometry" />
        </mxCell>
        <mxCell id="Jjxi664DVSr25sezRC5C-183" value="&lt;font color=&quot;#ff0000&quot;&gt;&lt;b&gt;1&lt;/b&gt;&lt;/font&gt;" style="rounded=0;whiteSpace=wrap;html=1;fontSize=16;fillColor=#d5e8d4;strokeColor=#82b366;" vertex="1" parent="Jjxi664DVSr25sezRC5C-202">
          <mxGeometry x="150.2824938315445" y="66.70200000000001" width="30.05757225103216" height="44.46800000000002" as="geometry" />
        </mxCell>
        <mxCell id="Jjxi664DVSr25sezRC5C-184" value="0" style="rounded=0;whiteSpace=wrap;html=1;fontSize=16;fillColor=#dae8fc;strokeColor=#6c8ebf;" vertex="1" parent="Jjxi664DVSr25sezRC5C-202">
          <mxGeometry x="180.34006608257664" y="66.70200000000001" width="30.05757225103216" height="44.46800000000002" as="geometry" />
        </mxCell>
        <mxCell id="Jjxi664DVSr25sezRC5C-185" value="0" style="rounded=0;whiteSpace=wrap;html=1;fontSize=16;fillColor=#ffe6cc;strokeColor=#d79b00;" vertex="1" parent="Jjxi664DVSr25sezRC5C-202">
          <mxGeometry x="210.39763833360874" y="66.70200000000001" width="30.05757225103216" height="44.46800000000002" as="geometry" />
        </mxCell>
        <mxCell id="Jjxi664DVSr25sezRC5C-186" style="edgeStyle=none;rounded=0;orthogonalLoop=1;jettySize=auto;html=1;entryX=0.5;entryY=0;entryDx=0;entryDy=0;exitX=0.48;exitY=0.967;exitDx=0;exitDy=0;exitPerimeter=0;fontSize=16;" edge="1" parent="Jjxi664DVSr25sezRC5C-202" source="Jjxi664DVSr25sezRC5C-187" target="Jjxi664DVSr25sezRC5C-185">
          <mxGeometry relative="1" as="geometry" />
        </mxCell>
        <mxCell id="Jjxi664DVSr25sezRC5C-187" value="name" style="text;html=1;align=center;verticalAlign=middle;resizable=0;points=[];autosize=1;strokeColor=#d79b00;fillColor=#ffe6cc;fontSize=16;" vertex="1" parent="Jjxi664DVSr25sezRC5C-202">
          <mxGeometry x="118.080904216999" width="60" height="30" as="geometry" />
        </mxCell>
        <mxCell id="Jjxi664DVSr25sezRC5C-188" style="edgeStyle=none;rounded=0;orthogonalLoop=1;jettySize=auto;html=1;entryX=0.5;entryY=0;entryDx=0;entryDy=0;fontSize=16;" edge="1" parent="Jjxi664DVSr25sezRC5C-202" source="Jjxi664DVSr25sezRC5C-189" target="Jjxi664DVSr25sezRC5C-184">
          <mxGeometry relative="1" as="geometry" />
        </mxCell>
        <mxCell id="Jjxi664DVSr25sezRC5C-189" value="phone" style="text;html=1;align=center;verticalAlign=middle;resizable=0;points=[];autosize=1;strokeColor=#6c8ebf;fillColor=#dae8fc;fontSize=16;" vertex="1" parent="Jjxi664DVSr25sezRC5C-202">
          <mxGeometry x="170.01045933309243" width="70" height="30" as="geometry" />
        </mxCell>
        <mxCell id="Jjxi664DVSr25sezRC5C-190" style="rounded=0;orthogonalLoop=1;jettySize=auto;html=1;entryX=0.5;entryY=0;entryDx=0;entryDy=0;exitX=0.45;exitY=0.967;exitDx=0;exitDy=0;exitPerimeter=0;fontSize=16;" edge="1" parent="Jjxi664DVSr25sezRC5C-202" source="Jjxi664DVSr25sezRC5C-191" target="Jjxi664DVSr25sezRC5C-183">
          <mxGeometry relative="1" as="geometry" />
        </mxCell>
        <mxCell id="Jjxi664DVSr25sezRC5C-191" value="age" style="text;html=1;align=center;verticalAlign=middle;resizable=0;points=[];autosize=1;strokeColor=#82b366;fillColor=#d5e8d4;fontSize=16;" vertex="1" parent="Jjxi664DVSr25sezRC5C-202">
          <mxGeometry x="226.76989059027375" width="50" height="30" as="geometry" />
        </mxCell>
        <mxCell id="Jjxi664DVSr25sezRC5C-196" value="0" style="rounded=0;whiteSpace=wrap;html=1;fontSize=16;fillColor=#f5f5f5;strokeColor=#666666;fontColor=#333333;" vertex="1" parent="Jjxi664DVSr25sezRC5C-202">
          <mxGeometry x="120.22599506523561" y="66.70200000000001" width="30.05757225103216" height="44.46800000000002" as="geometry" />
        </mxCell>
        <mxCell id="Jjxi664DVSr25sezRC5C-197" value="0" style="rounded=0;whiteSpace=wrap;html=1;fontSize=16;fillColor=#f5f5f5;strokeColor=#666666;fontColor=#333333;" vertex="1" parent="Jjxi664DVSr25sezRC5C-202">
          <mxGeometry x="90.16949629892667" y="66.70200000000001" width="30.05757225103216" height="44.46800000000002" as="geometry" />
        </mxCell>
        <mxCell id="Jjxi664DVSr25sezRC5C-198" value="0" style="rounded=0;whiteSpace=wrap;html=1;fontSize=16;fillColor=#f5f5f5;strokeColor=#666666;fontColor=#333333;" vertex="1" parent="Jjxi664DVSr25sezRC5C-202">
          <mxGeometry x="60.11299753261784" y="66.70200000000001" width="30.05757225103216" height="44.46800000000002" as="geometry" />
        </mxCell>
        <mxCell id="Jjxi664DVSr25sezRC5C-199" value="0" style="rounded=0;whiteSpace=wrap;html=1;fontSize=16;fillColor=#f5f5f5;strokeColor=#666666;fontColor=#333333;" vertex="1" parent="Jjxi664DVSr25sezRC5C-202">
          <mxGeometry x="30.05649876630892" y="66.70200000000001" width="30.05757225103216" height="44.46800000000002" as="geometry" />
        </mxCell>
        <mxCell id="Jjxi664DVSr25sezRC5C-200" value="0" style="rounded=0;whiteSpace=wrap;html=1;fontSize=16;fillColor=#f5f5f5;strokeColor=#666666;fontColor=#333333;" vertex="1" parent="Jjxi664DVSr25sezRC5C-202">
          <mxGeometry y="66.70200000000001" width="30.05757225103216" height="44.46800000000002" as="geometry" />
        </mxCell>
        <mxCell id="Jjxi664DVSr25sezRC5C-203" value="" style="group" vertex="1" connectable="0" parent="1">
          <mxGeometry x="585" y="508.83" width="263" height="111.17" as="geometry" />
        </mxCell>
        <mxCell id="Jjxi664DVSr25sezRC5C-204" value="&lt;font color=&quot;#ff0000&quot;&gt;&lt;b&gt;1&lt;/b&gt;&lt;/font&gt;" style="rounded=0;whiteSpace=wrap;html=1;fontSize=16;fillColor=#d5e8d4;strokeColor=#82b366;" vertex="1" parent="Jjxi664DVSr25sezRC5C-203">
          <mxGeometry x="150.2824938315445" y="66.70200000000001" width="30.05757225103216" height="44.46800000000002" as="geometry" />
        </mxCell>
        <mxCell id="Jjxi664DVSr25sezRC5C-205" value="0" style="rounded=0;whiteSpace=wrap;html=1;fontSize=16;fillColor=#dae8fc;strokeColor=#6c8ebf;" vertex="1" parent="Jjxi664DVSr25sezRC5C-203">
          <mxGeometry x="180.34006608257664" y="66.70200000000001" width="30.05757225103216" height="44.46800000000002" as="geometry" />
        </mxCell>
        <mxCell id="Jjxi664DVSr25sezRC5C-206" value="0" style="rounded=0;whiteSpace=wrap;html=1;fontSize=16;fillColor=#ffe6cc;strokeColor=#d79b00;" vertex="1" parent="Jjxi664DVSr25sezRC5C-203">
          <mxGeometry x="210.39763833360874" y="66.70200000000001" width="30.05757225103216" height="44.46800000000002" as="geometry" />
        </mxCell>
        <mxCell id="Jjxi664DVSr25sezRC5C-207" style="edgeStyle=none;rounded=0;orthogonalLoop=1;jettySize=auto;html=1;entryX=0.5;entryY=0;entryDx=0;entryDy=0;exitX=0.48;exitY=0.967;exitDx=0;exitDy=0;exitPerimeter=0;fontSize=16;" edge="1" parent="Jjxi664DVSr25sezRC5C-203" source="Jjxi664DVSr25sezRC5C-208" target="Jjxi664DVSr25sezRC5C-206">
          <mxGeometry relative="1" as="geometry" />
        </mxCell>
        <mxCell id="Jjxi664DVSr25sezRC5C-208" value="name" style="text;html=1;align=center;verticalAlign=middle;resizable=0;points=[];autosize=1;strokeColor=#d79b00;fillColor=#ffe6cc;fontSize=16;" vertex="1" parent="Jjxi664DVSr25sezRC5C-203">
          <mxGeometry x="118.080904216999" width="60" height="30" as="geometry" />
        </mxCell>
        <mxCell id="Jjxi664DVSr25sezRC5C-209" style="edgeStyle=none;rounded=0;orthogonalLoop=1;jettySize=auto;html=1;entryX=0.5;entryY=0;entryDx=0;entryDy=0;fontSize=16;" edge="1" parent="Jjxi664DVSr25sezRC5C-203" source="Jjxi664DVSr25sezRC5C-210" target="Jjxi664DVSr25sezRC5C-205">
          <mxGeometry relative="1" as="geometry" />
        </mxCell>
        <mxCell id="Jjxi664DVSr25sezRC5C-210" value="phone" style="text;html=1;align=center;verticalAlign=middle;resizable=0;points=[];autosize=1;strokeColor=#6c8ebf;fillColor=#dae8fc;fontSize=16;" vertex="1" parent="Jjxi664DVSr25sezRC5C-203">
          <mxGeometry x="170.01045933309243" width="70" height="30" as="geometry" />
        </mxCell>
        <mxCell id="Jjxi664DVSr25sezRC5C-211" style="rounded=0;orthogonalLoop=1;jettySize=auto;html=1;entryX=0.5;entryY=0;entryDx=0;entryDy=0;exitX=0.45;exitY=0.967;exitDx=0;exitDy=0;exitPerimeter=0;fontSize=16;" edge="1" parent="Jjxi664DVSr25sezRC5C-203" source="Jjxi664DVSr25sezRC5C-212" target="Jjxi664DVSr25sezRC5C-204">
          <mxGeometry relative="1" as="geometry" />
        </mxCell>
        <mxCell id="Jjxi664DVSr25sezRC5C-212" value="age" style="text;html=1;align=center;verticalAlign=middle;resizable=0;points=[];autosize=1;strokeColor=#82b366;fillColor=#d5e8d4;fontSize=16;" vertex="1" parent="Jjxi664DVSr25sezRC5C-203">
          <mxGeometry x="226.76989059027375" width="50" height="30" as="geometry" />
        </mxCell>
        <mxCell id="Jjxi664DVSr25sezRC5C-213" value="0" style="rounded=0;whiteSpace=wrap;html=1;fontSize=16;fillColor=#f5f5f5;strokeColor=#666666;fontColor=#333333;" vertex="1" parent="Jjxi664DVSr25sezRC5C-203">
          <mxGeometry x="120.22599506523561" y="66.70200000000001" width="30.05757225103216" height="44.46800000000002" as="geometry" />
        </mxCell>
        <mxCell id="Jjxi664DVSr25sezRC5C-214" value="0" style="rounded=0;whiteSpace=wrap;html=1;fontSize=16;fillColor=#f5f5f5;strokeColor=#666666;fontColor=#333333;" vertex="1" parent="Jjxi664DVSr25sezRC5C-203">
          <mxGeometry x="90.16949629892667" y="66.70200000000001" width="30.05757225103216" height="44.46800000000002" as="geometry" />
        </mxCell>
        <mxCell id="Jjxi664DVSr25sezRC5C-215" value="0" style="rounded=0;whiteSpace=wrap;html=1;fontSize=16;fillColor=#f5f5f5;strokeColor=#666666;fontColor=#333333;" vertex="1" parent="Jjxi664DVSr25sezRC5C-203">
          <mxGeometry x="60.11299753261784" y="66.70200000000001" width="30.05757225103216" height="44.46800000000002" as="geometry" />
        </mxCell>
        <mxCell id="Jjxi664DVSr25sezRC5C-216" value="0" style="rounded=0;whiteSpace=wrap;html=1;fontSize=16;fillColor=#f5f5f5;strokeColor=#666666;fontColor=#333333;" vertex="1" parent="Jjxi664DVSr25sezRC5C-203">
          <mxGeometry x="30.05649876630892" y="66.70200000000001" width="30.05757225103216" height="44.46800000000002" as="geometry" />
        </mxCell>
        <mxCell id="Jjxi664DVSr25sezRC5C-217" value="0" style="rounded=0;whiteSpace=wrap;html=1;fontSize=16;fillColor=#f5f5f5;strokeColor=#666666;fontColor=#333333;" vertex="1" parent="Jjxi664DVSr25sezRC5C-203">
          <mxGeometry y="66.70200000000001" width="30.05757225103216" height="44.46800000000002" as="geometry" />
        </mxCell>
        <mxCell id="Jjxi664DVSr25sezRC5C-218" value="" style="shape=image;verticalLabelPosition=bottom;labelBackgroundColor=default;verticalAlign=top;aspect=fixed;imageAspect=0;image=data:image/png,iVBORw0KGgoAAAANSUhEUgAAAiYAAACuCAYAAAACssbaAAAK4WlDQ1BJQ0MgUHJvZmlsZQAASImVlwdUU1kagO97L70QIAEBKaE3QToBpIQeivQqKiEJJJQQE4KCXRkcwVFBRATLCI6KKDg6AjKKiAUrig37gAwKyjpYsKGyD1jCzOzZ3bN/zs39zv/++5d37n3nvwBQQ7gSSSasDECWOEcaGeDNjE9IZOKfATIgocMKIFyeTMIODw8BqEzNf5X3dwE0Pt+yGvf178//q6jyBTIeAFASyil8GS8L5TZ0DPMk0hwAkCOo3nBxjmScb6PMkKIJojwwzmmT/GWcUyYYozxhEx3pg7IRAAQKlytNA4Big+qZubw01A8lHGUbMV8kRnkVyh48IZePMhoXzMrKyh7nIZTNUHsJAFQGyqyUP/lM+4v/FIV/LjdNwZN1TQjBVySTZHLz/s9X878lK1M+FcMEHRShNDASnTXQ93cvIztYweKUuWFTLOJP2E+wUB4YM8U8mU/iFPO5vsGKtZlzQ6Y4VeTPUfjJ4URPsUDmFzXF0uxIRaxUqQ97irnS6bjyjBiFXijgKPznC6PjpjhXFDt3imUZUcHTNj4KvVQeqchfIA7wno7rr6g9S/anekUcxdocYXSgonbudP4CMXvapyxekRtf4Os3bROjsJfkeCtiSTLDFfaCzACFXpYbpVibg27O6bXhineYzg0Kn2LgC/xACPpjghhgB5zRYQMiQGiOYEnOeDE+2ZI8qShNmMNkoydOwOSIedazmHY2dnYAjJ/fyS3xNnLiXELqrdO67L3oVn6PnpmSaV1KGQBNhWjoB9M6o10A0AoAaGznyaW5kzrM+B8W/S7QAANoAl1gCMzQL4QdcAJuwAvNOAiEgWiQABYAHhCCLCAFi8EysBoUgmKwGWwFlWA3qAEHwGFwFDSBk+AMuACugBvgDngIekA/eAmGwXswCkEQHqJCdEgT0oOMIUvIDmJBHpAfFAJFQglQMpQGiSE5tAxaCxVDpVAltAeqhX6GTkBnoEtQF3Qf6oUGoTfQZxiBKTAD1oFN4NkwC2bDwXA0PB9OgxfB+XABvBGugKvhQ3AjfAa+At+Be+CX8AgCEDKijugjVggL8UHCkEQkFZEiK5AipBypRuqRFqQDuYX0IEPIJwwOQ8cwMVYYN0wgJgbDwyzCrMBswFRiDmAaMecwtzC9mGHMNywVq421xLpiOdh4bBp2MbYQW47dhz2OPY+9g+3HvsfhcOo4U5wzLhCXgEvHLcVtwO3ENeDacF24PtwIHo/XxFvi3fFheC4+B1+I344/hD+Nv4nvx38kkAl6BDuCPyGRICasIZQTDhJaCTcJzwmjRGWiMdGVGEbkE/OIm4h7iS3E68R+4ihJhWRKcidFk9JJq0kVpHrSedIj0lsymWxAdiFHkEXkVeQK8hHyRXIv+RNFlWJB8aEkUeSUjZT9lDbKfcpbKpVqQvWiJlJzqBuptdSz1CfUj0p0JWsljhJfaaVSlVKj0k2lVzQizZjGpi2g5dPKacdo12lDykRlE2UfZa7yCuUq5RPK3cojKnQVW5UwlSyVDSoHVS6pDKjiVU1U/VT5qgWqNapnVfvoCN2Q7kPn0dfS99LP0/sZOIYpg8NIZxQzDjM6GcNqqmoOarFqS9Sq1E6p9agj6ibqHPVM9U3qR9Xvqn+eoTODPUMwY/2M+hk3Z3zQmKnhpSHQKNJo0Lij8VmTqemnmaFZotmk+VgLo2WhFaG1WGuX1nmtoZmMmW4zeTOLZh6d+UAb1rbQjtReql2jfVV7REdXJ0BHorNd56zOkK66rpduum6ZbqvuoB5dz0NPpFemd1rvBVONyWZmMiuY55jD+tr6gfpy/T36nfqjBqYGMQZrDBoMHhuSDFmGqYZlhu2Gw0Z6RqFGy4zqjB4YE41ZxkLjbcYdxh9MTE3iTNaZNJkMmGqYckzzTetMH5lRzTzNFplVm902x5mzzDPMd5rfsIAtHC2EFlUW1y1hSydLkeVOy65Z2Fkus8Szqmd1W1Gs2Fa5VnVWvdbq1iHWa6ybrF/NNpqdOLtkdsfsbzaONpk2e20e2qraBtmusW2xfWNnYcezq7K7bU+197dfad9s/9rB0kHgsMvhniPdMdRxnWO741cnZyepU73ToLORc7LzDuduFoMVztrAuuiCdfF2Wely0uWTq5NrjutR1z/crNwy3A66DcwxnSOYs3dOn7uBO9d9j3uPB9Mj2eNHjx5PfU+uZ7XnUy9DL77XPq/nbHN2OvsQ+5W3jbfU+7j3Bx9Xn+U+bb6Ib4BvkW+nn6pfjF+l3xN/A/80/zr/4QDHgKUBbYHYwODAksBujg6Hx6nlDAc5By0POhdMCY4Krgx+GmIRIg1pCYVDg0K3hD6aazxXPLcpDIRxwraEPQ43DV8U/msELiI8oiriWaRt5LLIjih61MKog1Hvo72jN0U/jDGLkce0x9Jik2JrYz/E+caVxvXEz45fHn8lQStBlNCciE+MTdyXODLPb97Wef1JjkmFSXfnm85fMv/SAq0FmQtOLaQt5C48loxNjks+mPyFG8at5o6kcFJ2pAzzfHjbeC/5Xvwy/qDAXVAqeJ7qnlqaOpDmnrYlbVDoKSwXDol8RJWi1+mB6bvTP2SEZezPGMuMy2zIImQlZ50Qq4ozxOeydbOXZHdJLCWFkp5Frou2LhqWBkv3ySDZfFlzDgNtlK7KzeTfyXtzPXKrcj8ujl18bInKEvGSq3kWeevznuf75/+0FLOUt7R9mf6y1ct6l7OX71kBrUhZ0b7ScGXByv5VAasOrCatzlh9bY3NmtI179bGrW0p0ClYVdD3XcB3dYVKhdLC7nVu63Z/j/le9H3nevv129d/K+IXXS62KS4v/rKBt+HyD7Y/VPwwtjF1Y+cmp027NuM2izffLfEsOVCqUppf2rcldEtjGbOsqOzd1oVbL5U7lO/eRtom39ZTEVLRvN1o++btXyqFlXeqvKsadmjvWL/jw07+zpu7vHbV79bZXbz784+iH+/tCdjTWG1SXV6Dq8mtebY3dm/HT6yfavdp7Sve93W/eH/PgcgD52qda2sPah/cVAfXyesGDyUdunHY93BzvVX9ngb1huIj4Ij8yIufk3++ezT4aPsx1rH6X4x/2XGcfryoEWrMaxxuEjb1NCc0d50IOtHe4tZy/FfrX/ef1D9ZdUrt1KZWUmtB69jp/NMjbZK2oTNpZ/raF7Y/PBt/9va5iHOd54PPX7zgf+FsB7vj9EX3iycvuV46cZl1uemK05XGq45Xj19zvHa806mz8brz9eYbLjdauuZ0td70vHnmlu+tC7c5t6/cmXun627M3XvdSd099/j3Bu5n3n/9IPfB6MNVj7CPih4rPy5/ov2k+jfz3xp6nHpO9fr2Xn0a9fRhH6/v5e+y37/0FzyjPit/rve8dsBu4OSg/+CNF/Ne9L+UvBwdKvyHyj92vDJ79csfXn9cHY4f7n8tfT32ZsNbzbf73zm8ax8JH3nyPuv96Ieij5ofD3xifer4HPf5+ejiL/gvFV/Nv7Z8C/72aCxrbEzClXInWgEEHXBqKgBv9qP9cQIA9BsAkOZN9tcTAk3eCSYI/Cee7MEnxAmAmm4AopcCEHINgO2VaEuL+qeh94JwGqp3A7C9vWL8S2Sp9naTviieaGvyeGzsrRkA+BIAvpaMjY3WjI19rUGTfQhAW95kXz8uyofQm0yrk41NyGO31FXgbzLZ8/+pxr/PYDwDB/D3+Z/jgxyj303lvgAAAGxlWElmTU0AKgAAAAgABAEaAAUAAAABAAAAPgEbAAUAAAABAAAARgEoAAMAAAABAAIAAIdpAAQAAAABAAAATgAAAAAAAACQAAAAAQAAAJAAAAABAAKgAgAEAAAAAQAAAiagAwAEAAAAAQAAAK4AAAAAappZjQAAAAlwSFlzAAAWJQAAFiUBSVIk8AAAOQtJREFUeAHtnQeYFMXWhg8ZBSSKICIIKEFRESOiwEUFESNmFCNmzOg1e8WMil6MKIbfLMl4zQEjQQVFEZSgiCg5I6Lov29hjb2zM7MzMDM70/Od59ntnurq6qq3qrtPnTpVXe6vIrEckkmTp7jctG3TKodypayIgAiIgAiIgAhkg0D5bFxE1xABERABERABERCBZAhIMUmGkuKIgAiIgAiIgAhkhYAUk6xg1kVEQAREQAREQASSISDFJBlKiiMCIiACIiACIpAVAlJMsoJZFxEBERABERABEUiGgBSTZCgpTsYILFiwwPiT5DcB1WN+15/PverRkwj3NtfruWK48at0uU5gzZo1uZ5F5S8JAqrHJCDlQRTVYx5UUhqymOv1LItJGipZSYiACIiACIiACKSHgBST9HBUKiIgAiIgAiIgAmkgIMUkDRCVhAiIgAiIgAiIQHoISDFJD0elIgIiIAIiIAIikAYCUkzSAFFJiIAIiIAIiIAIpIdAqBWTn3/+2W688Ub73//+lxKtl19+2R5//HHjfIkIiEDZEnj99dfd/Thr1qyyzYiuLgIikBUCoZ4ufN9999lzzz1nTz31lHXo0MFq1aqVFNQHHnjAvvvuO9tyyy2tYcOGSZ2jSCIgApkh8Mgjj9jEiROtbt267p7MzFWUqgiIQK4QCLXFZNttt7Vy5cq5h9kmm2ySK8yVDxEQAREQAREQgTgEQm0xOeqoo6xr165Wu3ZtK18+1DpYnOpVsAiIgAiIgAjkF4HQv63r1atnFSpUSFgra9euTXhcB3OTQCr1lkpcX9o///zT75bYpppeorRKJF5gAamyBE+q5/z111/GX6qS6nUKtZ5TZbs+nNbnnFTrW/Fzg0CoLSYffvih3XzzzdamTRu79dZbixFfuHChPfvsszZ69GibNGmSbbrpprbPPvtYv379isXTj7In8Pbbb9ugQYOsXbt2duKJJ9rgwYPt008/tSVLlrhhuqOPPtqOP/54N2wXzO2UKVNcXLZz5syxBg0auLZw8sknW/v27YNRLXgN0rv77rtt/PjxLs6uu+5qV1xxhTVq1Mief/55e/jhh23GjBnG8OCOO+5ol1xyiTVt2rRYevz47bffbMSIEfbBBx/YuHHjrHr16rbHHnu4dkZbKzQJMuY+o07ff/99W7p0qe20007WqVMnw8oJp3iCz9gLL7zg7ll8xmgTZ555prVq1arEKfDnHh87dmykLnfZZRfbbbfd3HWqVKlS7Bzaxbx582zgwIHGs+ONN96wb775xmrUqGE77LCD/fvf/1Y9/03sjz/+sAcffNDeeecdmzZtmlP6ttlmG8f23HPPtUqVKhVjy4+33nrLMf3oo49s+fLl1rJlSzvnnHOscuXKdsMNN7jft99+e7HzdA8Vw1EwP8oVabqpdyMyiGfS5Cku9bZtSj5oUr0ss3EuvPBC9/J45plnIqfznYDevXu7hxuBWFTAgEbOzbJy5UqbPXu24QTLw1KSOQIoDMjmm28e9yK83FEMmjdvbqtWrXKzpXjw/f7775FzTjvtNFfXPoCZHBdffHEkDi8hHnIID8K77rrLunTp4qM7BcJfY8WKFTZ37lwLntOkSRPr2bOn3XPPPe6cqlWr2urVq93+ZpttZsOHD3fKbSTBop3zzjvPyAdSsWJF42Huhdlihx12mP+Z99tU6pGOAoyZZRO894Cw9957u/sO3zAvKIo4v3bs2NEpDIQH679OnTr25JNP2lZbbeVPcfcyyg/KEOKtpt4CwhAvCm5wiLdz5872yy+/2F577eWUSY6RD38OCsprr73mnHAjFyraCVM9J1OP8KBO6NAh1AXPTs9p9913d0pLUDlBoUex88I96L/X0q1bN3eftG3b1oYNG+ajuG2Y2BYrWBn/SKaeyzKLoR/KiQX3P//5j7upuDnoHdGb/fjjj+2qq66yb7/91iklsc5TWNkSmD59ulMWRo0aZV9++aV7GfEyQR599FFbtmyZ20fJpDeO4sIL6L333rMvvvjCRo4caTw0eSDS24slXKN+/fqud8c5Q4YMsWrVqtkPP/zglJL99tvPvRwnTJjgXqAoLygx9LCDcscdd7iH7cYbb+ysL5999pnRU+zbt6+Lds011xhpFKJMnjzZKQC33HKLs2Z88skndu211zolAQvKf//735hYYIxljHt1zJgxrpeNpXPRokVuOnHwJBQ/lBLu8dtuu81dB8sJ+4RxjDixBAvX+eef765BnfFcwIpDL58ZQkEpxHp+5ZVX3POTts/Mx88//9yoQ8+TusGi6QUF5uqrr3Y/999/f7d8A/cWHQ7uR6+8+/h+W4hsfdkLfVtwigkvqxdffNHVOz3kAw880L14MAtjRTnrrLMKvU3kdPlRFFq3bu16sgzHoFj63hfDKwg9N6wl9IgxDTOEg9BTx+yPfPXVV5Eemwv4+x+9ZB62W2yxhQuhB3/AAQe4fdoID0v8luhJY01D8UFIzwuKET14hJcvwzY8xJnuetFFF1n37t2d0vTSSy/5Uwpue/nll9vBBx/sXvg1a9Z0PXDM+kh0r9nD4SXGPYuFBGWxV69edvrpp7vDQf703nnpIbwQsXShWPDHvn9JEieW38JBBx1kZ5xxhhuq888FLAQIw4JeCrWeGTbj3mIZBqyOWEYY1sQCuPPOOzs8fhiUHygedAa22247N6TerFkzd/8wa5J0WJYhWgqVbTSHQv1dcIoJ46EoJ7zMDj/88BL1jnIiyU0CKAvRDzHM6/h+IPgHIAyboAzsu+++xpCLF4ZyfFwelPSAo2Xrrbd2ikcw3A8RYGom7aD4Y8G0UJAYDtxoo40iikvwHPKFfP3118Hggtnn3jviiCNKlNe//BcsWGD8RQuKSbSgpCJYtLxg9fr111/dPX7ooYf64MiWMPJAHOJGC2seRYu/jm9jHC/UesaXhDaMYuEFBQ+LJUo7snjxYn8oMuSDgh8c3iEC9y9DOdFSqGyjORTq7+JP2QKggBkZ4YXix52DxaY3Rs8W51hJbhHwVozoXHlnSXpZXrCaYLXALE+d89AM+qT4eNFb6j9avL8Dika0RCsqHPe9d158WGniCfnigR70c4gXN0zhie49+DM0g9Mpvh5BiVZKOebrPmj58PzjXYf7nmNTp051dYUyGpTGjRsHf7p9XqBIsI356xRiPcPu6aefdk7FDGWiiAfZOFh//6MukWjOfx92fn1+328Lma1nUMjbglNM/MuJHlM8SXQs3jkKzzwBryCUdiUsI6eeempkJgbDKDg183Jh/70in5NMCi8qL8wAiRYe4qwszIySQlRMEt1f/ph3jIxml8xvf65PK9Y5vufu4wbjJNvOCrWema3Uv3//iDM5HQasKAzJvfvuu0GUbh/ncDoG8+fPL3GMgKAVykcoVLa+/IW+LTjFxE8r9FPcoh9CzBbQN3Ly+7bAEY8xbiwRzL7BTwSFBGGKcawhgXSW2FtJWNjvscceS2fSoUgr3r3HcBizYhB/n65Pgf0QA9eJJfTs/RCOjxsrXmlhhVrP+Hmh/ONjhc9P0JI1YMCAiH+V54dvCYo4DrGxhtZwSo6WQmUbzaFQfxecjwk9Z15YaOSsYRItqX7wL/p8/S57AsyAQVh7grFwr5QQxoyOTAsvVXrkjLMz+yBaUI6YCebN1dHHw/6bey+W1YqeOIIjpfcFWh8W3ONYS7gOs3yiheE9jhGHuOsrhVjPTJH3vlF9+vQpppTAkU5BtPg1g5gVFz0DB8U91nO4ENlGcyvk3wWnmOAnsOeee7o6Z169H/8kAM2dhX4k+U2gRYsWrgC8+GfOnBkpDNMWr7/++sjvTO3wwsNKgzDThCnoXrAIMOODhzrr5BSqcO/5FxwM6E37uvnXv/61QVhQCv36Q5deemmxe5z7nTCkc+fOJZwxU7lwIdYzzuReaaQT5317WKOHadV+ZlyQI7OnqFMsVUzDZtIBixLiDHvTTTdFHGaD5xQi22D5C32/4IZyqHCmmHJzsIgapkWmk+IsyRgoXxPmJos3HlroDSYfyo/TJNM8sUz06NHDDQuwMBszN3B6xLky08JKw8cdd5x7KTL9lDaGJeD77793Uydx8mTqcCEKzqWs9soLC/8DXljezwALBmu8bKgwTZshWZRTf4+Tph8qYniBVaE3VAqxnlligSn1TLdmNVem/+IMyz3GQoTBGVLwZbicafu0d9aioU68tZB1gfhjen+0FCLbaAaF+jvUFhM/28FvfSXz0rr//vvdSwuHLR5WKCL4HrDcuJ+ZEX2eP1/b7BLwfkDx6sOH+y31x0q/TO8ljF4yD0vWXGB8PFZ6scJ8KX26fuvD2fowv/XHWGeDax155JHO3E0bw3JCD5NFpshf06ZNffSC2uIsyX1G/TCjA6WEmXCHHHKI3XvvvW6adRCIZ+u3wWPx6o2F7eDPEvdwhj9/7BOGtYo4QfHp+zRjHfNx/LFCrGdWY2VVXZ6jKJgsFMhwKRYv1uhBohliqaZuGcJ86KGHnO8XFhcW04s1s400CpEt5ZYUtZ+i3so/cyxzgEg6l6RPpji8KHhpMf/eTwlM5jzFSQ+BTC+NTC+OFxKrufqppenJeWqp8PJlfJ6l9+M9iFNLMbdiJ1OP9LBxluR7QX4FVaxaTM3ncwOZFG8BZaXYTEq+13My9RjkR3yeoQzvRCsjPh6OxijlKCcMn0ULFuyhQ4e6tW1wno0n+c42XrnKIjzVes52HgtyKCcImR4Q5n1JOAnQK8bUXNaCYiQpSYBeN3+ZlkwrJD7/hVbPib5x5ZkwPf6CCy5wP/ExOeaYY9zUYoY1+TTA//3f/7ljfAspkRQa20Qswn6s4BWTsFewyicCIiACZUlg++23d0M8fADxzjvvdH8oo1jLvDCMt6FOzz4tbfOfgBST/K9DlUAE8oIAQ6U4vuLwKiksAigkfIGbP4Z2UErwBWOpfz4fgRVFIgKeQMH7mHgQ2pYNgVwf6ywbKvl3VdVj/tVZrBxnqx4Z3sG5VVI2BLJVz+tbulDPyllfKDpPBERABEQgcwSklGSObRhSlmIShlpUGURABERABEQgJATkYxKSiszXYrDCoyT/Cage878OKYHqMRz1WFopcr2epZiUVoM6nlECrB8jyX8Cqsf8r0NKoHoMRz2WVopcr2cN5ZRWgzouAiIgAiIgAiKQNQJSTLKGWhcSAREQAREQAREojYAUk9II6bgIiIAIiIAIiEDWCEgxyRpqXUgEREAEREAERKA0Atlxfv35R7PPPzL7cYbZyuVW9J3zuPlqsGDhumP16saNowMiIAIiIAIiIAJpJlBlI7MGW5i13dms5fZ8JjrNF0guucyu/Pruy2b3Xm/25djkcqNYIiACIiACIiACZU9g8yZmfc4z631W0TzyKlnNT2YUk/m/mF3c22zMO1ktjC4mAiIgAiIgAiKQRgKNmpoNfMKs/Z5pTDRxUulXTKZOMuvbw2zu7MRX1lEREAEREAEREIHcJ1CpaCHMG4aaHXxcVvKaXsUES0mvXaSUZKXqdBEREAEREAERyBKB8hXMhr5m1mGfjF+w3E8//RTfEzXFy9e98EirMqHIyVUiAiIgAiIgAiIQKgJ/Vq9p8x7/wP6sldnJKRXTRa3KJ28mVEr+2KyR/bZbV1u7aUMzNK84smr1andk46pV48RQsAiIgAiIgAiIQHoJ/GXlly2xyl98YpWnTIyZdPkVS63643fasn4DYh5PV2D6hnKO2D327JtyRUulXHC92Sn9zSqWrgdNmjzFla1tm1bpKqPSEQEREAEREAERSJbA6FfN+hf5kyxdVPIM/E3e/8msTua+c5aeBdbmzIqtlFAklJLTL0tKKSlJQCEiIAIiIAIiIAJZJdBpf7Mhr5hViGFM+H2N2dsvZDQ76VFMJnwcO5PMg8ZSIhEBERABERABEcgfAjsWjYIcFGcWDgumZlDSo5jMmh47i50PkKUkNhmFioAIiIAIiEBuE+h6cOz8sYp7BiU9ismqFbGzyNK2EhEQAREQAREQgfwjEO8dzqdlMijpUUz+/DN2FnF8lYiACIiACIiACOQfgQpxZtAm+N5dOgopzSEdFJWGCIiACIiACIhAWghIMUkLRiUiAiIgAiIgAiKQDgJSTNJBUWmIgAiIgAiIgAikhYAUk7RgVCIiIAIiIAIiIALpICDFJB0UlYYIiIAIiIAIiEBaCEgxSQtGJSICIpBJAkuWLLG1a9dm8hJKWwREIEcIxFhvNkdypmzkHYG/iqaQPfzww/bee++5vN9///1WrVq1vCuHMpx5At9//73deuuttnz5cttvv/3s+OOPL3HRGTNmGG3o888/t9mzZ9vGG29s22+/vR155JHWo0ePEvF9wPjx42348OH21Vdf2Q8//GBNmjSxbbfd1nr16mW77babj6atCGSVQDJtngyNGzfORo0a5drvzJkzbcstt7TtttvODjroIOvYsWNW81xWF5NiUlbkQ3bdefPm2SWXXGJjxoyJlGzNmjVSTCI0tOMJjBgxwm644QZbtWqVC9p66639ocgWpaJv3762ePFiF1anTh23T/vi76effnLHIyf8vfPUU0/ZjTfeaH/88YcLqVC0DsP06dPd3yuvvGKXX3659e7dO/o0/RaBjBJIps2TgUcffdQGDhwYsQ5WqlTJUND5e+mll+zcc8+1M888M6N5zYXENZSTC7WQ53l455137OCDD3YvDFlI8rwyM5j9ZcuW2fnnn29XXHGFU0ritRUsb6effrpTRHbddVcbPXq0ffzxx6599ezZ0+Xw9ttvN3qgQfn222/tuuuuc0rJMcccY2+//bZ9/fXXbotVhqEgFCKv7ATP1b4IZIJAsm2ea0+dOtVuvvlm105p52+99ZZNmjTJtd/DDz/cuC/uuusuZ0HMRF5zKU0pJrlUG3mYl2+++cbOOuss97Dfe++97YknnshKKbhJJflF4LLLLrPXXnvNqlev7nqF8YZjUCYWLlzo4g0ZMsQ222wzV9CaNWu64Z8GDRq43x988EExAC+++KL73bVrV7vmmmusUaNG7jdbHui1atWyP4tWqX7//feLnacfIpApAsm2ea6PIoIw7HjbbbfZFlus+6QL7ff666+3XXbZxR338dyPkP6TYhLSis1WsRiuqVy5snED8hKpW7duRi6Naf6+++6zI444wtq1a+f+8DWg5/z7779n5JpKNL0EaCv4iDz//PN24IEHxk18ypQpTqno0qWLVa1atVi88uXLu/F2Ar/77rtixxo2bGgnnHCCnXbaacXC+VGuXLmIorJ06dISxxUgApkgkGyb59rz5893Wdhmm21iZqVly5Yu3MeLGSkkgfIxCUlFllUx0OafffZZa926dcaygAke0zxmTYRxV3q+X375pfsj/MEHH3ThGcuEEt5gAieddJJzPsXvI5FgtuYvnuBfgmy11VbFoiTyHeEcFB6kffv2xc7TDxHIFIFk2zzX7969uz3zzDNu2BLlGQuhl5UrV5q3EBIv7CLFJOw1nOHy1atXz/jLpOC0iPJRpUoVu/POO51n+q+//upMnzgz4gz56aef2h577JHJbCjtDSTQoUOHDUzB7I033jCGD1FOO3fuHDc92sdvv/1mPOAnTpzoTOMouMcdd5wzlcc9UQdEII0EUmnzzBgjPv5UKOYnnniim5GDUv3444+7GWYo4wyZh12kmIS9hkNQvlatWtngwYNt8803j7xUeDEddthhNnLkSKeUMEVUikkIKjtBEXB2vfrqq12MPn36lLCYBE/t379/ZMyecIYbr732Wjv66KOD0bQvAjlDgOFGllu46aab7LHHHrMBAwYUyxuWEpxjefaFXaSYhL2GQ1A+xlyjx10ZylmxYkXEWqOZFiGo6ARFWLRokfMdYaG1nXbayc4777wEsc31NFFoaRdz5841xvqZRsz5Z5xxRsJzdVAEyoIAFj0U6ldffdVdHmW6cePGbmr86tWrneM4vnaDBg0KvXIixaQsWqCumTIBptI9/fTThmWEFw1jrpqZkzLGvDyBumZNk1mzZlnz5s2dEzQP7UTCmjpemEbMTIZ7773XDQXWqFFDa5l4ONrmDAEsJf/73//cQoJMe99///0Nfyw6YUx9Z9iadozVkLhhFs3KCXPthqRs+BUwAwfHMBbLYtonM3OYtSEJNwEsHUxHZwoxs24eeuihYk6ByZQeaxtpnHLKKS76k08+mcxpiiMCWSPAzEJWK0aY6s46Jt5JnJlo++67b0QZYVo8ynqYRRaTMNduSMrGNGQcGTt16uQW52KJZi+Mw+pF42mEa4tp+4ILLrCxY8da/fr17dGiVTFRTmIJD3bWSEFYH8U/1INxGQJCfvzxx2Cw9kWgzAlMmzbNGK5B4vnK+XDuCxzAd9555zLPd6YyIMUkU2SVbloIcLPSW0ZweAwqJYR98sknbCQhJHDllVc6EzbL0aOU8M2beEKvEsdAFmbjmzosshYtvh1lcmp79DX1WwSSIUDbZtYhHbAJEyZYt27dSpxGOILS3aJFixLHwxSgoZww1WYIy8ICW34FT8ZfGW9FcAK76qqr3DckQljsgi/SLbfc4j5kBgiUkmbNmiVkwsPaL1fPKpl8+C8ofDZh6NChLkhDgEEy2s8FAijTfmoxs8c+/PDDYtliOQQWsUSw/DGcHWaRxSTMtRuSsrFKKKu+8iEsnL94SeEMy0fg6GnwBVlJeAhQx4888kikQHyHKZYwfRynQC/4kOAcPXnyZDv22GOdQsuy3kwzxmEa4eHPWiYSEcg1AszIoa3yReFTTz3VzTik/c6ZM8f4SCpCJw0n2LCLLCZhr+Esl4+5+F6C+z5sfbZMDe3Xr5/rJbBgFiZNzJ70jP0qiOm61vrkT+esHwGGXxC/9alELxnP7Kt4f/4ctvihMHOLVYL5ng4LU+GfglLCtEse9qwQzKwciQiUBQHf1v02mAc6XMOGDbNevXo5X6oFCxa4xQFRSvheFB00OmeFMBRZruiG3/Cvod1xhdkDNwYZr9vv9x+zc9YtiFTyYOyQSZPXLRvdtk2r2BEUWtAE6D0wnEPPQcpIQTeFUgvP2icoJyglYTd9lwpDEfKOAGvwzJ492y0smalvkJUKZeIYs6NirKjdtuiDgsPHlXr6+kZIz1BOzdqxrz9zauxwhYrAehLAfC8RgWQI4DTLn0QE8pFA7dq1jb8ylRnrDAUl8rBJZvOVnqGc5nE+4PbuS2aLF5YokwJEQAREQAREQARynMDIR2NnMN47P3bslEPTo5i071j0ydcYKzGuXG52ZV+zonnXEhEQAREQAREQgTwh8MTdZuNHx87s7v+KHZ6m0PQoJjWKPs/cNbbnvL01yuyUojnZ336VpiwrGREQAREQAREQgYwQWLTA7IbzzQb0i518nfpme3WPfSxNoelxfiUz078x69nW7M8E1pHGzc0abMEKMXGzv+LvpXarV6sWN44OiIAIiIAIiIAIpJEA82CWLDKbVrSg5do/4id8VZEl5biz4x9Pw5H0KSZk5qYLi1ZDGpSGbCkJERABERABERCBnCLQup3ZsLFFrhuVMpqt9ComRatxumGbMe9kNNNKXAREQAREQAREIIsE6m5mNmK8WcPGGb9oenxMfDYrFs0+vud5sy4H+hBtRUAEREAEREAE8pkAbhiPv5sVpQRM6VVMSLF6DbN7i5STi242q7YJIRIREAEREAEREIF8I1CuSEU45IR1i6lleIpwEE16h3KCKbOPd+8Tg81efc4s3kIt0efotwiIgAiIgAiIQNkRYNjmX0UjH8efa9ayaFJLliWzikmwMHj7/jjDbNWKopk7674QGzzs92f8MMvtNmuypQ/SVgREQAREQAREIJME+M5ZlarrZs5mwY8kUVHSsyR9oiv4Y7WKlobmrxRZWfPvJXD1rZxSSOmwCIiACIiACISPQPp9TMLHSCUSAREQAREQARHIEgEpJlkCrcuIgAiIgAiIgAiUTkCKSemMFEMEREAEREAERCBLBKSYZAm0LiMCIiACIiACIlA6ASkmpTNSDBEQAREQAREQgSwRkGKSJdC6jAiIgAiIgAiIQOkEpJiUzkgxREAEREAEREAEskRAikmWQOsyIiACIiACIiACpRPI3gJrpedFMfKYwB9FX5ZeuXKl1axZM+2l+OWXX+zNN9+0WrVq2YEHJv+ByNdff93mzZtnnTp1si231ErCaa+YLCa4ZMkSq1GjhlWoUCGLV9WlcoEAdT9lyhSrWrWq7bjjjrmQpazk4a+//rJPP/3U1q5da9tvv71tvPHGWbluLlxEikku1EIe5+HRRx+1d955x7788ktbvXq1NWnSxHbZZRe7+OKLnSKRjqJNmzbNbrjhBmvWrFlKiskjjzxiEydOtLp160oxSUdFpDGN77//3m699VZbvny57bfffnb88ceXSH3GjBl2//332+eff26zZ892D2Ye0EceeaT16NGjRHwfMH78eBs+fLh99dVX9sMPP7g2ue2221qvXr1st91289ESbmnLF1xwga1YUfQJjSI5//zzrX379gnP0cHMEJgwYYItWLDAtt5668gF+D169Gj3e4cddrAWLVpEjkXvvPfee7Zw4UIXh7heOJ90ttpqK9tpp518cIktbfWzzz6z8uXL26GHHho5HszD/vvvn5Ti8MEHH7jOEs/JnXfeOZJWrJ1yRUvE0+Gj7aOk7LHHHrGihTJMikkoqzXzhfqz6HtHV199tXsBcLUqVapY9erV3YuAlwEvk4ceesg233zzzGdGV8grAiNGjHCK5qpVq1y+gy8cXxCUir59+9rixYtdUJ06ddz+mDFjjL+ffvrJHffx/fapp56yG2+80T3QCcPCMn36dPf3yiuv2OWXX269e/f20eNu77jjDnv33aLPvP8tvNgk2Scwa9YspzxUqlTJ2rRpE8kAzx/+EDpF9evXt002if01e17uxMXyEBQfzjaRcF7wej5uMCw6bR8neuuvmWx8FPE5c+Y45QTrL+UsBJGPSSHUcgbK+PTTTzulhAfGwIEDncmRnurDDz/sFBR6uzzcJSLgCSxbtsxZHq644gpDKalWrZo/VGxL7/D00093isiuu+7qesYff/yxU0h69uzp4t5+++1GTzYo3377rV133XVOKTnmmGPs7bfftq+//tptscrwMsDy5pWd4LnBfXroTzzxhFWsWDFuHoPxtZ85AiioSOPGja1y5coxL0S9jhs3LqKoxIyUp4HcI5ttVvSl3yLxLPK0KCllW4pJSrgU2RPAJImcddZZbngFBQXTY4cOHax///7u2EcffeRMkO5HBv4l2+sIXpqXHn+S7BO47LLL7LXXXnOKK8psvOEYlAksFFjghgwZEnkw47/E8E+DBg1c5n0b9CV58cUX3W7Xrl3tmmuusUaNGrnfbO+66y43tEgv9/333/enlNj+/vvvhuJEvFNPPdUNA5WIpICsEFi6dKnzW+NipfmIoWxOnjw5K/nK9kV82bknGGIsBJFiUgi1nIEyYl5kmGavvfYqkbp3UONhMX/+/BLHNySAhxW9Xhxa27Zt6/wN7rnnHmfuTZQuL6OjjjrKOc+hPF1yySXONybROTqWXgJr1qxxTnzPP/98Ql8hHB1RJrp06eIcHoO5YJx/u+22c0Hfffdd8JA1bNjQTjjhBDvttNOKhfMDpdkrKrSheHLfffcZ1j78mc4+++x40RSeBQI8YxA6PfXq1Yt7RW9Jod3g9xE2oV17+fnnn/1uqLfyMQl19WaucL53GusKjP8j9HjTOSb666+/2kknneR6Rryg+GN8mT/8AZ588knn6xKdJ3wLMOsjPMRQmMg/f3feead17949+hT9zgAB6g7n09Jm1hx++OHGXzzx7QunxaAk8h3hHF5cSDwnVhQS/KJQYlB+eSFKyo4As/EQZuNRJ/GENsVQnx/SYdiOYbiwCO2QGWk4isMkut2HpZzBcshiEqSh/Q0mgAl88ODBLh1M6ukUegvffPONM7XzIBo7dqzha4DjLeOvOOPGEpQSvPGfe+45++KLL+yll14ynzeGF6J73rHSUNiGE8BSVZpSUtpV3njjDdcGeFh37tw5bnSUWKaZ4oj9wgsv2NFHH+1eXMcdd5wxQyeW0H6w6hC3Xbt2saIoLIsEWH4AwfE5kfDS9rNtOIeZeGGT2rVruyJ5JmErX3R5pJhEE9HvDSLAjAiUB6wlTBlOt5xxxhluaim9KBzDDjjggIhCgmWEF0u0MF0YZQkPd3pezALBxwFzPS+wV199NfoU/c5BAji7euWzT58+CXuO+Dntvvvu1q1bN7v00kuN4Ztrr73WrrzyypglGzlypHPgxsJ30UUXxYyjwOwS+O2339wF4zlJB3PTvHnziO/RzJkz3UyW4PF83+d5ingm+V6e0vIvxaQ0QjqeNIFHi9Y0YTYDQyy33HKLbbrppkmfm2xEZltEC2sLYDVhKh4zM6IF60j0kBKLFR100EEualid5qI55PPvRYsWOd8RrCCsOXHeeeclLA4Og61atYo4zqKwojSzLkq0kCaKKsJ0Yv8SiI6n39kjQH1hfUW8D0lpV2f9JB+XhcnC5CjqyyXFpLRWoOMiECCAvwbKCEKv1g+VBKJs8C7mzGgFg0RRhOgxIVhroqVly5bRQe73Ntts47axzol5ggLLhADma9Y0YU0L6hkHVf+gjpchnJtxsmURLdrmueee6150+BThixQUprXjd9SxY0f5GwXBlOE+s6O8JOvrw8qwftEyXuAoJ2ERzwA/mvWZjZhvHMLjIZRv5EOUX1ZWpKfJNFxmMjBGnwnxN2estP2xWEM5/lj0ef7lFuuc6Lj6XTYEqBumpDOFmNkJOKem+tkDFFD+eFk98MADTjHxjrJYy4YNG+YKh8Pt1KlTixXULwKHUkRcFONEM0SKnawf600g6LyayouYmVdNmzY1hv3wScOhOZ54h9rSLCsM9yI+frz0MhnuF4EjDxvqp5XJfKYrbSkm6SJZoOnQK2G5bm6cU045xfr165cxEqx8iK9ArBcTq3sirVu3LnH9eM6tftgHk78k9wjwQmJZeJycUQgYKgxOnQzmmB42a6QgrI8S6+Htlx3/8ccfI6fSNvy6NrTjeHLbbbe5Q0xFvvDCC+NFU3iaCNBp4CVM3aTaccBxmWUKvCMsFtVYggWWtUH44zrxFA8/BRm/trISzwCrUCGIFJNCqOUMlZHpl2eeeaYby2W2g19YLUOXc8niqBptkfnwww/dN014sMQatsGczwsu+BEsxq/feustl2ZwqetM5l1pp0YAR1VmVDErA6WE74vEE14+N998s3vJUM+xhhKxuiBB5RXHaJyi4wltnJcCK4/yItMnFuKRSm849zLKCVYub7VK9gpYW1gxGEtuoqEPfOD4DhedKuo52C78tebOnevaFL8z4TPnr1Pa1ltt8KUrBJFiUgi1nIEyMg2TlTGZW3/YYYfFne2Q7kvjwMgLyn/QCquHV4gIi+XBjxmeacEDBgxw39PAdDto0CD3PR9eaCzkJcktAvgrjRo1ymUKpYQZVIkECwnL1T/22GN2/fXXOyXCW0g4jw9NDh061CURrG/8SviLJwcffLAb3qGNsT6GJHsENtpoI6eY4P+TqjDchiU0kf8YigZKDIoJyw2ggOI0jUUWawtKCcsLeCfceNY68kYevVUjOq8oypQlKCgaWGpiCUoZSnDQguMZRKcT6/wwhEkxCUMtlkEZcCb0Jk6mWvqXSHRWWKgKxSUdQu8WUyYLdfmHil8JkZ4sa5rEEnrEr7/+urOQNC0af+Zrnd67HbO8d5iLda7Csk8ASxZfhvaCchBLqHO/cB7HGUrke034ghx77LFupdctttjC+RvwkkFYSwXrniT3CfCNGGZM+ZdyqjnGEsqCZPHOx/rACtJ82gClgk6OH94NXgsFgWdELMd7H4/hxnjCM4cZQ0FhqAllOZ4wHOk7WShGfrXiRHmIl1Y+hscefMvHkijPWSXgbxR/UcZoY/354xuy9WPEjPHS68Uywo2NUsIXRfnkONNA6WUExZ938skn27///W93o+OLglLCQ4v1KrD6SMqGgK8fv/W5SLZt0d6CwkObj0sypZzv6bDaKy8MlBKGYqjrBx980K2iGTwv0b7Pm98miqtj6SXgh82wcEa3iWB9BPeDOSCcIR3vbxQrHsOEnTt3dkpH0OGWdIjPM4X1cFAuoiVWetFx+B2MF9yPFdeHBePxrPNWG8/ExwvrtlzRzV387i7jkk6avG7Z6LZt5JBYxlWR05dfsWKFU04wvfoHT2kZpqnzssK0WtpqkqWlpeO5T4C1T6hvlJKydFzMfVK5mUPuV6Z6Y83A/8N/IylTueV6fAEbnxb8W2gzyT5bMpUn0sUK+H3RLCNWuC2Uz2doKCeTLUppZ4wAi2CluhAWJllM+5LCIIDyKQU0f+ua+xVn9kmTJrlPC2DlDFoS0l0yrod/SaxZf+m+VrLpMdsM5RoppNmDGspJtoUongiIgAiIQFYJsP4MHRCsGMygKTTBeRflBAU70ay0sHGRYhK2GlV5REAERCAkBLCQ7Ljjjm4Yw39tOCRFK7UYDC3hH4UTLGuzYNEpFJGPSaHUtMopAiIgAiIgAnlAQBaTPKgkZVEEREAEREAECoWAFJNCqWmVUwREQAREQATygIAUkzyoJGVRBERABERABAqFgBSTQqlplVMEREAEREAE8oCAFJM8qCRlUQREQAREQAQKhUDFeB8eKmsAuZqvsuai64uACIiACIhAmAnIYhLm2lXZREAEREAERCDPCEgxybMKU3ZFQAREQAREIMwEpJiEuXZVNhEQAREQARHIMwJSTPKswpRdERABERABEQgzASkmYa5dlU0EREAEREAE8oyAFJM8qzBlVwREQAREQATCTECKSZhrV2UTAREQAREQgTwjIMUkzypM2RUBERABERCBMBOQYhLm2lXZREAEREAERCDPCEgxybMKU3ZFQAREQAREIMwEKoa5cCqbCIhA7hL45ptvbOXKlbbVVltZ3bp1czejac7ZL7/8YrNnz7ZatWpZixYt0px6+JJbunSpfffdd1alShVr27Zt+AoYp0R//fWXTZw40dauXWvbbrutbbTRRnFihi9Yikn46jRrJfrtt99s6NCh9vnnn9vkyZPddVu3bm3t2rWzvn37ugdJ1jKjC+UVgfnz59u3335rFSpUcA9dn/lPPvnEOLbxxhtbp06drFKlSv5QsS1xiFuuXDnr1q2bVa5c2R3/6KOPbOHChdakSRPbYYcdip0T/DFr1iz30Of6BxxwQOTQokWL7MMPP3Tpdu3a1eUjcjDOjs/zlltuaTvuuGOcWP8EU7affvrJ/dWvX9822WSTfw5qrwSBL7/80qiXZs2aRY75eiJgu+22K3YsEunvHerTn09cL7neVmjbf/zxh82ZM8dQUnbZZRef9dBvNZQT+irOTAHnzZtnJ554ot133302duxY1/NdsWKFjRs3zh544AHr06ePEUciAtEE/vzzT5s0aZILxmIQ7AnyIOYhjCXFx4k+n9/0IolHWmy9+HC2icSfx/WC4s/nOH/JiM9zdFrxzkURQXFCeOlK4hPAsoRSgYLaqlWrSERfT9T9119/bcuXL48ci97x9RPdJnwa0eHR55dlW8FSgoKCcrJgwYLorIX2txST0FZtZgt200032VdffWX0+LxygoIyaNAgq1atmrOgPPTQQ5nNhFLPSwJYC/yLxL+gYxXkxx9/dA/kWMfyPaxp06auCFh3pMDHr02G+5DNN988rvUMxeGzzz5LWpGMf7XcO4J1jWcs4lnkXi7TnyMpJulnGvoUly1bZqNHj3blvOeee6xjx45WtWpV1/PdZ5997JxzznHH3n///YyxKK2XE33hVOMHe+HRaen3hhH4+eefXQL4lQStJbFS/eKLL2z16tWxDuV1GP4l1atXd2XA50RSkgDPmVWrVrkDW2yxRckIgRD8UKZOnRoICc+uLzuWI4bPC0HkY1IItZzmMi5ZssSOOuooNzYeNK/6y/gbiYdFOgXT/quvvuqGjqZNm2aNGzd2/gknnHCCtWnTpsSlUo2/Zs0aGz58uI0ZM8bGjx/vhgjwmdljjz3s1FNPtfLlpceXgJxiAAqitxA0aNAg7tkVK1Z04+vUyYQJE1wdxI2cpwc222wzY/gTxWT77bfP01JkLtteYaMtJHKOxr+IdoLPEkzr1KmTuUyVQcqUyQtMElkZfbx830oxyfcaLIP84+R36aWXxr3yu+++6461b98+bpxUD+CdjnLgewyMOf/www/u7+233zaGlvbdd99IsqnGx0JyySWXGGkhOEUS9umnn7o/fGfuuusuN0wVuYh2UiZAr89br7AaxJOGDRu6sXWcVFFkZs6c6WbvxIufj+G+/L/++qthHZATbPFanDt3rguAE34W8YTnDPcn7YohnS5duhjKTFiEZx3WNZRY7oVCUEzUBQxL6y3DcmBB4YWDleGqq66ykSNHuqmQF110UVpyha8Bw0MoJR06dLBhw4a5B9BTTz1le++9twu/7rrrXK+JC6Yan3NuvfVWp5TwQBswYICbmcFwFenyYMB/5rnnniOqZAMIeNM8SdSsWTNhSkwNZYwdwcGRB3OYxCsmlAnlRFKcgG8rQU7FY6z7xUsbJ1GEcxI5Ta87I//+ewaeSf6VILUcSzFJjZdiRxFgXHevvfZyUztPPvlke/75553Z/fHHH09bD/eNN94whoUYurn99tuddz49KF5cWEpwjOOG9T4tqcbHeY4hHARL0CGHHOJ6KDwMDj30UOvXr5+bjsowkmTDCHiLF2tSoPAlEpREb3XzveFkZ8okSjdXjuEk7sVz8b+1tYh11CuniZiwFo53EsXK5v2YEp2TT8d8WymUdiLFJJ9aZw7mFefFli1b2jbbbBMxn7Kuw2WXXWbTp09PS46Z/YP07Nkz4jDoE8b8/frrrzsLCo63SKrx8VfBwZIX4eGHH+6TjmxPOukkl74sJhEk673jH6x+3ZHSEsJfgLaFYJnDjyAsgnLthxw8l7CUbUPL8fvvv0emgSfbVlg/ycdlKDdMTL0SH6YyJWojUkwS0dGxUgngb4K1YcSIEW74A4sGi0yhHJx99tkRr/pSE0oQwSsaKEDJyPrGZwEn/6JI5jqKkzoBXjhIKpypd2/KxkLHsGFYxL9wcN6U/EMgyMMz+udo7D1mBvoF7rzTdOyY+RfqGWAx9D5a+VeK5HMsxSR5VopZCgHMjfvtt58NHjzY+QawXoUfXinl1ISH/Y2Y7KyYVOP74QEcXiWZJeAVEl9HyVyNet9pp52cQzLxWWk43vneSbK0Kca54tPhy+G5JMOjEOIEeSS7cB1ccJqms4TgPPv999+7/Vj/8qmteAbkuRCeU1JMYrVYhSUkgCPiyy+/HFmGPjoyvVu/fDQzZzZUvGNbsmb8VOP7qcYM6fgXxYbmWefHJuBN7cEeceyYxUNr1KgRcXBkVVhvFSse6x+HWqwqidai8VaX0hxwo9NP52/y5znQ25f8Q8C3E0K8le2fo4n3gk7TtBPaSyzxdZ8PbcUzwDerEESKSSHUcprLyKJX+JBcffXVMVPmYctLHvFKQsyISQb671u89dZbJR5S9CT69+9v+IEwZRBJNT4+DJhKufnffPPNErli+jPpX3755SWOKSA1Av7Byli5t1Qlm0LQwTGeRaRevXouORRMPvwWS5hyyYqriI8fK16mw4L+AsEXcaavmw/pYxnwbSVV6xbWlqDTtLc2RJfb130+tBXPwDOJLkvYfksxCVuNZqE8PXr0cD4CjPcztdb3+rg0vZMLLrjAOZPiGLvrrrtucI46d+7snNqmTJnirud7QLycbrvtNnvttdec9YbF0JBU4/Mg82ugXHvtte7jbj7TWGmYAs16JpiJJRtGwK/0irWAtTtSlaCDY6xzWYjLDwOwhDc9ZpxmUYKYbsx6KEz99taU4OJV0en5afD0qKP//IsieA7tMTqe/7148eLINf05pO9FFhNP4p+tZxLk9M/RxHtBp+l4MfOxrXgm8coUlvDwrEITlhrJg3IwVHPxxRfbwIED3doeL774om299dbu4c+LHMsDmj1KSzp6gjg/3nLLLca6KKNGjbKXXnrJmjdvbjNmzIhYUM4880zD3I+kGp9zWK8EnxisQccff7yxKim9Nj/tkNVsjz32WKJKNoAALwO4ohjwwvFOrckmyYOZrwazZk4sod2x1g0zw2iHzAyLNzsMJWfTTTeNlYwLY7GueMLUdfxegoIV5oMPPggGFdtH+Q1OffUvXKx1qXIolnBIf1A3LBPgOaVaTJ4DWMfinZ8vbQWl2ivxidprqnxyOb4sJrlcOzmct969e9uQIUPcsAmmUBY1wvfEm1Efe+wx9zn6dBWBqcAsgrbnnnu6YResNVwXXxasJnzpOCipxuchdffdd7ul9psWfWCNpZ9RSpiO3K1bN3v22WcTLosdvLb24xPgJeyXF58/f36JiN6xL5GjM+vWeAdHEkDRCUrt2rXd95sw1XvriT9OXJQAPiEfTMMfT3RdH4dtMJ7Pc/B4rP3ofPLSRLDaRB+LdX6hhflPFjDk5V/MnkGQfzx2xEF59HH91qfBNh/aCl8V9hY+zyRYhjDulyuq9H++GZ4DJZw6bYbLRcsWzXIgN8pCMgRQELBe8IBAUYj1AEgmnWTj0BPmc+gMrSRj2kw1Pvngpcl5vAQl6SWABYMhFtpJ9+7dS11obUOuzgOdLxkz9IJShMNjsorEhly3tHNZEND7M+28887WqFGj0k4puOPUHcO0DBXjB+aHajMFIlfbCt+KYtE4Vrjt2rVrpoqfU+nKYpJT1ZGfmeFBz1BOixYtMq6UQIgXDI6QySgl6xOfczCZSimBRPoFSwVDfJio58yZk/4LBFJEWcbq5T/ulgtKCdnjRYMwxV6+Sw5FiX/UHUO2CJ+ZSNVZukSCpQTkYluhc+TvEZ6xhSJSTAqlplVOEcgRAiiWfoo2Ds3xZk3kSHbTng2cZL3fC1NbM21hTHsBspggnR2UNyxeOC4XmuCzx/3BkBN+TYUiUkwKpaZVThHIIQJYTRgv56XMGHohCQt/YTHCoTrRrKBCYhKvrLQPlDeGMfzXhuPFDVs4Q0sMKeMwDQMsOoUi8jEplJpWOUVABERABEQgDwjIYpIHlaQsioAIiIAIiEChEKiYjnUmMgErV/OVibIqTREQAREQAREQgXUEZDFRSxABERABERABEcgZAlJMcqYqlBEREAEREAEREAEpJmoDIiACIiACIiACOUNAiknOVIUyIgIiIAIiIAIiIMVEbUAEREAEREAERCBnCEgxyZmqUEZEQAREQAREQASkmKgNiIAIiIAIiIAI5AwBKSY5UxXKiAiIgAiIgAiIgBQTtQEREAEREAEREIGcISDFJGeqQhkRAREQAREQARGQYqI2IAIiIAIiIAIikDMEpJjkTFUoIyIgAiIgAiIgAlJM1AZEQAREQAREQARyhsD/A23/kkoNlBr1AAAAAElFTkSuQmCC;" vertex="1" parent="1">
          <mxGeometry x="498" y="1350" width="328.73" height="104" as="geometry" />
        </mxCell>
        <mxCell id="Jjxi664DVSr25sezRC5C-219" value="" style="shape=image;verticalLabelPosition=bottom;labelBackgroundColor=default;verticalAlign=top;aspect=fixed;imageAspect=0;image=data:image/png,iVBORw0KGgoAAAANSUhEUgAAAkYAAAC+CAYAAADQg8AxAAAK4WlDQ1BJQ0MgUHJvZmlsZQAASImVlwdUU1kagO97L70QIAEBKaE3QToBpIQeivQqKiEJJJQQE4KCXRkcwVFBRATLCI6KKDg6AjKKiAUrig37gAwKyjpYsKGyD1jCzOzZ3bN/zs39zv/++5d37n3nvwBQQ7gSSSasDECWOEcaGeDNjE9IZOKfATIgocMKIFyeTMIODw8BqEzNf5X3dwE0Pt+yGvf178//q6jyBTIeAFASyil8GS8L5TZ0DPMk0hwAkCOo3nBxjmScb6PMkKIJojwwzmmT/GWcUyYYozxhEx3pg7IRAAQKlytNA4Big+qZubw01A8lHGUbMV8kRnkVyh48IZePMhoXzMrKyh7nIZTNUHsJAFQGyqyUP/lM+4v/FIV/LjdNwZN1TQjBVySTZHLz/s9X878lK1M+FcMEHRShNDASnTXQ93cvIztYweKUuWFTLOJP2E+wUB4YM8U8mU/iFPO5vsGKtZlzQ6Y4VeTPUfjJ4URPsUDmFzXF0uxIRaxUqQ97irnS6bjyjBiFXijgKPznC6PjpjhXFDt3imUZUcHTNj4KvVQeqchfIA7wno7rr6g9S/anekUcxdocYXSgonbudP4CMXvapyxekRtf4Os3bROjsJfkeCtiSTLDFfaCzACFXpYbpVibg27O6bXhineYzg0Kn2LgC/xACPpjghhgB5zRYQMiQGiOYEnOeDE+2ZI8qShNmMNkoydOwOSIedazmHY2dnYAjJ/fyS3xNnLiXELqrdO67L3oVn6PnpmSaV1KGQBNhWjoB9M6o10A0AoAaGznyaW5kzrM+B8W/S7QAANoAl1gCMzQL4QdcAJuwAvNOAiEgWiQABYAHhCCLCAFi8EysBoUgmKwGWwFlWA3qAEHwGFwFDSBk+AMuACugBvgDngIekA/eAmGwXswCkEQHqJCdEgT0oOMIUvIDmJBHpAfFAJFQglQMpQGiSE5tAxaCxVDpVAltAeqhX6GTkBnoEtQF3Qf6oUGoTfQZxiBKTAD1oFN4NkwC2bDwXA0PB9OgxfB+XABvBGugKvhQ3AjfAa+At+Be+CX8AgCEDKijugjVggL8UHCkEQkFZEiK5AipBypRuqRFqQDuYX0IEPIJwwOQ8cwMVYYN0wgJgbDwyzCrMBswFRiDmAaMecwtzC9mGHMNywVq421xLpiOdh4bBp2MbYQW47dhz2OPY+9g+3HvsfhcOo4U5wzLhCXgEvHLcVtwO3ENeDacF24PtwIHo/XxFvi3fFheC4+B1+I344/hD+Nv4nvx38kkAl6BDuCPyGRICasIZQTDhJaCTcJzwmjRGWiMdGVGEbkE/OIm4h7iS3E68R+4ihJhWRKcidFk9JJq0kVpHrSedIj0lsymWxAdiFHkEXkVeQK8hHyRXIv+RNFlWJB8aEkUeSUjZT9lDbKfcpbKpVqQvWiJlJzqBuptdSz1CfUj0p0JWsljhJfaaVSlVKj0k2lVzQizZjGpi2g5dPKacdo12lDykRlE2UfZa7yCuUq5RPK3cojKnQVW5UwlSyVDSoHVS6pDKjiVU1U/VT5qgWqNapnVfvoCN2Q7kPn0dfS99LP0/sZOIYpg8NIZxQzDjM6GcNqqmoOarFqS9Sq1E6p9agj6ibqHPVM9U3qR9Xvqn+eoTODPUMwY/2M+hk3Z3zQmKnhpSHQKNJo0Lij8VmTqemnmaFZotmk+VgLo2WhFaG1WGuX1nmtoZmMmW4zeTOLZh6d+UAb1rbQjtReql2jfVV7REdXJ0BHorNd56zOkK66rpduum6ZbqvuoB5dz0NPpFemd1rvBVONyWZmMiuY55jD+tr6gfpy/T36nfqjBqYGMQZrDBoMHhuSDFmGqYZlhu2Gw0Z6RqFGy4zqjB4YE41ZxkLjbcYdxh9MTE3iTNaZNJkMmGqYckzzTetMH5lRzTzNFplVm902x5mzzDPMd5rfsIAtHC2EFlUW1y1hSydLkeVOy65Z2Fkus8Szqmd1W1Gs2Fa5VnVWvdbq1iHWa6ybrF/NNpqdOLtkdsfsbzaONpk2e20e2qraBtmusW2xfWNnYcezq7K7bU+197dfad9s/9rB0kHgsMvhniPdMdRxnWO741cnZyepU73ToLORc7LzDuduFoMVztrAuuiCdfF2Wely0uWTq5NrjutR1z/crNwy3A66DcwxnSOYs3dOn7uBO9d9j3uPB9Mj2eNHjx5PfU+uZ7XnUy9DL77XPq/nbHN2OvsQ+5W3jbfU+7j3Bx9Xn+U+bb6Ib4BvkW+nn6pfjF+l3xN/A/80/zr/4QDHgKUBbYHYwODAksBujg6Hx6nlDAc5By0POhdMCY4Krgx+GmIRIg1pCYVDg0K3hD6aazxXPLcpDIRxwraEPQ43DV8U/msELiI8oiriWaRt5LLIjih61MKog1Hvo72jN0U/jDGLkce0x9Jik2JrYz/E+caVxvXEz45fHn8lQStBlNCciE+MTdyXODLPb97Wef1JjkmFSXfnm85fMv/SAq0FmQtOLaQt5C48loxNjks+mPyFG8at5o6kcFJ2pAzzfHjbeC/5Xvwy/qDAXVAqeJ7qnlqaOpDmnrYlbVDoKSwXDol8RJWi1+mB6bvTP2SEZezPGMuMy2zIImQlZ50Qq4ozxOeydbOXZHdJLCWFkp5Frou2LhqWBkv3ySDZfFlzDgNtlK7KzeTfyXtzPXKrcj8ujl18bInKEvGSq3kWeevznuf75/+0FLOUt7R9mf6y1ct6l7OX71kBrUhZ0b7ScGXByv5VAasOrCatzlh9bY3NmtI179bGrW0p0ClYVdD3XcB3dYVKhdLC7nVu63Z/j/le9H3nevv129d/K+IXXS62KS4v/rKBt+HyD7Y/VPwwtjF1Y+cmp027NuM2izffLfEsOVCqUppf2rcldEtjGbOsqOzd1oVbL5U7lO/eRtom39ZTEVLRvN1o++btXyqFlXeqvKsadmjvWL/jw07+zpu7vHbV79bZXbz784+iH+/tCdjTWG1SXV6Dq8mtebY3dm/HT6yfavdp7Sve93W/eH/PgcgD52qda2sPah/cVAfXyesGDyUdunHY93BzvVX9ngb1huIj4Ij8yIufk3++ezT4aPsx1rH6X4x/2XGcfryoEWrMaxxuEjb1NCc0d50IOtHe4tZy/FfrX/ef1D9ZdUrt1KZWUmtB69jp/NMjbZK2oTNpZ/raF7Y/PBt/9va5iHOd54PPX7zgf+FsB7vj9EX3iycvuV46cZl1uemK05XGq45Xj19zvHa806mz8brz9eYbLjdauuZ0td70vHnmlu+tC7c5t6/cmXun627M3XvdSd099/j3Bu5n3n/9IPfB6MNVj7CPih4rPy5/ov2k+jfz3xp6nHpO9fr2Xn0a9fRhH6/v5e+y37/0FzyjPit/rve8dsBu4OSg/+CNF/Ne9L+UvBwdKvyHyj92vDJ79csfXn9cHY4f7n8tfT32ZsNbzbf73zm8ax8JH3nyPuv96Ieij5ofD3xifer4HPf5+ejiL/gvFV/Nv7Z8C/72aCxrbEzClXInWgEEHXBqKgBv9qP9cQIA9BsAkOZN9tcTAk3eCSYI/Cee7MEnxAmAmm4AopcCEHINgO2VaEuL+qeh94JwGqp3A7C9vWL8S2Sp9naTviieaGvyeGzsrRkA+BIAvpaMjY3WjI19rUGTfQhAW95kXz8uyofQm0yrk41NyGO31FXgbzLZ8/+pxr/PYDwDB/D3+Z/jgxyj303lvgAAAGxlWElmTU0AKgAAAAgABAEaAAUAAAABAAAAPgEbAAUAAAABAAAARgEoAAMAAAABAAIAAIdpAAQAAAABAAAATgAAAAAAAACQAAAAAQAAAJAAAAABAAKgAgAEAAAAAQAAAkagAwAEAAAAAQAAAL4AAAAAeZ+ZAQAAAAlwSFlzAAAWJQAAFiUBSVIk8AAAO95JREFUeAHtnQecFMW2hw8ZQcWsgAERBRQRFeM1wEMFMYvXhPlijlxzzjk/c0SfilfFnDOCVxEwgghIUhADQQlG0puvtNbe2Z7ZiTvTPf/z++32THVVddVXPV2nTp2qrrckISYRAREQAREQAREQARGwhhdffLEwiIAIiIAIiIAIiIAIJAjUy9ZiNGrMWAduw/U7CKAIiIAIiIAIiIAIxIpA/VjVRpURAREQAREQAREQgTwISDHKA56SioAIiIAIiIAIxIuAFKN4tadqIwIiIAIiIAIikAcBKUZ5wFNSERABERABERCBeBGQYhSv9lRtREAEREAEREAE8iAgxSgPeEoqAiIgAiIgAiIQLwJSjOLVnqqNCIiACIiACIhAHgSkGOUBT0lFQAREQAREQATiRUCKUbzaU7URAREQAREQARHIg4AUozzgVULSmTNnGn+SaBNQO0a7/Xzp1Y6eRLyPaufStm/D0l5eVy93An/88Ue5F1Hly4CA2jEDSBGIonaMQCMVoIhq5wJAzCMLWYzygKekIiACIiACIiAC8SIgxShe7anaiIAIiIAIiIAI5EFAilEe8JRUBERABERABEQgXgSkGMWrPVUbERABERABERCBPAhIMcoDnpKKgAiIgAiIgAjEi0BJV6V9++23NmDAAOvSpYv17t07Y7IvvPCC/fjjj7bDDjtYy5YtM05XrhEXL15s8+fPd8Vr2rSp1a9f3xo2DG+ahQsXGvF/++03F3/ppZd28cu1bipX/Am8+uqr9sMPP9j2229va665ZvwrrBqKgAjEmkB471tHVb7jjjvs8ccft4EDB9rWW29tyy23XEZXvuuuu+zLL790D+E4KEY///yzPfnkk4bSA4dlllnGWrVqVUM54vz06dNt3rx59t5777nz++yzj4ufEThFEoEiEGBw88knn9iKK64oxagIfJWlCIhA3RIoqWK0wQYbWL169dzDdNlll63bmpfR1ZYsWWILFiww9q7AErZo0SJbaaWVXAm95QiliPM//fSTzZ07137//XcjHX8SERABERABERCBwhAoqWK03377WY8ePWz55Zev6OmgJk2a2GabbeaUoqFDh1qDBg2sZ8+ejguWIwRLEUoT0xYoTltuuaU7T1qJCIiACIiACIhAYQiUVDGiCt4ykq46KAIoC3EVfIqwmFFPBOsQliHETy+iFBHGOaxsxOePtOUq2bRbNnF9ffG1SlX/bPNLl5e/XqUes2UJp2zTeMsn93Y2ku11KrWd4ZsN21w45ZImm7ZWXBGoKwIlVYzeffddu+qqq2z99de3a665plqdZ82aZY899pi98847NmrUKFt55ZWds/WJJ55YLV4cvjBdhtPqqquu6h5eKED4ECGbbLKJO3700UfuuMUWWzhlqX379oa1yE+1uZMl+vfmm2/ajTfeaBtvvLEddthhdsstt9jIkSOdIke99t9/fzv44INrPJjHjh3r4nLEIrbaaqu5e+GII46wTTfdtFptgtcgv1tvvdVGjBjh4my++eZ27rnnWuvWre2ZZ56x+++/3yZNmuQURxz7zzjjDGvTpk21/PjCdCS+XVjphg8fbjiyb7XVVu4+w7G/0iTImN8ZbTpkyBCbM2eOuw9xrsbKC6dUgs/gs88+636zKPXcE8cee6x16NChRhL48xv/4IMPqtoSyyn3ONdJtoZyX+Dkfe211xrPjtdee82++OIL52O30UYb2VlnnaV2/osyA6h77rnH3nrrLZswYYKbcl9vvfUc25NOOskaNWpUoz3eeOMNx/S///2v82PkGXPCCSdY48aN7fLLLze+X3/99dXS6TdUDYe+xIRAvcRIIisnlVFjxrqqb7h+zQddtkxeeukl+/e//+1Wpf3nP/+pSo4vTd++fd3DlUCsRRSTEQk/TpyVp02bZjhh87COi+BnNHXqVDdlxkOf775DQXngYbbTTju5KbQ11lgj9OFWaBYoLIif0gvLH+UCxWSdddaxX375xVhtSFkpv5ejjjrKtbX/zpTgaaedVhWHTpCHLMKD+Oabb7bu3bv76E6B8ddgBd/333/vOk6fZq211rJdd93VbrvtNpeG1X1+5R4K56BBg5xyXZVh4sPJJ5/spiYJQ8GkM/FyxRVX2N577+2/Rv6YTTsyUIHx119/Xe23B4TtttvO/e6C1gcUVZyvt9lmG6ewEC/Y/iussII98sgjtvbaa3PKCb9llC+UMcRbhLEAIUyxo2AHLYLdunWz7777zrbddlunzHKOcvg0LFp45ZVXnBO4y+Svf3Fq50zaER60CQNKhLaAt+fENDxKE+FeGFCgWHrhN+jf18W0Pr/XDTfc0J544gkfxR3jxLZaxUr8JZN2LnERY335spyHufjii92Pmh8no0NG81hQzj//fBs/frxTiuLYKnTOKDwofyhA//jHP1x9qTOfCeMcccrBUpTcBhMnTnTKytNPP22fffaZ6wzpzJAHHnjAOY3zGSUXawSKEx3g4MGD7dNPP7WnnnrK+U7xQObBHSZcY5VVVjFGt6S5++67rXnz5vbVV185pQhGWBM+/vhj14GjcKFEERaUG264wT3smzVr5qxPH374oTFSPvLII120Cy+80OURTFMpn8eMGeMUkKuvvtpZc95//3276KKLnJKCBel///d/Q1HAGMsgv9Vhw4Y5KwOW3tmzZ9tDDz1ULQ2KJ0oRv/HrrrvOXQfLEZ8J4xxxwgQL3ymnnOKuQZvxXMCKxWpNVsgFpRLb+cUXX3TPT+59Vv5ibaYNPU/aBouuFxSoCy64wH3deeedjQErvy0GPChRKEVhUolswzgoLH4Eyk4xorN87rnnHGksBLvttpvr+DDLY0U67rjj4tcKf9WI0S+jOB5oOKQz0l5qqaXcH58J4xxxgiP2cgKCotKxY0dXPqbDUGz96JPpLYSRK9YiLAKY5plCQ7BUMO2CjB49umrE6gL++oeVgIf96quv7kKwYOyyyy7uM/cID2v81uCDNRHFCyE/LyhmWDAQOn+mzeDKcvNTTz3VevXq5ZS2559/3iepuOM555xje+yxh1M4WrRo4SwQTKsgyVYDD4dOlN8s9yrKap8+fezoo492p4P8sV7Q6SJ0yFj6UGz447PvpIlD3GTZfffd7ZhjjnFTpf65gIUEwbLqpVLbGSszvy22QcHqyvMCf0QsoF27dnV4/DQ0X1B8GIx06tTJuTS0bdvW/X5YNUw+YXtTVSpbf2/pGG8CZacYMR+OckRnyh49yYJyFHfxliMUBfwq+ONzuVqKfHugrCQ/RJnewPcHwT8EoX4oIzvuuKMx5eWFaTEflwc1FoBkWXfddWs47PspGkz9yZY0fy6YFwoa07EonV5xCl6HciGff/55MLhiPvPb++c//1mjvl75mDlzpvGXLChGyYKSjGDR84LV79dff3W/8b322ssHVx0JowzEIW6ysNdXsvjr+HuM85XazvgScQ+j2HhBwWSbD7/YhcUcXvyUGwOM4PQa5/n9MpWWLJXKNpmDvseTQEmdr8OQYsZH6NC830EwHqNRRvY4Z8dVvOWI+mHJiIp4K05yeb2zLqNML1iNsNowLUKb89AO+iT5eMlH2j9ZvPUMRSdZkhUlznvrBR0vCmcqoVx0KEE/l1Rx4xSe7rcHf6bGcHrG1ycoyUox53zbBy0/nn+q6/C759y4ceNcW6EMB4UBQrLQgSPBe8xfpxLbGXaPPvqoc2pnKpmBQJBNkB9tiSRz9nGYvk+WSmabzELf40eg7BQj3zkyYkwl6c6lSqPw4hPwCkptV8Iy1K9fv6qVSCh/PHzp3Pg8OOFzVEyho/TCCqhkoRNhZ3VWVFWiYpTu9+XPecfcZHaZfPdpfV5habzlwscNxsn0PqvUdmbhxumnn161mIEBC1YkpkTffvvtIEr3mcUJDExmzJhR4xwBQSucj1CpbH39dYw3gbJTjPwqLL/ENPkhyGoZVj1JoksAR1B8HLDEsPoMPyFvGWOrgrApmULW1luJ8Nl68MEHC5l1LPJK9dtjOpJVYYj/neZSYT/Fw3XCBMuGn0LzccPi1RZWqe2Mnx+DD3zs8PkKWvIuvfTSKv86zw/fIgYCOGSHTW3iFJ8slco2mYO+x5NA2fkYYTmgw2REwh5GycKKCUm0CbACDGHvGXwhvFJEmN+/ic/FEjp1LBL4WbD6JllQzlgJ6acLks/H/Tu/vTCrHZYIBEde7wuWCwt+41iLuA6r3JKF6VXOESdsGic5fqrvldjObFHhfeMOOeSQakoRnBiUJIvfM4xVockr0Bg4hD2HK5FtMjd9jy+BslOM8BNhaTrCvhp+/pvvjFzYaEwSbQLt2rVzFUDxmDx5clVlcAK97LLLqr4X6wMdLlYqhJVWbIfgBYsIK57oVNgnq1KF357vYGGANcG3zf/8z//khQWl1O8/duaZZ1b7jfN7Jwzp1q1bDWfgbC5cie3MYgavtDKI9L5d7NHFtgZ+ZWiQI6sHaVMsdWyDwKIXNkXFGfvKK6+sctgOpqlEtsH663O8CZTdVBq4WeLNj5NNHDHtspwbZ13mwFu2bOk24ks1Hx7v5opH7XDaZZk1lpnevXu7aRk2hmTlEk63OPcWW9hp/aCDDnKdMsu/ucewhEyZMsUtXcbJmKX7lSg4N7PbNR0m/id0mN7PBAsOezzlK2yTwJQ4yrH/jZOnn6pjeodd8fOVSmxntjhhSwu2O2C/L5bf44zNb4yNUIMrBOGLuwLbZnC/sxcVbeKtpewLxh/bayRLJbJNZqDv8SRQUouRX+3jjx4xneadd97pOk0cBnlYogjhe8LrHvzKpOR0Pr2OdUvA+4Glag8f7o+0Hzuds7yeMKwEPKzZcwX/iLD8wsJ8LX2+/ujDOfowf/Tn2GeHa+27775uuoF7DMsRI2w2uaN8bdq08dEr6oizLr8z2ocVTShFrATdc8897fbbb3fbHASBeLb+GDyXqt3YWBP+vPoDzvDnj8+EYa0jTlB8/j7PsHM+jj9Xie3MbtTsKs5zFAWXzU6Zrsbixx5dSDJDLPW0LVPI9957r/P9w+LEZp5hKzvJoxLZUm9J/AmU9JUgmeClo6LTZP8NvyQ3k3SKUxgCxd6anlEsHSK7Wful3YUpeXa50Pnjn8GrT1J1BNnlWF6xM2lHLAw46/K+OL+DNFY9tsbgdS/FFG8BZqfsYkrU2zmTdgzyIz7PUKbXkpUhHw9HdwYFKEdMXyYLFvz77rvP7W2F83YqiTrbVPUqRXi27VyKMsb5mmU5lRYEzgiQ6RVJPAlgFcDUX2pBMZPUJIDVgb9iS7EVIl/+SmvndO849EzYnqJ///7uKz5GBxxwgFvaz7Qyr2b5v//7P3eOd+Glk0pjm46FzkWbQNkrRtHGq9KLgAiIQHkT6Ny5s5ti4wW8N910k/tDGcZa6IVp1Hyd7n1eOopAuROQYlTuLaTyiUAdEWCqGsdrHK4llUUAhWjQoEHuj6k1lCJ8AXnVCq/vwYokEYFKIVD2PkaV0hDlWk/NdZdry2RXLrVjdrzKNXZdtSPTazhXS0pDoK7auTS1K/+rlnRVWvnjUQlFQAREoPIISCmqvDZXjf8mIMXobxb6JAIiIAIiIAIiUOEE5GNU4TdAbdVnh1tJ9AmoHaPfhtRA7RiPdqytFmrn2ggV97wUo+LyjXzu7B8liT4BtWP025AaqB3j0Y611ULtXBuh4p7XVFpx+Sp3ERABERABERCBCBGQYhShxlJRRUAEREAEREAEiktAilFx+Sp3ERABERABERCBCBGQYhShxlJRRUAEREAEREAEiktAilFx+Sp3ERABERABERCBCBGQYhShxlJRRUAEREAEREAEiktAilFx+Sp3ERABERABERCBCBGQYhShxlJRRUAEREAEREAEiktAilFx+Sp3ERABERABERCBCBFo6N/im22Zc02X7XUUXwREQAREQAREQATqioAsRnVFWtcRAREQAREQAREoewINW7VqlVUhZ/0018XPNl1WF1FkERABERABERABESgBAVmMSgBdlxQBERABERABEShPAlKMyrNdVCoREAEREAEREIESEJBiVALouqQIiIAIiIAIiEB5EpBiVJ7tolKJgAiIgAiIgAiUgIAUoxJA1yVFQAREQAREQATKk4AUo/JsF5VKBERABERABESgBASkGJUAui4pAiIgAiIgAiJQngSkGJVnu6hUIiACIiACIiACJSAgxagE0HVJERABERABERCB8iQgxag820WlEgEREAEREAERKAEBKUYlgK5LikDcCPz000+2aNGiuFVL9REBEahAAg0rsM4VW+UlS5bY/fffb4MHD3YM7rzzTmvevHnF8lDFUxOYMmWKXXPNNTZv3jzbaaed7OCDD64RedKkScY99NFHH9m0adOsWbNm1rlzZ9t3332td+/eNeL7gBEjRtigQYNs9OjR9tVXX9laa61lG2ywgfXp08e22GILH01HEahTApnc8xRo+PDh9vTTT7v7d/Lkybbmmmtap06dbPfdd7dtttmmTsusixWHgBSj4nAtu1x/+OEHO+OMM2zYsGFVZfvjjz+kGFXR0AdP4Mknn7TLL7/cfvnlFxe07rrr+lNVR5SaI4880n788UcXtsIKK7jP3F/8ffPNN+58VYK/PgwcONCuuOIKW7hwoQtp0KCBTZw40f29+OKLds4551jfvn2Tk+m7CBSVQCb3PAV44IEH7Nprr62yjjZq1MgYIPD3/PPP20knnWTHHntsUcuqzItPQFNpxWdc8iu89dZbtscee7gOSxaikjdH2RZg7ty5dsopp9i5557rlKJU9wqWx6OPPtopQptvvrm988479t5777n7a9ddd3X1u/76640ReFDGjx9vl1xyiVOKDjjgAHvzzTft888/d0esUkzFoZB5ZSuYVp9FoBgEMr3nufa4cePsqquucvcp9/kbb7xho0aNcvfvPvvsY/wubr75ZmdBLUZZlWfdEZBiVHesS3KlL774wo477jjX2Wy33Xb28MMP10k5eEhIokXg7LPPtldeecWWXnppNypONR2GMjNr1iwX7+6777ZVV13VVbRFixZu+m211VZz34cOHVoNwHPPPee+9+jRwy688EJr3bq1+86RDmW55ZazxYsX25AhQ6ql0xcRKBaBTO95ro8ihDDte91119nqq6/uvnP/XnbZZbbZZpu57z6e+6J/kSQgxSiSzZZ5oZkua9y4sfEAoBNbccUVM0+cRUymRu644w775z//aRtvvLH7w9cEy8GCBQuyyElRS0WAewUfoWeeecZ22223lMUYO3asU2q6d+9uTZs2rRavfv36zt+CwC+//LLauZYtW9qhhx5qRx11VLVwvtSrV69KUZozZ06N8woQgWIQyPSe59ozZsxwRVhvvfVCi9K+fXsX7uOFRlJgJAjIxygSzZR7IRnNPPbYY9axY8fcM6klJVMgTI1gVkaYd2fk/9lnn7k/wu+55x4XXktWOl1CAocffrhzfsbvJ50wbcBfKsG/CFl77bWrRUnnO0QaFC5k0003rZZOX0SgWAQyvee5fq9evew///mPmzZGecdC6uXnn382byElniTaBKQYRbv9ai39SiutZPwVU3CaRflp0qSJ3XTTTW5lxq+//upMzzjT4ow7cuRI22qrrYpZDOWdJ4Gtt946zxzMXnvtNWP6FuW4W7duKfPj/vj999+NDuaTTz5xUxMo2AcddJCbqkiZUCdEoIAEsrnnWTFJfPzpGBgcdthhbkUaSv1DDz3kVlgyGMBlQRJtAlKMot1+ZVH6Dh062C233GKtWrWq6tToGPfee2976qmnnFLEEm0pRmXRXEUrBM7WF1xwgcv/kEMOqWExCl749NNPr/LZIJzp3osuusj233//YDR9FoGyIcB0L9udXHnllfbggw/apZdeWq1sWIpwzubZJ4k2ASlG0W6/sig9c+7J8+5Mpc2fP7/KWqWVRmXRVEUrxOzZs53vEBs9brLJJnbyySenvRZ7v6BQc198//33hq8Hy/hJf8wxx6RNq5MiUAoCWDRR6F9++WV3eZT5NdZYw21N8dtvv7mFC/ha3njjjVKOStFABbymFKMCwqzkrFjK+uijjxqWITo65ty1Mq0y7gjamj2Nvv76a1tnnXWcEz6dRjphTy0vLONnJc/tt9/upmKXWWYZ7WXk4ehYNgSwFL300ktuI1O2ndh5550NfzwGgWw9gdsA9zFWU+JKoktAq9Ki23ZlU3L8SliBhmMim/Wx7JqVaaxaksSbAJYetoNgCT+rzu69995qTqmZ1B5rI3n861//ctEfeeSRTJIpjgjUGQFW1rJbO8JWE+xj5BcpsBJzxx13rFKG2JaCwYIkugRkMYpu25VNydkGAEfa7bff3m0OyDSJF+bh1dF5GvE6MrXQv39/++CDD2yVVVaxBxK7AqMchQkdC3skIeyP5DuVYFym4JCpU6cGg/VZBEpOYMKECcZ0GZLKV9KH87tgAULXrl1LXm4VIDcCUoxy46ZUfxHgYYG1AMHhNqgUEfb+++9zkMSQwHnnneemEHgdCEoR7zxLJYyqcUxlY0jeqcYmj8ni76Nibi2RfE19F4FMCHBvs+qWAeDHH39sPXv2rJGMcASlv127djXOKyA6BDSVFp22KsuSssGf38GY+Xfm2xGcEM8//3z3DqGyLLgKlReBq6++2r1Ik0xQitq2bZs2PzoL/7oQdgnmxbNB4bU19913nwvSFGyQjD6XAwGUeb+0n9WT7777brVisR0Jm+giWD5xJ5BEl4AsRtFtu7IpObsks+s1L2LE+ZBOEmdsXkLKSIs3qEviQ4A2HjBgQFWFeA9fmLB9A06pXvAhwjl/zJgxduCBBzqFmtcqsMwfh32Ezoe9jCQiUG4EWJHGvTp58mTr16+fW3HL/Tt9+nTjJd0Ig0ScsCXRJiCLUbTbL+vSsxeHl+BnH5bLkaXZJ554ohslsWEfJmXMzlgG/C6whbpWLuVTmtwIMP2F+KPPJfmVHaw+TPXn03DED4mVi+ySzvvU2BgP/ySUIpY909mwQzqr0iQiUAoC/l73x2AZGPA98cQT1qdPH+dLN3PmTLc5KUoR7wtkgMjgUFPBQWrR/Fwv8UDL6m2fo8b8uW3/hut3iGaNVeqiEmD0xHQaIycpQ0VFHfnM2fsI5QilSFMPkW/OiqsAe3BNmzbNbWxbrHdQVhzUMqmwFKMyaQgVQwREQAREQAREoPQENJVW+jZQCURABERABERABMqEgBSjMmkIFUMEREAEREAERKD0BKQYlb4NVAIREAEREAEREIEyIVDY5frfJnasHfup2czE0ts/fi+TKqoYIiACIiACIhAxAk2amq28mlnHjRNLOsN3lI9YjSJT3PwVo8S7kuyxu8wevdNs4pjIVFwFFQEREAEREIFIEOjQxeygE8z2PoyttSNR5CgXMr9Vae8lNm87/yizaZOizEBlFwEREAEREIHyJ9C2o9mV95t12bL8yxrhEubuY/TI7Wb9ekkpinDjq+giIAIiIAIRIjDpi4TlqJvZsw9HqNDRK2pOilGLIS+YXXK82aKF0auxSiwCIiACIiACUSWwIOG/e+ahZu+8FNUalH25s1aMmkydYKvfem7ZV0wFFAEREAEREIFYEliSeFl3/wPMpn8dy+qVulJZ+xjN7dvdlh05OHW5mQPdsKtZc73vKDUknREBERABERCBNATmzTH7ZJjZ1ImpI+1xiNk1D6Y+rzM5EchOMRr9oVmfhNITJisllhVemXjj9nYJvyOJCIiACIiACIhA/gRefdLsvCPN5v5YM696iUmf18abrblOzXMKyZlAdlNpLwwMv1DzZc0eGiylKJyOQkVABERABEQgNwI9+5gNeN2scWJfo2RhSu2lx5JD9T1PAtkpRiOHhl/uyDPM2rYPP6dQERABERABERCB3Al02tSs73Hh6UcMCQ9XaM4EslOMpnwZfqHe+4WHK1QEREAEREAERCB/Aqn62VT9cv5XrNgcslOMcAYLk9ZtwkIVJgIiIAIiIAIiUAgCqfrZ+Sn65UJcs0LzyE4xsiXhmBrm/2aR8IwVKgIiIAIiIAIiYA0bhUNYnPAzkhSUQJaKUUGvrcxEQAREQAREQAREoKwISDEqq+ZQYURABERABERABEpJQIpRKenr2iIgAiIgAiIgAmVFQM5BZdUcxSvMwoUL7eeff7YWLVoU/CLfffedvf7667bccsvZbrvtlnH+r776qv3www+2/fbb25prrplxOkUsPwI//fSTLbPMMtagQYPyK5xKVFQCtP3YsWOtadOm1qVLl6Jeq5wyX7JkiY0cOdIWLVpknTt3tmbNmpVT8VSWPAhIMcoDXhSSPvDAA/bWW2/ZZ599Zr/99puttdZattlmm9lpp53mFJlC1GHChAl2+eWXW9u2bbNSjAYMGGCffPKJrbjiilKMCtEQBcxjypQpds0119i8efNsp512soMPPrhG7pMmTbI777zTPvroI5s2bZrrGOgg9t13X+vdu3eN+D5gxIgRNmjQIBs9erR99dVX7p7cYIMNrE+fPrbFFlv4aGmP3Mv9+/e3+fPnu3innHKKbbppYq8XSZ0T+Pjjj23mzJm27rrrVl2b7++88477vtFGG1m7du2qziV/GDx4sM2aNcvFIa4X0pPP2muvbZtssokPrnHkXv3www+tfv36ttdee1WdD5Zh5513zkhxGTp0qBus8Zzs2jXFWx7+ukK9evWMASf3PkrSVlttVXVtfYg2ASlG0W6/lKVfnFipcMEFF7gOiEhNmjSxpZde2nVEdEZ0Zvfee6+1atUqZR46UZkEnnzySafo/vLLLw5AsMPzRFBqjjzySPvxxz9fU7DCCiu4z8OGDTP+vvnmG3fex/fHgQMH2hVXXOE6FMKwME2cONH9vfjii3bOOedY3759ffSUxxtuuMHefvvtqvN0rJK6J/D111875aVRo0a2/vrrVxWA5w9/CIOyVVZZxZZdNvGGhBBBuSAulpeg+HCO6YR0wev5uMGw5Lx9nOSjv2am8RkITJ8+3SlHWL+ppyT6BORjFP02DK3Bo48+6pQiHljXXnutM/kyUr///vudgsRon85FIgKewNy5cw3Ly7nnnmsoRc2bN/enqh0ZHR999NFOEdp8882dZeC9995zCtGuu+7q4l5//fXGSD4o48ePt0suucQpRQcccIC9+eab9vnnn7sjVik6IyyPXtkKpg1+xkLx8MMPW8PENiGpyhiMr8/FI4CCjKyxxhrWuHHj0AvRrsOHD69SlEIjRTSQ+2/VVVd1pfcsIloVFTtAQIpRAEacPmISRo477jg3vYWChOl36623ttNPP92d++9//+tMwO5LEf5lOuoKXppOlz9J3RM4++yz7ZVXXnGKM8p0qukwlBksNFgg77777qqOAf81pt9WWy3xQumE+HvQ1+S5555zH3v06GEXXnihtW7d2n3nePPNN7upXUb5Q4YM8UlqHBcsWOAUN+L169fPTcPViKSAOiEwZ84c57fIxWrzEUTZHTNmTJ2Uq64v4uvOb4IpXkn0CUgxin4bhtYA8y7TZNtuu22N895BkofVjBkzapzPJ4CHJaN+HKo33HBD529y2223OXN7unzpDPfbbz/nvInydsYZZzjfqHRpdK6wBP744w/nRPrMM8+k9RXD0RZlpnv37s7hNlgK/Dw6derkgr78svorhFq2bGmHHnqoHXXUUcEk7jNKu1eUuIdSyR133GFYO/FnO/7441NFU3gdEOAZgzDoWmmllVJe0VuSuG/w+4mbcF97+fbbb/1HHSNMQD5GEW68dEX3o/OwOPh/IIz4Czkn/uuvv9rhhx/uRoZ0kPzhX8Af/iCPPPKI83VKLhO+JUyrIDxEUdgoP3833XST9erVKzmJvheBAG2H83NtK8v22Wcf4y+V+PsLp9mgpPMdIg0dJ5LKiRqFCL84lCiUbzpkSekIsBoVYTUqbZJKuKeYavVTakybMg0aF+E+ZEUmCxVgknzfx6WelVQPWYwqqbUTdWUK4pZbbnG1ZkqjkMJo6YsvvnBTHTwIP/jgA8PXBMdv5t9xBg8TlCJWozz++OP26aef2vPPP2++bEzvJFsewvJQWP4EsNTVphTVdpXXXnvN3QN0Ft26dUsZHSWaZd4sBHj22Wdt//33dx3nQQcdZKxQCxPuH6xaxN14443DoiisDgmw/QeC4306QWnwq81Iw0rUuMnyyy/vquSZxK1+lVYfKUYV1uKsCEJ5wVrEkv1CyzHHHOOWdjOKxDFxl112qVKIsAzRsSULy/VR1ljhwciTVVD4uDBdQgf68ssvJyfR9zIkgLO1V34POeSQtCNn/Ny23HJL69mzp5155pnG9NlFF11k5513XmjNnnrqKbeAAAvnqaeeGhpHgXVL4Pfff3cXzMQBfp111qnyPZs8ebJbyVW3pS3u1XieIp5Jca+m3ItNQIpRsQmXUf4PJPY0YjUPU1xXX321rbzyygUvHauNkoW9RbAasRSWlUnJgnUoeUqPzdJ23313FzWuTpvJHKL8ffbs2c53CCsQe86cfPLJaauDw2qHDh2qHLdRmFHa2RcpWcgTRRlhOb/vhJLj6XvdEaC9sD4j3oeotquzf5qPy8aIcXJU9vWSYlTbXRCN81KMotFOeZcSfx2UIYRRvZ+qyjvjQAaYk5MVHE6jiDFiRLBWJUv79u2Tg9z39dZbzx3D0oQmUGBJCDB9wJ5G7GlDO+Mg7TuKVAXCuR4nbzbx49486aSTXEeLTxm+aEFhWwn8zrbZZhv5mwXBlPAzqwO9ZOrrxc7YftNEFAiUo7iIZ4AfVS6rcePCIS71iI8HXFxapAj1YGdZRtosg2clDz4axRD/cAjL258Lm0rz55LT+c41LE1yXH0vDQHahi0hWMLP6hyco7N97QwKMH90lnfddZdTjLyjNtbCJ554wlUOh+9x48ZVq6jfhBKljLgo5ulWSFVLrC85Ewg6T2ejCLDysE2bNsa0Kz6JONSnEu/QXZtliel2xMdPlV8xw/0mlJQhXz+9YpZTeWdGQIpRZpwiG4tRGZv28cP917/+ZSeeeGLR6sLOr/iKhHWM7G6MdOzYscb1UzlX+2k3plwk5UeADpHXcuBkj0LCVG1w6XKwxFgY2CMJYX+ksM7Dv/Zh6tSpVUm5N/y+VtzHqeS6665zp9gK4N///neqaAovEAEGLSgBtE22Axcc59kmxDtiY1EOEyzQ7A3EH9dJpfj4LQDwayyVeAZYxSTRJyDFKPptmLIGLH8+9thj3Vw+q338xo4pExTgBI7SyRapd999173Tigdb2LQZ0yl0sMGXMOK/8MYbb7gSBV81UIAiKosCEcBRmhWFrEpCKeL9UqmEzu+qq65ynRztHDaVi9UJCSrPOObjlJ9KuMfplNh5mY5Ur7hJRaqw4fyWUY6w8nmrXaZXwNrEjulYstNNPeEDyXsYGdTRzsH7wl/r+++/d/cU34vhM+mvU9vRW63wpZREn4AUo+i3YWgNWAbNzsDsrbH33nunXO0TmjiPQBxo6SD9CxWx+niFjLCwFSxMg7As/9JLL3XvU8J0fuONN7r3udGhspGgpLwI4K/29NNPu0KhFLGCMJ1gIeJ1IQ8++KBddtllTonxFiLS8aLj++67z2URbG/8ivhLJXvssYebXuMeY38cSd0RWGqppZxihP9XtsJ0J5bgdP6DKDooUShGbPeBAozTPhZprE0oRWzv4Z3AU1krKRtl9Fad5LKiqFOXoKDoYKkKE5RClPCgBcszSM4nLL3Cyp+AFKPyb6OcSogzqzcxs9TZd2LJmbFRHopTIYTRPaZkNgr0DzW/EywjefY0ChMsAq+++qqzELVJ+B/wtmq/uoNpEe+wGZZWYXVPAEvegAEDqi6MchImtLnfuJPzTOXyvj58gQ488EC30/Xqq6/u/E3o5BD2UsK6KSl/ArwjjBWDXinItsRYgtkQMVV6rC/soM+rZVBqGGT56fXgtVBQeEaELfzw8ZjuTSU8c1gxFxSm+lDWUwnTwX6Qh2Lmd2tPV4ZUeSm8/AiET+6WXzlVoiwJ+B+qT8YcfdifP5/P0fsIMMfPqB/LEA8WlCLeqL3zzju7ZdiMsoLi0x1xxBF21llnuQcNvkgoRTw02a8Gq5ekNAR8+/ijL0Wm9xb3W1DoNHi5MVs68D41drumw0IpYiqMtr7nnnvcLsLBdOk++7L5Y7q4OldYAn7aEgtv8j0RbI/g52AJCGdKzfubhcVjmrZbt25O6Qk6fJMP8XmmsB8Wyk2yhOWXHIfvwXjBz2FxfVgwHs86b7XyTHw8HaNJoF7i4VX96ZWuHu3rhZ8dl3kW4RkoNG4E5s+f75QjTN/+wVdbHbkV6Swxbde2m25teel8+RNg7yPaG6WolI6z5U+qPEvI75WtFrDm4P/j35FXrNJyvblz5zqfJvybuGcyfbYUq0zkixV0SmKVHTt8F/X1RXMSU5abh+wyvmxiwDlidjGrWHF5ayqt4pq8birMJnzZbsSHSZypFUllEED5lQIc3bbm98piilGjRrlXu2DlDVpSCl0zrod/Udiq10JfK9P8WG2Jco9o9Wym1Mo/nqbSyr+NVEIREAERKEsC7D/FAIiVaawgqzTBeRzlCAU/3arMSuMS9fpKMYp6C6r8IiACIlAiAliIunTp4qaRcKSuJGFqD/84nLDZmwmLliQeBORjFI92VC1EQAREQATiTEA+RnXWurIY1RlqXUgEREAEREAERKDcCUgxKvcWUvlEQAREQAREQATqjIAUozpDrQuJgAiIgAiIgAiUOwEpRuXeQiqfCIiACIiACIhAnRGQYlRnqHUhERABERABERCBcifQMNWL9cIK3jgsMBGWTR4pslCwCIiACIiACIhAKgKJHcbD+uDEy55sQeKcpHAECmMxSuznIBEBERABERABESgSgSWLU2Ss/ZNSgMk5OCvFaMlSzcIvNLOyNvYKh6BQERABERABESgOgXozvw/PuFnz8HCF5kwgO8Wo1VqhF6o/9JXQcAWKgAiIgAiIgAjkT6De0JdDM1mSol8OjazAjAhkpxh13iI00wZ3XWk296fQcwoUAREQAREQARHIg0BiVqbBAzeGZrAkRb8cGlmBGRHISjFavMOeoZnWm/6VNTx2N7Pv/3zLcGgkBYqACIiACIiACGRHYOpEa3j0LlZv9ozQdIt33Cs0XIG5E6j3+++/Z+45nXCyXrT7RrbUlHGhV1zSdClb3HMfW9Kpq1mzpUPjKFAEREAEREAERKAWAvPnWr1Ph1n915+2egvCV50t7rqdLRzwei0Z6XS2BLJTjBK5fzPoIVv74n7ZXkfxRUAEREAEREAECkRgSb16tnDgu38aIgqUp7L5k0BWU2kkmd/lHzZjLylGuoFEQAREQAREoFQEFvW/XEpRkeBnrRhRju8O6m+LdutbpCIpWxEQAREQAREQgVQEFvU93hYffmqq0wrPk0BOipHVr2+LrrjfFqKxNmyUZxGUXAREQAREQAREoDYCS5o0tYXn3WKLzrqhtqg6nweB3BSjvy64+IjTbMHzo2zRLvsnFKSGeRRDSUVABERABERABMIILGncxBbtfbgteHGMLd7vqLAoCisggaydr8dNmOQu375d2+rFmDPb6g972+qN+8xsVmKHzhRe9NUT6VsxCSxevNi+/PJLmz17tv3005/7TLVo0cJWWGEFW2+99RKGv7z04mIWXXmXmEBitar98MMPVi/h4NmyZUtr0KCBK9GMGTOMc3xfddVVU95DxCEu0qpVq6p4Pn3z5s1t+eWXd+fD/v3888/2448/uuu3bt26KgrvZaRcSLBcVRFCPmR6TZ90wYIF9t13f+7mv9pqq1mjRrKKezZhR9qD9l5mmWVsueWWc1GC7UTY0kunXqVMeuITx6cnk0zbrZT3yqxZs+yXX36xZs2a2YorrhiGJ/ewhDJkK7e0xe0725Itupst0yL3vJQyKwKFM/O0WCGxVL+PGX+SkhPgYXPyySfb6PFzE2VpmOiYVrElie0WlsxK7M4wa56t3+hXu+WWW2yVVVYpeVlVgPIigEI9ZPBgmzdvnrVv395aduhgi/4q4udDhzpFm69rrLGGbbLJJqGFn5lQLIZ/8IE716tXL2vSJPGQT8joIUOcwpMuLfG+mzLFPv30Uz7aHnvs4Y78m51Qtoa/95773qNHj7Qdrk/ky4yC1bVrYiuRWoThwg+ffGJfffWV6+y22WabWlJU7ulp06bZhx9+6JTHHXfc0Rb9pUQG24kBWLdu3ZziFEZqVOJemzNnjrVp08Y22mijqihRuFcaJ5SiIW+84Z6t//jHP2yllVaqKr8+RJeATAbRbbu0Jb/yyitt9OjRTvG544477INEJ8XfjTfeaIzWx4wZY/fee2/aPHSyMgl88803Timi9mutFf4aIM5NnTrVpk+fzsfYCZ00gkXAW6hcgP5VI/DFF1+471gFU1nWULRRnjjGTbAU+cGlZxG3OlZifaQYxbDV586da++8846r2W233WaMeJs2bWpLLbWU7bDDDnbCCSe4c0MSo/diyaJF3saQ2RWyjY/1S1IcAt9++63LmKkB7pl0glXnt99+SxclkueC0z9+Wi2SFSlioXnOMI2ErL766mmvhEVo3LjwjYHTJozASV93XBaYUpREn0DhptKizyI2NcCfaL/99rNll13WOiSmQZLF/5B5WBVSRo0aZS+//LKzTE2YMMFNtWywwQZ26KGH2vrrr1/jUtnGxw9h0KBBNmzYMBsxYoQzX3fs2NG22mor69evX5UfS40LKSBjAiio3kKCf00qaZhYbLFw4ULnG/Lxxx+7NkgVN6rh+FDNnz/f+Rt17tw5qtUoWrm9wsi9kM6/pnHjxu4+GT9+vPNLw8cxTsJ94gUm6aysPp6O5U1AilF5t09OpVtzzTXtzDPPTJn27bffduc23XTTlHGyPfFJwicD5cSPmDCr46PB35tvvmlM7eGD4CXb+FiIzjjjDJcXeeD8S9jIkSPd3/Dhw+3mm29204T+GjpmT4BRr7feBR1hk3PC8RnH7K+//topUpMnT7a11147OVqkv/v6//rrr4Z1hIGG5G8C33+fWGSTEDhxL6QSnjP8PrmvmFLr3r27oUzFRXjW4TiOEs2gQopR9FtWU2nRb8Naa4AFiQ4PK8v5559vTz31lHuYnXrqqbWmzSQCviZMz6EUbb311vbEE0+4B+DAgQNtu+22c+GXXHKJGzWSX7bxSXPNNdc4pYgH6qWXXmrvvvuumy4kXx5M+E89/vjjRJXkQcBPjZAFKxjTyYYbbuhW4xDn888/dx1DuvhRO+cVI8qNciSpTsDfK0FO1WP8+Q2lAcsxQhosxXETz8AziVv9Kq0+Uoxi3uLM62+77ba2/fbb2xFHHGHPPPOMm/Z46KHEO+8KNMJ/7bXX3KoSVhpdf/31bvqOESQdJ5YiHDN5YHifpmzj47TJFBqCJWzPPfesWtq711572YknnmiY65nGk+RHwFv8WEWWypnWXwEl1VsdvTUgTg62LFLw4rn47zpalXUYB+TahGeNd1LGyuj92GpLF5Xz/l7RfRKVFktfTilG6flE/izOsyy5Zt8ib75+//337eyzz7aJEycWpH6sfkN23XXXGsunmX549dVXnQUJx28k2/j4K+HgS/n32Wcfl0fw3+GHH+7yl8UoSCW3z/7BjqKZifg9sYiLZRI/krgIyr3/zXgucalbvvVgrye/ACLTe2XjjTd2AxiuzVR6nJj6QUSc6pTvPRLl9FKMotx6GZQdfyOsLU8++aSbfsKi06VLF6ecHH/88VWrSjLIKmUUr+iggGUiucZv27ZtVUeVyXUUJ3sCdHiIVwgyyYF291MJWCiZto2L+A4Px3/J3wSCPDyjv8+Gf2JlLM8ehPQ47cdFPAMspt5HLy51q8R6SDGqoFbH3LvTTju5jR0xf7NfjZ/eygeDfxBkupN2tvH99IzffTmfsiptegJeIfJtlD72n2dpdzZ69O3z0UcfpewcvJNubUv8y8Wnx3PwXDLhUQlxgjxYnZip4LTPYA3BeXtKYiPPVBKle8UzoMz+d5CqXgovfwJSjMq/jbIuIY6wL7zwgtvEMSwxo3usLwirxvIV71iZ6TRKtvH9Un+m1HxHlW+ZlT6cgJ8WCVoEwmNWD+V1EL5deUWDtwpWj/W3QzdWJT8VkxyH797qVJsDeFjaQoVRPs8Ba4fkbwL+PiHEWxn/Ppv+U9Bpn/uE+yVMfNtH4V7xDPwO72H1UVh0CEgxik5bZVxSNt3Dh+iCCy4ITcPDHiUD8Z1ZaMQMAzt16uRivpHYGt8/IHxSRlKnn3664QfEkl0k2/j4R2GqJu/XX3/dZ111ZPsB8j/nnHOqwvQhNwL+wY6vhLfUZZpT0ME2lUXIvzIBBZf3+IUJS57ZcRrx8cPiFTss6C8SVASKfd0o5I9lxN8r2Vr3sDYFnfa9tSW53r7to3CveAaeSXJd9D1aBKQYRau9Mipt7969nY8I/h4sbfejXhIzOuvfv79zZsYxe/PNN88oz3SReA8SHcfYsWPd9fwIkM7xuuuus1deecVZr9iMEck2Pg9SvwfSRRdd5Bw3fXmwUrEFAfsZYaaX5EfA73SNtYS9e7KVoINtWFo2AvTTMLxCAYsBTtsoYewDw35IbL3grUnBzfOS8/PbUGBRSP7zHVUwDfdjcjz/nRfW+mv6NOTvRRYjT+Lvo2cS5PT32fSfgk77qWJG8V7xTFLVSeHRIBCfXbaiwbtOSslU2WmnnWbXXnut29vnueees3XXXdd1PigSWF4Y2aA0FWIkjPPt1VdfbeyL9PTTT9vzzz9v66yzjk2aNKnKgnTsscdWvUQy2/hAY78ifKKwhh188MHGrsyMWv2yX3bzPvDAA+uEb5wvQmcEV5QEOjzvVJ1pnekYeBEoe2aFCfcde12xMpL7kJWRqVZHomStvPLKYdm4MDYLTCVhL6nFCjU08RLcVILyHVx67jt8rJXZckh1jTiF0zbsnu85ZVs3ngNYB1Olj8q9glLvBxHp7tds+Sh+6QjIYlQ69kW9ct++fe3uu+9201aYotlUDd8jb8Z+8MEHrWfPngUrA0vx2YSRN0zTkWCt4rr4MmE1Ouyww6pdK9v4PCRvvfVW96qTNm3auNc0oBSxHQD1eOyxx9K+lqDaxfUlJQHazr/eYUbiTfbJ4h1L0znas2+Vd7AlPYpWUJZffnn3/j6mSrz1yJ8nLkrIZpttVi0Pfz7ddX0cjsF4vszB82Gfk8vpX42C1Sr5XFj6Sgvzr4xhytErBp5BkH8qdsTBad/H9UefB8co3CszZ86ssjZ6JsE66HP0CNRL3NRZvY1z3IRJrpbt27WNXm0rtMQoKFhveEChqIQ9gAqJBkvAtGnT3NRWJqblbONTVjpt0tEJSwpLAAsOU1zcJ7169ap1o8d8ro5lat68eW5naZQyHG4zVWTyuW5tadmQ1Puzde3a1Vq3bl1bkoo7T9sxTc5UPX6Afqq8WCDK9V5h2wE2rWSH7x49ehSr+sq3DgnIYlSHsEt1KToaptLatWtXdKWIOtLB4YibiVKUS3zSYLKWUgSJwgvWHqZYmSKYPn164S8QyBFlHasfVhn8TspBKaJ4dHQIW1zId82hqPGPtmPKHOE1P9k669fIsJaAcrxXGJz53wjPWEk8CEgxikc7qhYiUDACKLZ+iwQc6lOtGirYBcssI5y0vd8TS8uLbWEts+pnVRwGWyiPOLvjOF9pgs8mvw+m/PBrk8SDgBSjeLSjaiECBSWA1Qh/CZQCfCgqSdh4EIsZDv3pVsVVEpNUdeX+QHlkGglulSRM7TGlj8M+DLBoSeJBQD5G8WhH1UIEREAEREAERKAABGQxKgBEZSECIiACIiACIhAPAg1z3ccm13TxwKZaiIAIiIAIiIAIxJGALEZxbFXVSQREQAREQAREICcCUoxywqZEIiACIiACIiACcSQgxSiOrao6iYAIiIAIiIAI5ERAilFO2JRIBERABERABEQgjgSkGMWxVVUnERABERABERCBnAhIMcoJmxKJgAiIgAiIgAjEkYAUozi2quokAiIgAiIgAiKQEwEpRjlhUyIREAEREAEREIE4EpBiFMdWVZ1EQAREQAREQARyIiDFKCdsSiQCIiACIiACIhBHAlKM4tiqqpMIiIAIiIAIiEBOBKQY5YRNiURABERABERABOJIQIpRHFtVdRIBERABERABEciJgBSjnLApkQiIgAiIgAiIQBwJSDGKY6uqTiIgAiIgAiIgAjkRkGKUEzYlEgEREAEREAERiCMBKUZxbFXVSQREQAREQAREICcCUoxywqZEIiACIiACIiACcSQgxSiOrao6iYAIiIAIiIAI5ERAilFO2JRIBERABERABEQgjgSkGMWxVVUnERABERABERCBnAhIMcoJmxKJgAiIgAiIgAjEkYAUozi2quokAiIgAiIgAiKQE4H/B3ip+E11SjGzAAAAAElFTkSuQmCC;" vertex="1" parent="1">
          <mxGeometry x="490" y="1699" width="355.33" height="116" as="geometry" />
        </mxCell>
        <mxCell id="Jjxi664DVSr25sezRC5C-220" value="" style="shape=image;verticalLabelPosition=bottom;labelBackgroundColor=default;verticalAlign=top;aspect=fixed;imageAspect=0;image=data:image/png,iVBORw0KGgoAAAANSUhEUgAAAjIAAACwCAYAAAAVK4SjAAAK4WlDQ1BJQ0MgUHJvZmlsZQAASImVlwdUU1kagO97L70QIAEBKaE3QToBpIQeivQqKiEJJJQQE4KCXRkcwVFBRATLCI6KKDg6AjKKiAUrig37gAwKyjpYsKGyD1jCzOzZ3bN/zs39zv/++5d37n3nvwBQQ7gSSSasDECWOEcaGeDNjE9IZOKfATIgocMKIFyeTMIODw8BqEzNf5X3dwE0Pt+yGvf178//q6jyBTIeAFASyil8GS8L5TZ0DPMk0hwAkCOo3nBxjmScb6PMkKIJojwwzmmT/GWcUyYYozxhEx3pg7IRAAQKlytNA4Big+qZubw01A8lHGUbMV8kRnkVyh48IZePMhoXzMrKyh7nIZTNUHsJAFQGyqyUP/lM+4v/FIV/LjdNwZN1TQjBVySTZHLz/s9X878lK1M+FcMEHRShNDASnTXQ93cvIztYweKUuWFTLOJP2E+wUB4YM8U8mU/iFPO5vsGKtZlzQ6Y4VeTPUfjJ4URPsUDmFzXF0uxIRaxUqQ97irnS6bjyjBiFXijgKPznC6PjpjhXFDt3imUZUcHTNj4KvVQeqchfIA7wno7rr6g9S/anekUcxdocYXSgonbudP4CMXvapyxekRtf4Os3bROjsJfkeCtiSTLDFfaCzACFXpYbpVibg27O6bXhineYzg0Kn2LgC/xACPpjghhgB5zRYQMiQGiOYEnOeDE+2ZI8qShNmMNkoydOwOSIedazmHY2dnYAjJ/fyS3xNnLiXELqrdO67L3oVn6PnpmSaV1KGQBNhWjoB9M6o10A0AoAaGznyaW5kzrM+B8W/S7QAANoAl1gCMzQL4QdcAJuwAvNOAiEgWiQABYAHhCCLCAFi8EysBoUgmKwGWwFlWA3qAEHwGFwFDSBk+AMuACugBvgDngIekA/eAmGwXswCkEQHqJCdEgT0oOMIUvIDmJBHpAfFAJFQglQMpQGiSE5tAxaCxVDpVAltAeqhX6GTkBnoEtQF3Qf6oUGoTfQZxiBKTAD1oFN4NkwC2bDwXA0PB9OgxfB+XABvBGugKvhQ3AjfAa+At+Be+CX8AgCEDKijugjVggL8UHCkEQkFZEiK5AipBypRuqRFqQDuYX0IEPIJwwOQ8cwMVYYN0wgJgbDwyzCrMBswFRiDmAaMecwtzC9mGHMNywVq421xLpiOdh4bBp2MbYQW47dhz2OPY+9g+3HvsfhcOo4U5wzLhCXgEvHLcVtwO3ENeDacF24PtwIHo/XxFvi3fFheC4+B1+I344/hD+Nv4nvx38kkAl6BDuCPyGRICasIZQTDhJaCTcJzwmjRGWiMdGVGEbkE/OIm4h7iS3E68R+4ihJhWRKcidFk9JJq0kVpHrSedIj0lsymWxAdiFHkEXkVeQK8hHyRXIv+RNFlWJB8aEkUeSUjZT9lDbKfcpbKpVqQvWiJlJzqBuptdSz1CfUj0p0JWsljhJfaaVSlVKj0k2lVzQizZjGpi2g5dPKacdo12lDykRlE2UfZa7yCuUq5RPK3cojKnQVW5UwlSyVDSoHVS6pDKjiVU1U/VT5qgWqNapnVfvoCN2Q7kPn0dfS99LP0/sZOIYpg8NIZxQzDjM6GcNqqmoOarFqS9Sq1E6p9agj6ibqHPVM9U3qR9Xvqn+eoTODPUMwY/2M+hk3Z3zQmKnhpSHQKNJo0Lij8VmTqemnmaFZotmk+VgLo2WhFaG1WGuX1nmtoZmMmW4zeTOLZh6d+UAb1rbQjtReql2jfVV7REdXJ0BHorNd56zOkK66rpduum6ZbqvuoB5dz0NPpFemd1rvBVONyWZmMiuY55jD+tr6gfpy/T36nfqjBqYGMQZrDBoMHhuSDFmGqYZlhu2Gw0Z6RqFGy4zqjB4YE41ZxkLjbcYdxh9MTE3iTNaZNJkMmGqYckzzTetMH5lRzTzNFplVm902x5mzzDPMd5rfsIAtHC2EFlUW1y1hSydLkeVOy65Z2Fkus8Szqmd1W1Gs2Fa5VnVWvdbq1iHWa6ybrF/NNpqdOLtkdsfsbzaONpk2e20e2qraBtmusW2xfWNnYcezq7K7bU+197dfad9s/9rB0kHgsMvhniPdMdRxnWO741cnZyepU73ToLORc7LzDuduFoMVztrAuuiCdfF2Wely0uWTq5NrjutR1z/crNwy3A66DcwxnSOYs3dOn7uBO9d9j3uPB9Mj2eNHjx5PfU+uZ7XnUy9DL77XPq/nbHN2OvsQ+5W3jbfU+7j3Bx9Xn+U+bb6Ib4BvkW+nn6pfjF+l3xN/A/80/zr/4QDHgKUBbYHYwODAksBujg6Hx6nlDAc5By0POhdMCY4Krgx+GmIRIg1pCYVDg0K3hD6aazxXPLcpDIRxwraEPQ43DV8U/msELiI8oiriWaRt5LLIjih61MKog1Hvo72jN0U/jDGLkce0x9Jik2JrYz/E+caVxvXEz45fHn8lQStBlNCciE+MTdyXODLPb97Wef1JjkmFSXfnm85fMv/SAq0FmQtOLaQt5C48loxNjks+mPyFG8at5o6kcFJ2pAzzfHjbeC/5Xvwy/qDAXVAqeJ7qnlqaOpDmnrYlbVDoKSwXDol8RJWi1+mB6bvTP2SEZezPGMuMy2zIImQlZ50Qq4ozxOeydbOXZHdJLCWFkp5Frou2LhqWBkv3ySDZfFlzDgNtlK7KzeTfyXtzPXKrcj8ujl18bInKEvGSq3kWeevznuf75/+0FLOUt7R9mf6y1ct6l7OX71kBrUhZ0b7ScGXByv5VAasOrCatzlh9bY3NmtI179bGrW0p0ClYVdD3XcB3dYVKhdLC7nVu63Z/j/le9H3nevv129d/K+IXXS62KS4v/rKBt+HyD7Y/VPwwtjF1Y+cmp027NuM2izffLfEsOVCqUppf2rcldEtjGbOsqOzd1oVbL5U7lO/eRtom39ZTEVLRvN1o++btXyqFlXeqvKsadmjvWL/jw07+zpu7vHbV79bZXbz784+iH+/tCdjTWG1SXV6Dq8mtebY3dm/HT6yfavdp7Sve93W/eH/PgcgD52qda2sPah/cVAfXyesGDyUdunHY93BzvVX9ngb1huIj4Ij8yIufk3++ezT4aPsx1rH6X4x/2XGcfryoEWrMaxxuEjb1NCc0d50IOtHe4tZy/FfrX/ef1D9ZdUrt1KZWUmtB69jp/NMjbZK2oTNpZ/raF7Y/PBt/9va5iHOd54PPX7zgf+FsB7vj9EX3iycvuV46cZl1uemK05XGq45Xj19zvHa806mz8brz9eYbLjdauuZ0td70vHnmlu+tC7c5t6/cmXun627M3XvdSd099/j3Bu5n3n/9IPfB6MNVj7CPih4rPy5/ov2k+jfz3xp6nHpO9fr2Xn0a9fRhH6/v5e+y37/0FzyjPit/rve8dsBu4OSg/+CNF/Ne9L+UvBwdKvyHyj92vDJ79csfXn9cHY4f7n8tfT32ZsNbzbf73zm8ax8JH3nyPuv96Ieij5ofD3xifer4HPf5+ejiL/gvFV/Nv7Z8C/72aCxrbEzClXInWgEEHXBqKgBv9qP9cQIA9BsAkOZN9tcTAk3eCSYI/Cee7MEnxAmAmm4AopcCEHINgO2VaEuL+qeh94JwGqp3A7C9vWL8S2Sp9naTviieaGvyeGzsrRkA+BIAvpaMjY3WjI19rUGTfQhAW95kXz8uyofQm0yrk41NyGO31FXgbzLZ8/+pxr/PYDwDB/D3+Z/jgxyj303lvgAAAGxlWElmTU0AKgAAAAgABAEaAAUAAAABAAAAPgEbAAUAAAABAAAARgEoAAMAAAABAAIAAIdpAAQAAAABAAAATgAAAAAAAACQAAAAAQAAAJAAAAABAAKgAgAEAAAAAQAAAjKgAwAEAAAAAQAAALAAAAAA0RPO3AAAAAlwSFlzAAAWJQAAFiUBSVIk8AAAOW1JREFUeAHtnQecFEX2x98SDICCiIoogoiABAOKHEY4TlBEPcOZc9Y7A2fGEz2zqKeeWUHl74mnqCicARUjBgQTIIJiQkQJAgJG0n+/hTXbM9szO7O7s9sz/Xufz253V1d3V32rpuvVq1fVJatKxSIok6dOc6nq0rFDBFOnJImACIiACIiACESBQJ0oJEJpEAEREAEREAEREIHKEJAiUxlqukYEREAEREAERCASBKTIRKIYlAgREAEREAEREIHKEJAiUxlquqbaCcyfP9/4kxQ2AZVjYZefT73K0ZMo7m2xlHO94i4m5a5QCPz222+FklSlMwMBlWMGOAV0SuVYQIVVhaQWSznLIlOFSqBLRUAEREAEREAEapeAFJna5a+ni4AIiIAIiIAIVIGAFJkqwNOlIiACIiACIiACtUtAikzt8tfTRUAEREAEREAEqkBAikwV4OlSERABERABERCB2iUQC0Xm22+/tauvvtqeeeaZnGj/73//swcffNC4XiICIlC7BMaMGeN+jzNnzqzdhOjpIiACkSIQi+nXd955pz366KM2fPhw22mnnaxJkyZZFcLdd99tn376qW222Wa28cYbZ3WNIomACOSHwP33328ffPCBrb/++u43mZ+n6K4iIAKFRiAWFplOnTpZSUmJe/mtu+66hVZGSq8IiIAIiIAIiEAaArGwyBxyyCHWu3dvW2+99axOnVjobmmKW8EiIAIiIAIiUFwEYtOqN2vWzOrWrZux9FasWJHxvE5Gk0Au5ZZLXJ/blStX+t1y21zvl+le5W4es4BcWYIn12tWrVpl/OUquT4nruWcK9vKcKrMNbmWt+IXFoFYWGTGjRtn1157rXXs2NEGDx6cVELff/+9PfLII/bqq6/a5MmTbYMNNrA//elPdsYZZyTF00HtExg7dqzddNNNtt1229mxxx5rt956q02cONEWLVrkhg0PPfRQO+qoo9wwYjC106ZNc3HZzp4925o3b+7qwvHHH2/bb799MKoFn8H9brvtNpswYYKLs+OOO9rFF19sm2yyiT355JN233332eeff24MV2677bZ2/vnnW+vWrZPux8Gvv/5qjz/+uL3++uv2zjvvWKNGjaxHjx6unlHX4iZBxvzOKNPXXnvNfvjhB+vatavtvvvuhhUVTukEn7ennnrK/WbxeaNOnHbaadahQ4dyl8Cf3/j48eMTZdmtWzfr3r27e86aa66ZdA31Yu7cuXb99dcb747nn3/ePv74Y1tnnXVsm222sQsvvFDl/Dux5cuX27333msvvfSSzZgxwymJ7dq1c2zPPPNMq1+/fhJbDl588UXH9I033rAlS5ZY+/bt7W9/+5utscYadtVVV7njG2+8Mek6/YaScOgghUBJqQade/ck5Sb5OJw8dZq7bZeO5V9MuT6P2Up///vfXWPz3//+N3E535k44ogj3MuQQCw24EDj58f1448/2qxZswynX16ukvwRQMFAWrRokfYhKAMoEltssYX99NNPbjYZL8ply5Ylrjn55JNdWfsAZrqce+65iTg0WrwUEV6ct9xyi/Xq1ctHdwqHf8bSpUttzpw5FrymVatW1r9/f7v99tvdNWuttZb98ssvbn+jjTayxx57zCnDiRuW7px11llGOpB69eoZL38vzKY74IAD/GHBb3MpRzoWMGYWUvC3B4TddtvN/e7wbfOCYomz7y677OIUDMKD5d+0aVN76KGHbPPNN/eXuN8yyhLKE+Ktst7CwpAzCnFwyLlnz5723Xff2a677uqUT86RDn8NCs1zzz3nnI4TDyrdKaZyzqYc4UGZ0AFEKAvenZ7TH/7wB6fkBJUZOgAogl74Dfrv/fTt29f9Trp06WIjRozwUdy2mNgmZayWD7Ip51pOYlaPj83QUhiNf/7zn+5HyI+J3he95TfffNMuueQS++STT5wSE3adwmqXwGeffeaUi5EjR9qkSZNc40XjgzzwwAO2ePFit49SSm8fRYcG65VXXrEPP/zQnnjiCeMlywuU3mSY8IwNN9zQ9R655p577rGGDRvaV1995ZSYPn36uMb0/fffdw0uyg5KDz34oPzrX/9yL+cGDRo46867775r9ERPOukkF+3SSy817hFHmTp1qlMYrrvuOmcteeutt+yyyy5zSgUWmn//+9+hWGCM5Y3f6ttvv+168VhSFyxY4KZnBy9CUUSJ4Td+ww03uOdgmWGfMM4RJ0ywoJ199tnuGZQZ7wWsRFgRmEEVlDiW89NPP+3en9R9Zoa+9957Rhl6npQNFlMvKDyDBg1yh3vttZdbDoPfFh0Ufo9e2ffx/TaObH3etc2OQGwVGRq3UaNGOUr0wPfZZx/XUGGmxkpz+umnZ0dQsWqFAIrFVltt5XrKDA+hiPreHcM9CD1DrDH0uDFVM6SEYAlgGAKZMmVKokfoAn7/Ry+cl/Omm27qQrAQ7L333m6fOsLLFb8reupY61CUEO7nBUUKCwFCY80wEi99pg+fc845tueeezola/To0f6S2G0HDhxo++23n1MQGjdu7Hr4DDMgqb1yD4dGj98sFhiUywMPPNBOOeUUdzrIH+sAjSRCA4olDUWEP/Z9o0qcML+Lfffd10499VQ3dOjfC1ggEIYpvcS1nBnG47fFshZYNbG8MMyKhXGHHXZwePywLAcoKnQeOnfu7Ib427Rp434/zCrlPixzkSpxZZvKQceZCcRWkWE8F2WGxu+ggw4qRwllRhJNAigXqS89zP34riD4NyAM46A87LHHHsYQkBeGlnxcXqz0sFNlyy23dIpKMNwPWWD65t5B8eeC90KhYnhy7bXXTig6wWtIF/LRRx8Fg2Ozz2/vL3/5S7n8emVh/vz5xl+qoMikCkotgsXMC1a1n3/+2f3G999/fx+c2BJGGohD3FRhzalU8c/xdYzzcS1nfGGowygiXlAIsYii5CMLFy70pxJDUHQIgsNNROD3y9BSqsSVbSoHHWcmkPw2zhy3qM5i1kZogPy4eTCD9PboOeMMLIkWAW8lSU2Vdw6lF+cFqwxWEYYJKHNeskGfGh8vdUv5p4r310AxSZVUxYbz3jpAQ4kVKJ2QLhqAoJ9GurjFFJ7ptwd/hopwssVXJSipSiznfNkHLSuef7rn8Lvn3PTp011ZobwGpWXLlsFDt0+DiwTrmH9OHMsZdg8//LBzomZoFcU9yMbB+v0fZYmkcv79tPNL9Pt+G2e2noG2FROIrSLjGzN6ZOkk07l01yg8/wS8QlHRk7C8nHjiiYmZKgzr4MRNY8T+K6U+M/kUGjYvzJBJFV76rBzNjJs4KjKZfl/+nHcETWWXzbG/1t8r7BpvGfBxg3GyrWdxLWdmc5133nkJ53k6GFhpGCJ8+eWXgyjdPs7wdCTmzZtX7hwBQSuXjxBXtj7/2mZHILaKjJ+m6acMpr60mE2hbyxlV4miGgvHQ8bosXQwOwk/FxQYhCnbYUMU1ZkXb4VhIcZhw4ZV562L4l7pfnsMzzFrCPG/08pk2A958JwwwXLgh5R83LB4FYXFtZzxU6OzgI8YPktBS9kVV1yR8A/z/PCNQXHHAThsqA8n7FSJK9tUDjrOTCC2PjL0zGng0PhZQyZVcv3AZOr1Oq59AswQQlj7g7F8r8QQxoyXfAuNMD1+/ASYnZEqKFPMlPPm89TzxX7Mby/MKkZPH8Fx1PsyVYYFv3GsMTyHWVCpwnAj54hD3MpKHMuZJQe8b9fRRx+dpMTAkU5Eqvg1m5g1mDpDCUU/7D0cR7ap3HRcMYHYKjL4Oey8886OEOsa+PFbAugZsDCTpLAJtG3b1mUAReGLL75IZIZpoFdeeWXiOF87NJBYgRBm4jCl3wsWB2bE0AiwTlFchd+ebxBhQG/dl80f//jHKmFBifTrP11wwQVJv3F+74QhPXv2LOd8msuD41jOOM97JZNOn/dNYo0kpqn7mYNBjswuo0yxhDGtnUkWLCKJ8+8111yTcBAOXhNHtsH8az87ArEdWgIPU3b5MbHoHaZOpufiHMoYLl+75keZbjw3O7yKVZsEcBJl2iyWj379+rlhChbSY2YLTp44k+ZbWEn6yCOPdI0o03mpY1gavvzySzcVFadWpmLHUXCmZTVfGjj8J2jgvJ8EFhLW2KmqMO2dIWKUWf8b555+6IrhDlb9rqrEsZxZsoIlCpi+zmq9TKfG+ZffGAtHBmeQwZfhe5ZBoL6zFhBl4q2RrMvEH8slpEoc2aYy0HFmArGwyPjZIH7rkdDI3XXXXa6Rw0GNlxuKC74TLD/vZ66kXuev17ZmCXg/pnTl4cP9lvJjJWemSxNGL5yXK2teML4fdr+wMJ9Lf1+/9eFsfZjf+nOsc8KzDj74YGd+p45hmaEHy6JgpK9169Y+eqy2OIfyO6N8mPGCEsNMwT//+c92xx13uGnrQSCerd8Gz6UrNxYihD+fPIAz/PljnzCsYcQJir+/v2fYOR/Hn4tjObPaLqsm8x5FIWVhR4ZvsaixRhKSyhBLOGXLkOqQIUOc7xoWHRY/DJv5xz3iyJZ8S7InEItPFGSDg4aFRo71D/wUy2yuU5zqIZDvpbLpJdKAsVqvn6pbPSnP7S401vgX8CmGdC/u3O4YrdjZlCM9eJxD+d6UXyEXqxlLHfD5iXyKt7CyEnA+pdDLOZtyDPIjPu9QhptSlRcfD8dqlHiUGYbzUgUL+dChQ93aQjgLp5NCZ5suX7URnms510Yas3lmrIeWgoDoYTHcIClOAvS6MX3XtqBIScoToFfPX74l3wqMT3/cyjnTN9I8E5YbGDBggDvER+awww5zU7UZZuVTEf/3f//nzvEtrUwSN7aZWOjcagJSZFQTREAEREAE8k5g6623dkNOfHDz5ptvdn8or1jjvDCsWFUnb38vbeNDQIpMfMpaORWBSBBg6BZHXxx8JfEigALDF+L5Y6gJJQZfNj79wOdEsNJIRCBXAvKRyZWY4ueFQLGM1eYFTgHdVOVYQIWVIak1VY4MN+HMK6kdAjVVzvnOXSxmLeUbou4vAiIgAiKQOwEpMbkz0xXlCUiRKc9EISIgAiIgAiIgAgVCQD4yBVJQxZ5MVvCUFD4BlWPhlyE5UDkWRzlWlItiKWcpMhWVtM7XCAHW75EUPgGVY+GXITlQORZHOVaUi2IpZw0tVVTSOi8CIiACIiACIhBZAlJkIls0SpgIiIAIiIAIiEBFBKTIVERI50VABERABERABCJLQIpMZItGCRMBERABERABEaiIgBSZigjpvAiIgAiIgAiIQGQJSJGJbNEoYSIgAiIgAiIgAhURkCJTESGdFwEREAEREAERiCwBKTKRLRolTAREQAREQAREoCICUmQqIqTzIiACIiACIiACkSVQz3/9MqopjHr6ospN6RIBERABERCBOBCQRSYOpaw8ioAIiIAIiECREqjXokWLSGbt+0WLXbqimr5IQlOiREAEREAERCBmBGSRiVmBK7siIAIiIAIiUEwEpMgUU2kqLyIgAiIgAiIQMwJSZGJW4MquCIiACIiACBQTASkyxVSayosIiIAIiIAIxIyAFJmYFbiyKwIiIAIiIALFRECKTDGVpvIiAiIgAiIgAjEjIEUmZgWu7IqACIiACIhAMRGQIlNMpam8iIAIiIAIiEDMCEiRiVmBK7siIAIiIAIiUEwEpMgUU2kqLyIgAiIgAiIQMwJSZGJW4MquCBQygUWLFtmKFSsKOQtKuwiIQDUTqFfN99PtRMBWrVpl9913n73yyiuOxl133WUNGzYUGREoR+DLL7+0wYMH25IlS6xPnz521FFHlYvz+eefG3Xovffes1mzZlmDBg1s6623toMPPtj69etXLr4PmDBhgj322GM2ZcoU++qrr6xVq1bWqVMnO/DAA6179+4+mrYiUKMEsqnzJOidd96xkSNHuvr7xRdf2GabbWadO3e2fffd13bZZZcaTXPUHyZFJuolVGDpmzt3rp1//vn29ttvJ1L+22+/SZFJ0NCOJ/D444/bVVddZT/99JML2nLLLf2pxBYl5KSTTrKFCxe6sKZNm7p96hd/33zzjTufuOD3neHDh9vVV19ty5cvdyF169a1zz77zP09/fTTNnDgQDviiCNSL9OxCOSVQDZ1ngQ88MADdv311yesj/Xr1zcUev5Gjx5tZ555pp122ml5TWsh3VxDS4VUWhFP60svvWT77befa2BkgYl4YdVi8hYvXmxnn322XXzxxU6JSVdXsOydcsopTnHZcccd7dVXX7U333zT1a/+/fu7HNx4441GDzcon3zyiV1++eVOiTnssMNs7Nix9tFHH7ktVh+GplCgvHIUvFb7IpAPAtnWeZ49ffp0u/baa109pZ6/+OKLNnnyZFd/DzroIGfxvuWWW5yFMh9pLcR7SpEpxFKLYJo//vhjO/30013jsNtuu9l//vOfGkkljZ2ksAhcdNFF9txzz1mjRo1crzPd8BDKx/fff+/i3XPPPbbRRhu5jDZu3NgNRzVv3twdv/7660kARo0a5Y579+5tl156qW2yySbumC0NQJMmTWzlypX22muvJV2nAxHIF4Fs6zzPR3FBGAa94YYbbNNNN3XH1N8rr7zSunXr5o59PHcQ839SZGJeAaor+wwfrbHGGsYPlkZn/fXXr65bJ92HoYI777zT/vKXv9h2223n/vCVoGe+bNmypLg6iCYB6go+Lk8++aTts88+aRM5bdo0p4T06tXL1lprraR4derUcf4CBH766adJ5zbeeGM75phj7OSTT04K56CkpCSh2Pzwww/lzitABPJBINs6z7PnzZvnktCuXbvQpLRv396F+3ihkWIWKB+ZmBV4vrJLb+GRRx6xrbbaKl+PcKZWhgowsyKMG9OznjRpkvsj/N5773XheUuEblxlAscdd5xztsVvJZNgRucvneAfg2y++eZJUTL5vnANChKy/fbbJ12nAxHIF4Fs6zzP33PPPe2///2vG0ZF2cYC6eXHH380b4EknmQ1ASkyqgnVQqBZs2bGXz4FJ02UlTXXXNNuvvlm57n/888/O1Mszps4f06cONF69OiRz2To3lUksNNOO1XxDmbPP/+8MZyJMtuzZ8+096N+/Prrr0aD8MEHHzhTPT4yRx55pDPdp71QJ0SgGgnkUueZUUd8/MFQ5I899lg3Ywkl/MEHH3Qz8FDeGcKXrCYgRUY1oWAIdOjQwW699VZr0aJFohGiITvggAPsiSeecEoMU26lyBRMkVYqoTj3Dho0yF179NFHl7PIBG963nnnJXwOCGf487LLLrNDDz00GE37IhAZAgx/snzFNddcY8OGDbMrrrgiKW1YYnAG5t0nWU1AioxqQsEQYMw4ddyYoaWlS5cmrEGaiVIwxVmphC5YsMD5vrAwXteuXe2ss87KeB/W3kABpl7MmTPH8FVgWjbXn3rqqRmv1UkRqA0CWAxRwJ999ln3eJTvli1buqUGfvnlF+coj6/gTTfdJGXm9wKSIlMbNVXPrDQBpiY+/PDDhuWFhokxY81cqjTOgrqQsmZNmZkzZ9oWW2zhnL55yWcS1jTywrRsZnrccccdbmhynXXW0VoyHo62kSGAJeaZZ55xCz+yjMBee+1l+JPRaWMpAYbRqcdYJYkrMdOsJdWCgiGAXwQzlHCEY3EzptEyc4lZLZLiJoAlhen9TMlmVtKQIUOSnCCzyT3WPO5xwgknuOgPPfRQNpcpjgjUGAFmXrIaNcLSAawj453imam3xx57JJQXlhlAuZeYySKjWlAwBJjWjePm7rvv7hZTY9jAC+PIapg8jeLaYmofMGCAjR8/3jbccEN7oHTVU5SZMKEhYI0ahPVpfCMQjMuQFPL1118Hg7UvArVOYMaMGcbwEZLO18+H87vA4X2HHXao9XTXdgKkyNR2Cej5WRHgx01vHMHBM6jEEPbWW2+xkRQhgX/84x/OpM7nCVBi+GZSOqHXiiMkC+nxTSYWxUsVX4/yuVRA6jN1LALZEKBuMyuTDtv7779vffv2LXcZ4QhKetu2bcudj2OAhpbiWOoFmGcWRPMrtDJ+zHgxgtPbJZdc4r5BUoDZUpIrIHDddde5D+cRDSWmTZs2Ga/g5e4/X8AqqHxoMih8RmPo0KEuSEOSQTLajwIBlG8/VZvZdePGjUtKFstLsOgogmWR4XWJhpZUBwqIAKvAsqovH17D2Y1GDedfPjpIT4YvHEuKhwBlfP/99ycyxHe8woTp+DhBesEHBmfwqVOn2uGHH+4UYJZ5Z9o2DuIIjQVryUhEIGoEmLFEXeWL1yeeeKKbkUn9nT17tvFRXoROHU6/ktUEZJFRTcgLAdZC8BLc92GV2TLV9owzznC9EBY4w8SKGZaet1/lsrqeVZn06ZrKEWA4CPFbf5fUTwgwOy3dn7+GLX40zGxjFWi+x8RCYvjXoMQwjZXGgRWgmbUkEYHaIODrut8G00AHbcSIEXbggQc6X7D58+e7xRxRYvjeGB06OnMaGi2jVlL6YojkV/cmT129jHiXjh3KUqs9EfidAL0ThpfomUh5UbXIRIC1Z1BmUGJkis9ESueiSIA1kGbNmuUWAs3XN+yimO9c0iRFJhdaiisCIiACIiACIhApAhpailRxKDEiIAIiIAIiIAK5EJAikwstxRUBERABERABEYgUASkykSoOJUYEREAEREAERCAXAlJkcqGluCIgAiIgAiIgApEiIEUmUsWhxIiACIiACIiACORCQIpMLrQUVwREQAREQAREIFIEpMhEqjiUGBEQAREQAREQgVwISJHJhZbiioAIiIAIiIAIRIqAFJlIFYcSIwIiIAIiIAIikAsBKTK50FJcERABERABERCBSBGQIhOp4lBiREAEREAEREAEciEgRSYXWoorAiIgAiIgAiIQKQJSZCJVHEqMCIiACIiACIhALgSkyORCS3FFQAREQAREQAQiRUCKTKSKQ4kRAREQAREQARHIhYAUmVxoKa4IiIAIiIAIiECkCEiRiVRxKDEiIAIiIAIiIAK5EJAikwstxRUBERABERABEYgUASkykSoOJUYEREAEREAERCAXAvVyiay4IlARgeXLl9uPP/5ojRs3rihqzue/++47e+GFF6xJkya2zz77ZH39mDFjbO7cubb77rvbZpttlvV1ihg9AosWLbJ11lnH6tatG73EKUV5JUDZT5s2zdZaay3bdttt8/qsKN181apVNnHiRFuxYoVtvfXW1qBBgyglLxJpkSITiWIo/EQ88MAD9tJLL9mkSZPsl19+sVatWlm3bt3s3HPPdYpHdeRwxowZdtVVV1mbNm1yUmTuv/9+++CDD2z99deXIlMdBVGN9/jyyy9t8ODBtmTJEuvTp48dddRR5e7++eef21133WXvvfeezZo1y73IeaEffPDB1q9fv3LxfcCECRPssccesylTpthXX33l6mSnTp3swAMPtO7du/toGbfU5QEDBtjSpUtdvLPPPtu23377jNfoZH4IvP/++zZ//nzbcsstEw/g+NVXX3XH22yzjbVt2zZxLnXnlVdese+//97FIa4Xruc+m2++uXXt2tUHl9tSV999912rU6eO7b///onzwTTstddeWSkar7/+uutc8Z7cYYcdEvcK2ykpKTE6iNR9lJoePXqERYt1mBSZWBd/1TO/cuVKGzRokGswuNuaa65pjRo1cg0HjQeNz5AhQ6xFixZVf5juUFQEHn/8caeY/vTTTy5fwQbKZxQl5KSTTrKFCxe6oKZNm7r9t99+2/j75ptv3Hkf32+HDx9uV199tWsACMOC89lnn7m/p59+2gYOHGhHHHGEj552+69//ctefvnlxHkaQknNE5g5c6ZTNurXr28dO3ZMJID3D38InagNN9zQ1l133cT54A7KAHGxbATFh7PNJFwXfJ6PGwxLvbePk7r1z8w2Por77NmznTKDdZl8SsoIyEemjIX2KkHg4YcfdkoML5jrr7/emUDpCd93331OoaE3TWMgEQFPYPHixYZl4+KLLzaUmIYNG/pTSVt6n6eccopTXHbccUfX837zzTedAtO/f38X98YbbzR6ykH55JNP7PLLL3dKzGGHHWZjx461jz76yG2x+tB4YNnzylHw2uA+FoD//Oc/Vq9evbRpDMbXfv4IoNAiLVu2tDXWWCP0QZTrO++8k1BsQiMVaCC/kY022sil3rMo0KzkJdlSZPKCNT43xUSKnH766W64B4UGU+hOO+1k5513njv3xhtvOJOoO8jDv2x7NcFH00jyJ6l5AhdddJE999xzTtFF+U03PITygQUEC98999yTeJHjf8VwVPPmzV3ifR30ORk1apTb7d27t1166aW2ySabuGO2t9xyixvqpBf92muv+UvKbZctW+YULeKdeOKJbliqXCQF1AiBH374wfnd8bCKfNxQTqdOnVoj6arph/i885tgyFNSRkCKTBkL7VWCAOZOho123XXXcld7hzxeLvPmzSt3vioBvNzoVePA26VLF+cvcfvttzvzc6b70ngdcsghzlkQZev88893vj2ZrtG56iXw22+/OafFJ598MqOvE46dKB+9evVyDp7BVOCn0LlzZxf06aefBk/ZxhtvbMccc4ydfPLJSeEcoGR7xYY6lE7uvPNOw5qIP9Zf//rXdNEUXgMEeMcgdJKaNWuW9oneUkO9wW+l2IR67eXbb7/1u9qWEpCPjKpBlQj43m/YTfBfQOhRV+eY7s8//2zHHXec63nRoPHH+Dh/+DM89NBDzlcnNU34RjDMgPDSQ8Ei/fzdfPPNtueee6ZeouM8EKDscLataObRQQcdZPylE1+/cNIMSibfF66hoUPSOe2iwODXhdKDskwDKqk9AsxWRJitSJmkE+oUQ49+iIlhRIYFi0Woh8zYwzEeJqn1vljyWZl8yCJTGWq6pkICmORvvfVWFw8Tf3UKvZGPP/7Ymf55cY0fP97wlcDRmPFjnI/DBCWG2QqPPvqoffjhhzZ69GjzaWO4I7VnH3YPhVWdAJawipSYip7y/PPPuzrAy71nz55po6P0Mm0Xx/OnnnrKDj30UNfQHXnkkcYMpjCh/mA1Iu52220XFkVhNUiA5RwQHL0zCY28n43ENcxULDZZb731XJY8k2LLX2XzI0WmsuR0XUYCzBhB2cAawxTs6pZTTz3VTdWll4Yj3N57751QYLC80BClCtOvUa6YAUDPjlky+GgwfECD9+yzz6ZeouMIEsC51yurRx99dMaeKX5af/jDH6xv3752wQUXGMNJl112mf3jH/8IzdkTTzzhHNaxIJ5zzjmhcRRYswR+/fVX98B0TuHB1GyxxRYJ36kvvvjCzfQJni/0fd6niGdS6PmprvRLkakukrpPgsADpWvKMNuDIZ/rrrvONthgg8S56tphNkqqsLYDVhmmNjJzJVWwvqQOcbG41L777uuiFquTYCqHQj5esGCB833BysKaH2eddVbG7OAg2aFDh4SjMAouSjbr0qQK90SxRZie7RuN1Hg6rjkClBfWXcT7wFT0dNav8nFZSK6YHGN9vqTIJNcCKTLJPHRURQL4m6C8IPSa/dBNFW+bdDnm1VSFhAgoTvTIEKxBqdK+ffvUIHfcrl07tw27JvQCBdYKAczprCnDmiKUMw65/sWeLkE4c+NUzKJn1M0zzzzTNYz4ROFLFRSWCcBvapdddpG/VBBMLe4ze8xLtr5KrPzrF5mjwUeZKRbxDPADqsxszWLhkJqP4vGESs2ZjmucACtn0pNlWjMzPfAxyIf4H3PYvf25sKElfy71Ot8Yhl2TGlfHtUOAsmGKP1Oymb2BM26un8FAYeWPxu3uu+92iox3DMYaN2LECJc5HIynT5+elFG/aB9KFHFRpDPNoEm6WAeVJhB01s2l4WZmWuvWrY1hSHzqcOBOJ96BuCLLDcPPiI+f7n75DPeL9pGGqvqZ5TOdNX1vKTI1TbxIn0evh0XO+KGdcMIJdsYZZ+Qtp6xsia9DWEPG6q3IVlttVe756Zx5/TAUQxCS6BGgAeMzATh1o0AwdBmcihpMMT141qhBWJ8m7GXvl6H/+uuvE5dSN/y6QtTjdHLDDTe4U0zt/vvf/54umsKriQCdDBptyibXjgaO2iz74B1/sdiGCRZe1mbhj+ekU1T8lG788mpLPAOsTpIyAlJkylhor5IEmM562mmnubFoZoP4hfAqebusLsMxN9XiM27cOPdNHF5EYcNIDC/QIAY/usb4+4svvuieGVz6PKtEKFKNEMAxlxlnzFpBieH7NOmExuraa691jRLlHDa0iVUHCSq7OILjBJ5OqOM0IqwsS8OnT26kI1W94fyWUWawonmrWLZPwJrDitBYijMNxeDDx3fc6IRRzsF64Z81Z84cV6c4zofPn39ORVtvFcIXUFJGQIpMGQvtVYIA01pZ+ZS1DQ444IC0s0EqceuMl+CwSYPmP6CGVcUrUISFzXBgWIBp1ldccYX7Hgum5Jtuusl9D4oGkIXXJNEigL/VyJEjXaJQYphhlkmwwPD5gmHDhtmVV17plA5vgeE6Pmw6dOhQd4tgeeMXw1862W+//dxwE3WM9UkkNUdg7bXXdooM/ku5CsN/WFoz+b+hmKD0oMiwfAMKK07iWHyx5qDEsFyDdzpOZw0kbaTRW01S04piTV6CgmKCJShMUOJQmoMWIs8g9T5h18cpTIpMnEo7D3nFedKbXJm66hud1EexsBiKTnUIvWdMqyys5l9CfqVLesqsKRMm9LjHjBnjLDCtS8fP+Zqs9/5nmMA7CIZdq7CaJ4CljC+Xe0GZCBPK3C90yHmGNvneF74shx9+uFvJd9NNN3X+EjRKCGvZYD2URJ8A3xhiRplvxHNNMZZWFpBLdz3WDVYI51MXKCF0ivxwc/BZKBS8I8ImGvh4DH+mE945zKgKCkNfKNfphOFR3ylDkfKrUWdKQ7p7FXN4+KBhMedYeatWAv6H5W/KGHPYnz9fla0f42aMml41lhdeBCgxfPF2r732ctNq6cUExV93/PHH24UXXuheDPjSoMTwkmO9EKxKktoh4MvHb30qsq1b1Leg8JLnY6ZM0ed7TKzmSwODEsPQEGV97733ulVSg9dl2vdp89tMcXWuegn4YTwsqKl1Ilgewf1gCghniMn7S4XFY9iyZ8+eTkkJOhhzH+LzTmE9IpSRVAm7X2ocjoPxgvthcX1YMB7vOm8V8kx8vLhvS0pfAslvgYgQmTx19TLiXTrKATMiRRLJZCxdutQpM5iC/YuqooRS5WncMPVWtFpoRffS+egTYO0ZyhslpjYdNaNPKpop5PfK1HmsJfiv+G9s5Su1PI8vtOOTg38OdSbbd0u+0sR9sTJ+WToLixWM9TmVZNIaWkrmoaMCI8CiZbkuXIaJmKEGSTwIoKxKYS3csub3ivP+5MmT3acmsKIGLRXVnTOeh39M2KzI6n5WtvdjNh7KOKLZleWpaWipPBOFiIAIiIAIRIgA6//QYcFKwgyjuAnOyigzKOSZZu3FjYvPrxQZT0JbERABERCBSBLAArPtttu6YRX/NexIJjQPiWKoC/8unH5ZGweLkSSZgHxkknnoSAREQAREQAREoIAIyCJTQIWlpIqACIiACIiACCQTiI+zL19QXTDP7JfS72WUmuokIiACIiACIlBUBBh2atDQbL1mfBSqqLKWKTPFrciguIwYYjZ2lNnU982W/ZqJhc6JgAiIgAiIQOETWLtUmdmmu1mfA832P2a1clP4uUqbg+L0kSldb8CGDF799+OStJnXCREQAREQAREoagLNmpud+U+zQ04u2mwWn48MVphje5vdcomZlJiirbjKmAiIgAiIQBYE5n9nNugUswGHrnatyOKSQotSL90HrqKSkZzSt+QHq3/ErlbyxfSoJF/pEAEREAEREIHaJ/DMI7aytKO//M7RVvqVzNpPTzWmoKgsMvXOP0pKTDVWDt1KBERABESgeAjUefslq3vDBcWTod9zUjRqWZ0xj1udcWMyFtCqhuuYNW4aK2/ujEB0UgREQAREoHgIMDt34TwrYXZuGqnz0G22stQBeFX7rdPEKLzg4lBkSqdT1/33oLT0V+7Wz1acfomt6tQ1bRydEAEREAEREIGCJ1CqzJRMeNXqlvqJ1pk8oVx2mJTNueV3PFXuXKEGFMXQUsnE161kZvj3N1YceYYtv32klJhCraFKtwiIgAiIQPYESj/nsKp7L1s+7GVb2bN/6HUljF7MnR16rhADi0KRqfPW2FD2K9t2tBXnlU7DloiACIiACIhAnAjUr2/Lrxpqq9Zdr1yuS9ddsTrjXy4XXqgBRaHIlMz4KJT/yoNOtNLvvYeeU6AIiIAIiIAIFDWBdZvYyn6HhGax5NPwdjM0csQDi6OVXzg/FPOqdp1DwxUoAiIgAiIgAnEgsGrLNO3govB2sxCZFIcis3xZOPu1GoSHK1QEREAEREAE4kBg7TTt4LI07WYBMikORaYAwSvJIiACIiACIiACVScgRabqDHUHERABERABERCBWiJQHOvI1BI8PVYERKDqBD7++GP78ccfbfPNN7f111+/6jcskDt89913NmvWLGvSpIm1bdu2QFJde8n84Ycf7NNPP7U111zTunTpUnsJqeEnryqdYfTBBx/YihUrrFOnTrb22mvXcAqi/zgpMtEvo8in8Ndff7WhQ4fae++9Z1OnTnXp3WqrrWy77bazk046yb14Ip8JJbBWCMybN88++eQTq1u3rntJ+0S89dZbxrkGDRrY7rvvbvVLp5KGCXGIW1JSYn379rU11ljDRXvjjTfs+++/t1atWtk222wTdqkLmzlzpmskeP7ee++diLdgwQIbN26cu2/v3r1dOhIn0+z4NG+22Wa27bbbpolVFkzevvnmG/e34YYb2rrrrlt2UnvlCEyaNMkolzZt2iTO+XIioHPnzknnEpF+36E8/fXE9RL1ukLdXr58uc2ePdtQarp16+aTru3vBDS0pKpQJQJz5861Y4891u68804bP36861kvXbrU3nnnHbv77rvt6KOPNuJIRCCVwMrSFUgnT57sgrFIBHuavLh5aWOp8XFSr+eYXirxuBdbLz6cbSbx1/G8oPjrOc9fNuLTnHqvdNeiuKBoITTSkvQEsFyhhKDQdujQIRHRlxNl/9FHH9mSJUsS51J3fPmk1gl/j9Tw1Otrs65giUGhQZmZP794ZhulMq7ssRSZypLTdY7ANddcY1OmTDF6lF6ZQaG56aabrGHDhs5CM2TIENESgXIEsEb4hsc36OUilQZ8/fXX7gUedq7Qw1q3bu2ygPVICn/60mT4EWnRokVa6xyKxrvvvpu14pn+adE7g/WOdyziWUQvlbWXIikytce+4J+8ePFie/XVV10+br/9dttll11srbXWcj3rP/3pT/a3v/3NnXvttdfylteKelGpD841frCXn3ovHVeNwLfffutugF9M0BoTdtcPP/zQfvnll7BTBR2Gf0yjRo1cHvCZkZQnwHvmp59+cic23XTT8hECIfjRTJ8+PRBSPLs+71imGM6XlBGQj0wZC+3lSGDRokV2yCGHuLH9oLnX38b/8Hi5VKcw1PDss8+6oawZM2ZYy5YtnX/FMcccYx07diz3qFzj//bbb/bYY4/Z22+/bRMmTHBDFvj89OjRw0488cTSxaKl/5eDnGMACqW3QDRv3jzt1fXq1XP+AZTJ+++/78ogbeQCPbHRRhsZw7EoMltvXTxfJK6u4vAKHnUhkzM4/lHUE3yuYNq0adPqSkIk7kOevMAkkxXTx4vLVopMXEo6D/nEqfGCCy5Ie+eXX179LY/tt98+bZxcT+C9jzLheySMmX/11Vfub+zYscZQ1x577JG4ba7xscCcf/75xr0QnEAJmzhxovvD9+eWW25xw2aJh2gnZwL0Kr11DKtEOtl4442dbwBOuSg+X3zxhZvdlC5+IYb7/P/888+G9UFOv8mlOGfOHBcAJ/xE0gnvGX6f1CuGmHr16mUoP8UivOuw3qH08luQIlNWsupalrHQXhUJYKGhgcKKcckll9gTTzzhppaec845Vbzz6svxlWC4CiVmp512shEjRrgX1vDhw2233XZz4ZdffrnrlXFFrvG5ZvDgwU6J4QV4xRVXuJkrDJ9xX14k+P88+uijRJVUgYAfKuAWjRs3zngnptriI4Dg0MmLvJjEKzLkCWVGkkzA15Ugp+QYq49o5HGKRbgmk5P46isK779n4JkUXg7yk2IpMvnhGru7Mi696667uqmyxx9/vD355JNuGODBBx+sth70888/bwxTMZR04403utkL9NBo6LDE4AjID9z75OQaH2dBhpQQLE1//vOfXQ+Il8f+++9vZ5xxhpvey7CWpGoEvEWNNUFQEDMJSqW36vnedrYziTLdNyrncIr34rn4Y20tYX31ymwmJqxF5J1iseJ5P6xM1xTSOV9XVE+SS02KTDIPHVWSAM6a7du3t3bt2iXMuayrcdFFF9lnn31WybsmX8bsKKR///4JB0kfA3P8mDFjnIUGR2Mk1/j42+BQSsN50EEH+Vsntscdd5y7vywyCSSV3vEvYr/uS0U3wt+BuoVg+cMPolgEZdwPgXguxZK3quZjWen3gLzDfbZ1hfWrfFyGlouJqVf6iylPVa0jXC9Fpjoo6h6GvwzWjMcff9wNx2AxYVEwlIm//vWviVkHVUHlFRMUpmyksvFZcMs3LNk8R3FyJ0ADheTCmXL3pnUsgAxjFov4BgpnVUkZgSAPz6jsbPgeMyf9goTeSTw8ZuGFegZYJL2PWeHlovpTLEWm+pnG/o6YP/v06WO33nqr821gvRA/3FMVOP6Hm+2soVzj++EKHHwl+SXgFRhfRtk8jXLv2rWrc8AmPitJp7veO4VWNGU7Kj4pPh+eSzY84hAnyCPbhQbhgpM4nSsEZ+Evv/zS7Yf9K6S64hmQZr2nykpTikwZC+3lSADHy//973+JzxKkXk7v2S8nzsyiqop35Mt2WCHX+H7qNkNMvmGpapp1fTgBb/oP9rjDYyaHrrPOOgmHTlb99Va35FhlDsRYbfzQRGocjr1VpyKH47BrqyuM9HkOWBMkZQR8PSHEW/HKzmbeCzqJU0+oL2Hiy74Q6opngG+ZpIyAFJkyFtrLkQCLlOEDM2jQoNAreTmjFCBeqQiNmGWg/z7Kiy++WO6lRk/lvPPOM/xYmIKJ5BofHwxMt7wsXnjhhXKpYjo59x84cGC5cwrIjYB/ETPW7y1h2d4h6NCZzuLSrFkzdzsUUj40GCZMYWVFXcTHD4uX77Cgv0Ow4c73cwvh/lgefF3J1XqGNSfoJO6tGan59mVfCHXFM/BMUvMS12MpMnEt+WrId79+/ZyPA/4KTFX2vUpuTe9nwIABznkWR+Add9yxyk/s2bOnc+KbNm2ae57vYdGY3XDDDfbcc8856xCL1yG5xufF59egueyyy9zHBH2isQIxpZz1ZDBbS6pGwK/kizWCtVNylaBDZ9i1LJzmhyVY0p0eOU7CKE1M32Y9GqbSe2tNcLGx1Pv5ZQXosaf++YYleA31MTWeP164cGHimf4a7u9FFhlPomzrmQQ5lZ3NvBd0Ek8XsxDrimeSLk9xCy+e1YLiVnIRyC9DR+eee65df/31bm2VUaNG2ZZbbukaCxp+LBv0HFByqqOnibPnddddZ6xLM3LkSBs9erRtscUW9vnnnycsNKeddpox/IDkGp9rWC8Gnx6sTUcddZSx6iy9Qj+Nk9WKDz/8cKJKqkCAxgOuKBI0UN6JN9tb8iLnq9asWRQm1DvWGmLmHPWQmXPpZs+hFG2wwQZht3FhLK6WTlgKAL+doGDlef3114NBSfsoy8GpxL6BxhqYK4ekGxfpAWXDsgueU67Z5D2A9S3d9YVSV1DCvdKfqb7myqcY4ssiUwylWIt5OOKII+yee+5xwziYZlmECt8Zb9YdNmyY9e3bt9pSyNRqFq3beeed3TAQ1iCeiy8OVhm+xB2UXOPzUrvtttvcpxdal37Qj6XAUWKY3k0+HnnkkYzLpAefrf30BGi0/XLz8+bNKxfROzJmcuxm3SDv0MkNUIyCst5667nvfzF04K0z/jxxURq6deuWdA9/PtNzfRy2wXg+zcHzYfup6aSRRbAKpZ4Luz5uYf4TFgzB+YbcMwjyT8eOOCibPq7f+nuwLYS6wlevvQXRMwnmIc77JaWVY1UUAUyf8blLVvu2bSpMXr3DdrY6UyaWi7ds+Dhb1aVbuXAF5IcACgXWEV4oKBZhL4zqfDI97VmzZrmhnmxMrbnGJ600slxHoympXgJYSBjyoZ7sueeeFS6MV5Wn0wDwpW2GglCicPDMVvGoynMrupYFHL0/1g477GCbbLJJRZfE7jxlx7AxQ9f4sfmh43yBiGpd4VtjLPLHCsa9e/fOOvt1Rj9k9QYeXy7+iv6H24pr7i8XXogBssgUYqlFNM00DAwttW3bNu9KDAhokHD8zEaJqUx8rsGEKyUGEtUvWFMYcsRkPnv27Op/QOCOKNdY1fzHBKOgxJA8GiaEJQvke+VQlPtH2TGEjPDZkVydw8vdsIKAKNYVOlP+N8I7VpJMQIpMMg8diYAI1BABFFE/5R0H7nSzSmooOTX+GJyCvd8OU4XzbcGs8QxW4wPpHKHsYVHDUTtugs8hvw+GwPDLkiQTkCKTzENHIiACNUgAqwzj/TTi+ADESVioDYsUDuSZZk3FiUm6vFI/UPYYVvFfw04Xt9jCGepiiBsHcRhgMZIkE9CspWQeOhIBEahBAryUu3fvXoNPjM6jWrVqZfxJsiOAshdHhY/fSM+ePbODFNNYssjEtOCVbREQAREQAREoBgL1qmN9j3yCyCp9JeH6GGPwpbbbfCZP9xYBERABERCB6BKoGz7wgsN73SJpH8M1gOgWiVImAiIgAiIgAiIgAgkCUmQSKLQjAiIgAiIgAiJQaASkyBRaiSm9IiACIiACIiACCQJSZBIotCMCIiACIiACIlBoBKTIFFqJKb0iIAIiIAIiIAIJAlJkEii0IwIiIAIiIAIiUGgEpMgUWokpvSIgAiIgAiIgAgkCxaHIpFuyufRrzBIREAEREAERiC2BVSvTZL14PnVQHIpMw0bhBTU3v1/UDX+oQkVABERABEQgIgTmfBOekHTtZnjsSIcWhyKzaZtwyGNHhYcrVAREQAREQATiQCBdO9gyTbtZgEyKQ5HpulM4+tEPmX04PvycQkVABERABESgmAmMHm42KU0buF2adrMAeRSHIvPHfc3qh3xTaWWpj8wp/c3eeKEAi0ZJFgEREAEREIFKEhg5zGzgCeEXN29ptk3xfHU+/GtS4VmPbmiTpmaHnmr24L/Lp3HhfLPj+5h13dmsey+zJuubpXMOLn+1QkRABERABESgMAisLHXsnf+d2WvPmn0yOX2aT77QrE5x2DHIZMmqUkmf29o7M3nqNPfwLh07ZJeIBaUKS992ZosXZhdfsURABERABEQgbgTalLapo0uVnHrFYceg+IpHJWvazOzmR0pzVDdu1VL5FQEREAEREIGKCTRc1+y2J4pKiSHTxaPIkJud9zC7emhpIdXnSCICIiACIiACIgCBRo3Nbh9ptsVWRcejuBQZimf/Y8weeNEMZyaJCIiACIiACMSdQLsuZiNKZy/1+GNRkvh/veqAXSnHxYUAAAAASUVORK5CYII=;" vertex="1" parent="1">
          <mxGeometry x="467.75" y="2061" width="351.25" height="110" as="geometry" />
        </mxCell>
      </root>
    </mxGraphModel>
  </diagram>
</mxfile>
